<?xml version="1.0" encoding="UTF-8"?>
<svg xmlns="http://www.w3.org/2000/svg" width="61" height="60" viewBox="0 0 61 60" fill="none">
  <path d="M39.3785 25.4312L32.1754 28.1655V37.9525L39.3785 35.3392V25.4312Z" fill="#FFEEE4" stroke="#FFEEE4"></path>
  <path d="M28.5739 37.9546L21.3707 35.2202V25.4332L28.5739 28.0466V37.9546Z" fill="#FFEEE4" stroke="#FFEEE4"></path>
  <path d="M31.425 20.7141L22.1715 24.1842L31.425 27.6543L40.6784 24.1842L31.425 20.7141Z" fill="#FFEEE4" stroke="#FFEEE4" stroke-width="2" stroke-miterlimit="10" stroke-linecap="round" stroke-linejoin="round"></path>
  <path d="M22.1715 26.6777V24.1712V26.6777Z" fill="#FFEEE4"></path>
  <path d="M22.1715 26.6777V24.1712" stroke="#FFEEE4" stroke-width="2" stroke-miterlimit="10" stroke-linecap="round" stroke-linejoin="round"></path>
  <path d="M34.5823 7.46062C34.5823 9.20287 33.1699 10.6152 31.4277 10.6152C29.6854 10.6152 28.2731 9.20287 28.2731 7.46062C28.2731 5.71838 29.6854 4.30601 31.4277 4.30601C33.1699 4.30601 34.5823 5.71838 34.5823 7.46062Z" fill="#FFEEE4" stroke="#FFEEE4" stroke-width="2" stroke-miterlimit="10" stroke-linecap="round" stroke-linejoin="round"></path>
  <path d="M21.0343 45.2073C21.0343 47.7625 18.9628 49.834 16.4076 49.834C13.8523 49.834 11.7809 47.7625 11.7809 45.2073C11.7809 42.652 13.8523 40.5805 16.4076 40.5805C18.9628 40.5805 21.0343 42.652 21.0343 45.2073Z" fill="#FFEEE4" stroke="#FFEEE4" stroke-width="2" stroke-miterlimit="10" stroke-linecap="round" stroke-linejoin="round"></path>
  <path d="M46.4428 40.5805C48.998 40.5805 51.0695 42.652 51.0695 45.2073C51.0695 47.7626 48.998 49.834 46.4428 49.834C43.8875 49.834 41.816 47.7626 41.816 45.2073C41.816 42.652 43.8875 40.5805 46.4428 40.5805Z" fill="#FFEEE4" stroke="#FFEEE4" stroke-width="2" stroke-miterlimit="10" stroke-linecap="round" stroke-linejoin="round"></path>
  <path d="M21.0343 15.1448C21.0343 17.7 18.9628 19.7715 16.4076 19.7715C13.8523 19.7715 11.7809 17.7 11.7809 15.1448C11.7809 12.5895 13.8523 10.518 16.4076 10.518C18.9628 10.518 21.0343 12.5895 21.0343 15.1448Z" fill="#FFEEE4" stroke="#FFEEE4" stroke-width="2" stroke-miterlimit="10" stroke-linecap="round" stroke-linejoin="round"></path>
  <path d="M46.4428 10.518C48.998 10.518 51.0695 12.5895 51.0695 15.1448C51.0695 17.7001 48.998 19.7715 46.4428 19.7715C43.8875 19.7715 41.816 17.7001 41.816 15.1448C41.816 12.5895 43.8875 10.518 46.4428 10.518Z" fill="#FFEEE4" stroke="#FFEEE4" stroke-width="2" stroke-miterlimit="10" stroke-linecap="round" stroke-linejoin="round"></path>
  <path d="M34.5823 52.8981C34.5823 54.6404 33.1699 56.0527 31.4277 56.0527C29.6854 56.0527 28.2731 54.6404 28.2731 52.8981C28.2731 51.1559 29.6854 49.7435 31.4277 49.7435C33.1699 49.7435 34.5823 51.1559 34.5823 52.8981Z" fill="#FFEEE4" stroke="#FFEEE4" stroke-width="2" stroke-miterlimit="10" stroke-linecap="round" stroke-linejoin="round"></path>
  <path d="M54.1347 33.334C52.3925 33.334 50.9801 31.9216 50.9801 30.1794C50.9801 28.4371 52.3925 27.0248 54.1347 27.0248C55.877 27.0248 57.2893 28.4371 57.2893 30.1794C57.2893 31.9216 55.877 33.334 54.1347 33.334Z" fill="#FFEEE4" stroke="#FFEEE4" stroke-width="2" stroke-miterlimit="10" stroke-linecap="round" stroke-linejoin="round"></path>
  <path d="M8.70893 33.334C6.96669 33.334 5.55432 31.9216 5.55432 30.1794C5.55432 28.4371 6.96669 27.0248 8.70893 27.0248C10.4512 27.0248 11.8635 28.4371 11.8635 30.1794C11.8635 31.9216 10.4512 33.334 8.70893 33.334Z" fill="#FFEEE4" stroke="#FFEEE4" stroke-width="2" stroke-miterlimit="10" stroke-linecap="round" stroke-linejoin="round"></path>
  <path d="M31.4215 10.6263V16.9355V10.6263Z" fill="#FFEEE4"></path>
  <path d="M31.4215 10.6263V16.9355" stroke="#FFEEE4" stroke-width="2" stroke-miterlimit="10" stroke-linecap="round" stroke-linejoin="round"></path>
  <path d="M43.092 18.5072L40.7887 20.8105L43.092 18.5072Z" fill="#FFEEE4"></path>
  <path d="M43.092 18.5072L40.7887 20.8105" stroke="#FFEEE4" stroke-width="2" stroke-miterlimit="10" stroke-linecap="round" stroke-linejoin="round"></path>
  <path d="M19.7496 18.5072L22.053 20.8105L19.7496 18.5072Z" fill="#FFEEE4"></path>
  <path d="M19.7496 18.5072L22.053 20.8105" stroke="#FFEEE4" stroke-width="2" stroke-miterlimit="10" stroke-linecap="round" stroke-linejoin="round"></path>
  <path d="M43.092 41.8496L40.7887 39.5463L43.092 41.8496Z" fill="#FFEEE4"></path>
  <path d="M43.092 41.8496L40.7887 39.5463" stroke="#FFEEE4" stroke-width="2" stroke-miterlimit="10" stroke-linecap="round" stroke-linejoin="round"></path>
  <path d="M19.7496 41.8496L22.053 39.5463L19.7496 41.8496Z" fill="#FFEEE4"></path>
  <path d="M19.7496 41.8496L22.053 39.5463" stroke="#FFEEE4" stroke-width="2" stroke-miterlimit="10" stroke-linecap="round" stroke-linejoin="round"></path>
  <path d="M50.9807 30.1855H44.6715H50.9807Z" fill="#FFEEE4"></path>
  <path d="M50.9807 30.1855H44.6715" stroke="#FFEEE4" stroke-width="2" stroke-miterlimit="10" stroke-linecap="round" stroke-linejoin="round"></path>
  <path d="M31.4215 49.7402V43.431V49.7402Z" fill="#FFEEE4"></path>
  <path d="M31.4215 49.7402V43.431" stroke="#FFEEE4" stroke-width="2" stroke-miterlimit="10" stroke-linecap="round" stroke-linejoin="round"></path>
  <path d="M11.8707 30.1855H18.18H11.8707Z" fill="#FFEEE4"></path>
  <path d="M11.8707 30.1855H18.18" stroke="#FFEEE4" stroke-width="2" stroke-miterlimit="10" stroke-linecap="round" stroke-linejoin="round"></path>
  <path d="M30.4015 20.3548L21.1481 23.8248L30.4015 27.2949L39.655 23.8248L30.4015 20.3548Z" stroke="#FF7E45" stroke-width="2" stroke-miterlimit="10" stroke-linecap="round" stroke-linejoin="round"></path>
  <path d="M39.6559 29.459V23.8209" stroke="#FF7E45" stroke-width="2" stroke-miterlimit="10" stroke-linecap="round" stroke-linejoin="round"></path>
  <path d="M30.402 27.2996V39.2871L39.6554 35.817V33.1066" stroke="#FF7E45" stroke-width="2" stroke-miterlimit="10" stroke-linecap="round" stroke-linejoin="round"></path>
  <path d="M21.1481 26.3184V23.8118" stroke="#FF7E45" stroke-width="2" stroke-miterlimit="10" stroke-linecap="round" stroke-linejoin="round"></path>
  <path d="M30.4015 39.2871L21.1481 35.8171V29.9882" stroke="#FF7E45" stroke-width="2" stroke-miterlimit="10" stroke-linecap="round" stroke-linejoin="round"></path>
  <path d="M33.5589 7.10125C33.5589 8.84349 32.1465 10.2559 30.4042 10.2559C28.662 10.2559 27.2496 8.84349 27.2496 7.10125C27.2496 5.359 28.662 3.94663 30.4042 3.94663C32.1465 3.94663 33.5589 5.359 33.5589 7.10125Z" stroke="#FF7E45" stroke-width="2" stroke-miterlimit="10" stroke-linecap="round" stroke-linejoin="round"></path>
  <path d="M20.0109 44.8479C20.0109 47.4031 17.9394 49.4746 15.3842 49.4746C12.8288 49.4746 10.7574 47.4031 10.7574 44.8479C10.7574 42.2926 12.8288 40.2211 15.3842 40.2211C17.9394 40.2211 20.0109 42.2926 20.0109 44.8479Z" stroke="#FF7E45" stroke-width="2" stroke-miterlimit="10" stroke-linecap="round" stroke-linejoin="round"></path>
  <path d="M45.4193 40.2211C47.9746 40.2211 50.0461 42.2926 50.0461 44.8479C50.0461 47.4032 47.9746 49.4746 45.4193 49.4746C42.8641 49.4746 40.7926 47.4032 40.7926 44.8479C40.7926 42.2926 42.8641 40.2211 45.4193 40.2211Z" stroke="#FF7E45" stroke-width="2" stroke-miterlimit="10" stroke-linecap="round" stroke-linejoin="round"></path>
  <path d="M20.0109 14.7854C20.0109 17.3406 17.9394 19.4121 15.3842 19.4121C12.8288 19.4121 10.7574 17.3406 10.7574 14.7854C10.7574 12.2301 12.8288 10.1586 15.3842 10.1586C17.9394 10.1586 20.0109 12.2301 20.0109 14.7854Z" stroke="#FF7E45" stroke-width="2" stroke-miterlimit="10" stroke-linecap="round" stroke-linejoin="round"></path>
  <path d="M45.4193 10.1586C47.9746 10.1586 50.0461 12.2301 50.0461 14.7854C50.0461 17.3407 47.9746 19.4121 45.4193 19.4121C42.8641 19.4121 40.7926 17.3407 40.7926 14.7854C40.7926 12.2301 42.8641 10.1586 45.4193 10.1586Z" stroke="#FF7E45" stroke-width="2" stroke-miterlimit="10" stroke-linecap="round" stroke-linejoin="round"></path>
  <path d="M33.5589 52.5387C33.5589 54.281 32.1465 55.6934 30.4042 55.6934C28.662 55.6934 27.2496 54.281 27.2496 52.5387C27.2496 50.7965 28.662 49.3841 30.4042 49.3841C32.1465 49.3841 33.5589 50.7965 33.5589 52.5387Z" stroke="#FF7E45" stroke-width="2" stroke-miterlimit="10" stroke-linecap="round" stroke-linejoin="round"></path>
  <path d="M53.1113 32.9746C51.369 32.9746 49.9567 31.5622 49.9567 29.82C49.9567 28.0778 51.369 26.6654 53.1113 26.6654C54.8535 26.6654 56.2659 28.0778 56.2659 29.82C56.2659 31.5622 54.8535 32.9746 53.1113 32.9746Z" stroke="#FF7E45" stroke-width="2" stroke-miterlimit="10" stroke-linecap="round" stroke-linejoin="round"></path>
  <path d="M7.6855 32.9746C5.94325 32.9746 4.53088 31.5622 4.53088 29.82C4.53088 28.0778 5.94325 26.6654 7.6855 26.6654C9.42774 26.6654 10.8401 28.0778 10.8401 29.82C10.8401 31.5622 9.42774 32.9746 7.6855 32.9746Z" stroke="#FF7E45" stroke-width="2" stroke-miterlimit="10" stroke-linecap="round" stroke-linejoin="round"></path>
  <path d="M30.3981 10.2669V16.5762" stroke="#FF7E45" stroke-width="2" stroke-miterlimit="10" stroke-linecap="round" stroke-linejoin="round"></path>
  <path d="M42.0686 18.1479L39.7653 20.4512" stroke="#FF7E45" stroke-width="2" stroke-miterlimit="10" stroke-linecap="round" stroke-linejoin="round"></path>
  <path d="M18.7262 18.1479L21.0295 20.4512" stroke="#FF7E45" stroke-width="2" stroke-miterlimit="10" stroke-linecap="round" stroke-linejoin="round"></path>
  <path d="M42.0686 41.4902L39.7653 39.1869" stroke="#FF7E45" stroke-width="2" stroke-miterlimit="10" stroke-linecap="round" stroke-linejoin="round"></path>
  <path d="M18.7262 41.4902L21.0295 39.1869" stroke="#FF7E45" stroke-width="2" stroke-miterlimit="10" stroke-linecap="round" stroke-linejoin="round"></path>
  <path d="M49.9573 29.8262H43.6481" stroke="#FF7E45" stroke-width="2" stroke-miterlimit="10" stroke-linecap="round" stroke-linejoin="round"></path>
  <path d="M30.3981 49.3809V43.0716" stroke="#FF7E45" stroke-width="2" stroke-miterlimit="10" stroke-linecap="round" stroke-linejoin="round"></path>
  <path d="M10.8473 29.8262H17.1565" stroke="#FF7E45" stroke-width="2" stroke-miterlimit="10" stroke-linecap="round" stroke-linejoin="round"></path>
</svg>
