<?xml version="1.0" encoding="UTF-8"?>
<svg xmlns="http://www.w3.org/2000/svg" width="60" height="60" viewBox="0 0 60 60" fill="none">
  <rect x="11.0432" y="13.5154" width="43.3806" height="43.8482" rx="3" fill="#FFE4D3"></rect>
  <rect x="19.929" y="3.63623" width="17.8738" height="8.87909" rx="4.43954" stroke="#FF7E45" stroke-width="2"></rect>
  <path fill-rule="evenodd" clip-rule="evenodd" d="M21.411 7.29614C21.411 6.74386 20.9633 6.29614 20.411 6.29614H9.57617C7.36703 6.29614 5.57617 8.08701 5.57617 10.2961V53.6497C5.57617 54.202 6.02389 54.6497 6.57617 54.6497C7.12846 54.6497 7.57617 54.202 7.57617 53.6497V10.2961C7.57617 9.19157 8.4716 8.29614 9.57617 8.29614H20.411C20.9633 8.29614 21.411 7.84843 21.411 7.29614ZM37.2356 7.29614C37.2356 7.84843 37.6834 8.29614 38.2356 8.29614H48.1558C49.2604 8.29614 50.1558 9.19157 50.1558 10.2961V53.6497C50.1558 54.202 50.6035 54.6497 51.1558 54.6497C51.7081 54.6497 52.1558 54.202 52.1558 53.6497V10.2961C52.1558 8.087 50.365 6.29614 48.1558 6.29614H38.2356C37.6834 6.29614 37.2356 6.74386 37.2356 7.29614Z" fill="#FF7E45"></path>
  <rect x="20.5775" y="17.2905" width="9.99125" height="2.61906" rx="1.30953" fill="#FF7E45"></rect>
  <rect x="20.5775" y="23.9834" width="9.99125" height="2.61906" rx="1.30953" fill="#FF7E45"></rect>
  <circle cx="14.5197" cy="18.6723" r="1.30953" fill="#FF7E45"></circle>
  <circle cx="14.5197" cy="25.2929" r="1.30953" fill="#FF7E45"></circle>
  <path d="M6.88562 54.6499H24.7572" stroke="#FF7E45" stroke-width="2" stroke-linecap="round"></path>
  <path d="M22.39 48.3691L29.9679 40.6583L36.3935 47.2612L45.4781 38.3982" stroke="#FF7E45" stroke-width="2" stroke-linecap="round" stroke-linejoin="round"></path>
  <circle cx="45.7994" cy="37.9961" r="1.81247" fill="#FF7E45"></circle>
  <circle cx="22.3901" cy="48.1948" r="1.81247" fill="#FF7E45"></circle>
</svg>
