<?xml version="1.0" encoding="UTF-8"?>
<svg xmlns="http://www.w3.org/2000/svg" width="60" height="60" viewBox="0 0 60 60" fill="none">
  <path d="M28.3927 7.81731C29.7304 6.26728 32.1327 6.26728 33.4704 7.8173C34.3693 8.85887 35.8132 9.24576 37.1124 8.79318C39.0459 8.11968 41.1264 9.32084 41.5099 11.332C41.7675 12.6835 42.8245 13.7405 44.176 13.9982C46.1872 14.3817 47.3884 16.4621 46.7149 18.3956C46.2623 19.6949 46.6492 21.1388 47.6908 22.0377C49.2408 23.3754 49.2408 25.7777 47.6908 27.1154C46.6492 28.0143 46.2623 29.4582 46.7149 30.7574C47.3884 32.6909 46.1872 34.7714 44.176 35.1549C42.8245 35.4126 41.7675 36.4696 41.5099 37.821C41.1264 39.8322 39.0459 41.0334 37.1124 40.3599C35.8132 39.9073 34.3693 40.2942 33.4704 41.3358C32.1327 42.8858 29.7304 42.8858 28.3927 41.3358C27.4938 40.2942 26.0499 39.9073 24.7506 40.3599C22.8171 41.0334 20.7367 39.8322 20.3532 37.821C20.0955 36.4696 19.0385 35.4126 17.687 35.1549C15.6758 34.7714 14.4747 32.6909 15.1482 30.7574C15.6007 29.4582 15.2139 28.0143 14.1723 27.1154C12.6223 25.7777 12.6223 23.3754 14.1723 22.0377C15.2139 21.1388 15.6007 19.6949 15.1482 18.3956C14.4747 16.4621 15.6758 14.3817 17.687 13.9982C19.0385 13.7405 20.0955 12.6835 20.3532 11.332C20.7367 9.32084 22.8171 8.11968 24.7506 8.79318C26.0499 9.24576 27.4938 8.85887 28.3927 7.81731Z" fill="#F8D8C6"></path>
  <path d="M28.0223 15.0953C27.687 15.3071 27.6729 15.8613 28.0011 16.0731C28.0541 16.1084 28.2412 16.1578 28.4283 16.1825C28.8518 16.239 29.1025 16.3555 29.3566 16.6167C29.7767 17.0438 29.812 17.1215 29.8473 17.711C29.8755 18.1769 29.9179 18.2722 30.1438 18.3887C30.3944 18.5158 30.6697 18.4381 30.8533 18.191C30.9203 18.1063 30.9274 18.0393 30.9309 17.6121C30.9345 17.0438 30.9027 16.8991 30.6768 16.4402C30.5391 16.1614 30.4579 16.0555 30.2073 15.8048C29.6919 15.293 29.1872 15.0671 28.5094 15.0389C28.1812 15.0247 28.1247 15.0318 28.0223 15.0953Z" fill="#FF7E45"></path>
  <path d="M26.5507 15.7877C26.233 15.9007 25.8624 16.5184 25.7353 17.1573C25.6118 17.7538 25.7389 18.4951 26.0424 19.0034C26.3989 19.5929 26.9743 20.0341 27.6097 20.2106C27.9274 20.2954 28.6651 20.2954 28.9863 20.2036C29.3323 20.1083 29.837 19.8435 29.9429 19.7023C30.0806 19.5223 30.0983 19.254 29.9853 19.0917C29.8512 18.894 29.7312 18.8269 29.5194 18.8269C29.3711 18.8269 29.297 18.8481 29.1593 18.9363C28.8875 19.1093 28.6722 19.1693 28.3333 19.1693C27.9556 19.1693 27.7509 19.0987 27.4791 18.8763C27.0308 18.5163 26.8296 18.0892 26.8578 17.5738C26.8755 17.2773 27.0096 16.9278 27.1861 16.7196C27.5709 16.2607 27.1085 15.5865 26.5507 15.7877Z" fill="#FF7E45"></path>
  <path d="M24.4221 21.0857C24.3197 21.1104 24.1856 21.1598 24.1256 21.1916C23.9173 21.2975 23.6526 21.587 23.5467 21.8164L23.4443 22.0353V24.312C23.4443 26.377 23.4514 26.617 23.5079 26.8888C23.8573 28.5196 24.9022 29.8151 26.3883 30.4575C26.7518 30.6129 27.1472 30.7293 27.3837 30.7505C27.4684 30.7576 27.7225 30.7823 27.9449 30.8035C28.4426 30.8494 28.898 30.8105 29.0321 30.7117C29.2051 30.5811 29.2686 30.4611 29.2686 30.2599C29.2686 30.0481 29.198 29.9245 29.0039 29.7904C28.898 29.7198 28.8486 29.7127 28.3897 29.7127C27.2884 29.7127 26.4836 29.3915 25.7705 28.6714C25.2693 28.1666 25.0045 27.7607 24.8069 27.1924C24.6021 26.61 24.5915 26.4794 24.5915 24.2979C24.5915 23.2107 24.6057 22.2965 24.6233 22.2682C24.641 22.2435 24.7292 22.2082 24.8245 22.1906C25.1528 22.1306 25.3152 21.9399 25.3152 21.6187C25.3152 21.354 25.2199 21.1951 25.001 21.0963C24.8316 21.0186 24.6763 21.0151 24.4221 21.0857Z" fill="#FF7E45"></path>
  <path d="M26.8262 21.0719C26.5826 21.1355 26.392 21.4567 26.4414 21.7179C26.4732 21.8803 26.6003 22.0532 26.745 22.1274C26.8368 22.1803 26.9427 22.1944 27.1933 22.1944H27.5181L27.691 22.5333C27.8534 22.8439 27.864 22.8792 27.8357 23.0098C27.8181 23.0875 27.7969 23.2216 27.7863 23.3099C27.7757 23.4228 27.3592 25.4772 27.2215 26.0914C27.1968 26.2044 27.271 26.3279 27.6592 26.8151C28.1358 27.4116 28.1534 27.4292 28.3335 27.4292C28.5135 27.4292 28.5311 27.4116 29.0077 26.8151C29.3959 26.3279 29.4701 26.2044 29.4454 26.0914C29.3077 25.4772 28.8912 23.4228 28.8806 23.3099C28.87 23.2216 28.8488 23.0875 28.8312 23.0098C28.8029 22.8792 28.8135 22.8439 28.9759 22.5333L29.1489 22.1944H30.5573C31.7221 22.1944 31.9728 22.2015 32.0151 22.2439C32.0751 22.3074 32.1104 23.2993 32.1104 25.036C32.1104 26.3738 32.0822 26.6633 31.8951 27.1927C31.7186 27.701 31.4715 28.1105 31.0974 28.52C30.8714 28.7671 30.8079 28.9436 30.8714 29.1554C30.9279 29.3424 31.0726 29.4836 31.2562 29.5366C31.5033 29.6001 31.641 29.5401 31.9198 29.2436C32.4952 28.6365 32.9188 27.8175 33.1164 26.9245C33.1694 26.7021 33.18 26.3103 33.2082 24.4183C33.2294 22.851 33.2259 22.1344 33.2012 22.0356C33.0953 21.6403 32.7705 21.2731 32.3999 21.1355C32.1987 21.0578 32.1775 21.0578 29.5689 21.0472C28.1217 21.0437 26.8897 21.0543 26.8262 21.0719Z" fill="#FF7E45"></path>
  <path d="M26.4215 42.8875C26.3411 42.8875 26.2593 42.871 26.1809 42.8365C25.0883 42.353 24.1899 41.5097 23.6333 40.4656C22.7915 40.9911 21.8121 41.2745 20.8078 41.2745C19.8789 41.2745 18.9596 41.028 18.1497 40.5613C16.5089 39.6147 15.4899 37.8493 15.4899 35.9538C15.4899 35.8913 15.4909 35.8285 15.4932 35.7659C15.432 35.768 15.3709 35.769 15.3098 35.769C13.411 35.769 11.6431 34.7494 10.6961 33.1078C10.2294 32.2979 9.98296 31.3791 9.98296 30.4506C9.98296 29.4459 10.2668 28.4663 10.7931 27.6244C9.07634 26.712 7.96777 24.909 7.96777 22.9241C7.96777 21.8552 8.28308 20.8246 8.87975 19.9437C9.0642 19.6715 9.43439 19.6003 9.7066 19.7845C9.97892 19.969 10.0501 20.3391 9.86568 20.6114C9.40296 21.2945 9.1585 22.0942 9.1585 22.9241C9.1585 24.6701 10.2635 26.2349 11.9083 26.8177C12.0931 26.8832 12.2338 27.0354 12.2845 27.2248C12.3353 27.4142 12.2895 27.6164 12.1622 27.7655C11.5248 28.512 11.1738 29.4654 11.1738 30.4506C11.1738 31.1709 11.3654 31.8841 11.7279 32.5132C12.4627 33.7868 13.8353 34.5783 15.3099 34.5783C15.5601 34.5783 15.8112 34.5554 16.0564 34.5103C16.2494 34.4749 16.4471 34.5365 16.5857 34.6751C16.7242 34.8139 16.7855 35.0119 16.7496 35.2046C16.7039 35.4506 16.6807 35.7027 16.6807 35.9538C16.6807 37.4251 17.4715 38.7954 18.7445 39.5298C19.3737 39.8921 20.0873 40.0837 20.8079 40.0837C21.7926 40.0837 22.7459 39.7334 23.4923 39.0973C23.6413 38.9704 23.8434 38.9248 24.0326 38.9754C24.2218 39.0262 24.374 39.1667 24.4395 39.3513C24.8176 40.4163 25.6278 41.2897 26.6627 41.7475C26.9634 41.8805 27.0993 42.2322 26.9663 42.5329C26.8679 42.7552 26.65 42.8875 26.4215 42.8875ZM31.8625 41.7073C31.7215 41.7073 31.5802 41.6575 31.4666 41.5563C31.2211 41.3376 31.1995 40.9612 31.4184 40.7156C31.7761 40.3143 32.0481 39.8551 32.227 39.3513C32.2925 39.1666 32.4446 39.0261 32.6339 38.9753C32.8227 38.9248 33.0251 38.9702 33.1742 39.0972C33.9206 39.7333 34.8739 40.0836 35.8587 40.0836C36.5795 40.0836 37.2931 39.892 37.9224 39.5294C39.1961 38.7945 39.9876 37.4226 39.9876 35.9489C39.9876 35.6993 39.9647 35.4486 39.9195 35.2036C39.8838 35.011 39.9454 34.8132 40.0839 34.6747C40.2225 34.5361 40.4199 34.4747 40.6129 34.5102C40.8579 34.5553 41.1086 34.5782 41.3582 34.5782C42.8319 34.5782 44.2038 33.7868 44.9389 32.5127C45.3013 31.8836 45.4929 31.17 45.4929 30.4493C45.4929 29.4646 45.1426 28.5113 44.5065 27.7649C44.3794 27.6158 44.3338 27.4138 44.3847 27.2246C44.4354 27.0354 44.5759 26.8832 44.7606 26.8177C46.4038 26.2345 47.5079 24.6697 47.5079 22.924C47.5079 21.4737 46.7689 20.1557 45.531 19.3981C45.2507 19.2266 45.1624 18.86 45.3341 18.5796C45.5055 18.2992 45.872 18.2109 46.1527 18.3826C47.7468 19.3581 48.6986 21.0559 48.6986 22.9241C48.6986 24.9086 47.5906 26.7117 45.8751 27.6244C46.4004 28.466 46.6836 29.4453 46.6836 30.4495C46.6836 31.3785 46.437 32.2977 45.9705 33.1076C45.0233 34.7494 43.256 35.7691 41.3582 35.7691C41.2971 35.7691 41.2363 35.768 41.1752 35.766C41.1773 35.8271 41.1783 35.8881 41.1783 35.9492C41.1783 37.8469 40.1587 39.6142 38.5171 40.5613C37.7068 41.028 36.7878 41.2746 35.8587 41.2746C34.8546 41.2746 33.8755 40.9913 33.0338 40.4662C32.8353 40.8395 32.5924 41.1881 32.3071 41.5081C32.1896 41.64 32.0263 41.7073 31.8625 41.7073ZM10.594 16.3864C10.2876 16.3864 10.0273 16.1513 10.0013 15.8405C9.98904 15.6934 9.98284 15.5445 9.98284 15.3976C9.98284 14.469 10.2294 13.5502 10.6959 12.7406C11.6737 11.0458 13.5315 10.0134 15.4931 10.0841C15.4908 10.0215 15.4897 9.95875 15.4897 9.89611C15.4897 7.99964 16.5089 6.23355 18.1492 5.28716C18.9593 4.82051 19.878 4.57403 20.8066 4.57403C21.8114 4.57403 22.7909 4.8579 23.6328 5.3842C24.5453 3.66741 26.3482 2.55884 28.3331 2.55884C30.3179 2.55884 32.1209 3.66741 33.0333 5.3842C33.8751 4.8579 34.8547 4.57403 35.8594 4.57403C36.7877 4.57403 37.7066 4.82051 38.5164 5.28692C40.1583 6.23414 41.1781 8.00202 41.1781 9.90076C41.1781 9.96196 41.177 10.0229 41.175 10.0841C41.2375 10.0819 41.3001 10.0808 41.3626 10.0808C43.2581 10.0808 45.0236 11.0999 45.97 12.7404C46.1273 13.0136 46.2609 13.3009 46.3674 13.5949C46.4792 13.9041 46.3193 14.2455 46.01 14.3573C45.7012 14.469 45.3594 14.3093 45.2476 14C45.165 13.7713 45.0609 13.5476 44.9384 13.3351C44.2042 12.0624 42.8339 11.2715 41.3626 11.2715C41.1119 11.2715 40.8598 11.2947 40.6135 11.3406C40.4203 11.3758 40.2227 11.315 40.084 11.1765C39.9453 11.038 39.8836 10.84 39.9192 10.6473C39.9645 10.4019 39.9873 10.1508 39.9873 9.90076C39.9873 8.42616 39.196 7.0536 37.9218 6.31857C37.2928 5.95635 36.5796 5.76476 35.8594 5.76476C34.8742 5.76476 33.9207 6.11579 33.1744 6.75318C33.0252 6.88059 32.8231 6.9262 32.6339 6.87559C32.4444 6.82486 32.2921 6.68424 32.2266 6.49944C31.6439 4.85456 30.0791 3.74957 28.3332 3.74957C26.5871 3.74957 25.0224 4.85456 24.4396 6.49932C24.3741 6.68424 24.2218 6.82486 24.0325 6.87559C23.8433 6.92667 23.641 6.88059 23.4918 6.7533C22.7454 6.11579 21.7919 5.76476 20.8067 5.76476C20.0864 5.76476 19.3732 5.95635 18.744 6.31869C17.4713 7.05301 16.6805 8.4239 16.6805 9.89611C16.6805 10.1472 16.7037 10.3997 16.7495 10.6465C16.7854 10.8393 16.7239 11.0374 16.5852 11.1761C16.4465 11.315 16.2485 11.3764 16.0554 11.3406C15.8091 11.2947 15.5566 11.2715 15.3052 11.2715C13.8328 11.2715 12.4619 12.0624 11.7276 13.3354C11.3653 13.9642 11.1737 14.6775 11.1737 15.3976C11.1737 15.5116 11.1786 15.6273 11.1881 15.7416C11.2154 16.0693 10.9719 16.357 10.6442 16.3843C10.6274 16.3857 10.6106 16.3864 10.594 16.3864Z" fill="#FF7E45" stroke="#FF7E45" stroke-width="0.2"></path>
  <path d="M28.3328 35.0234C21.6612 35.0234 16.2334 29.5956 16.2334 22.924C16.2334 18.4141 18.7248 14.3055 22.7353 12.2014C23.0265 12.0487 23.3862 12.1609 23.539 12.452C23.6918 12.7432 23.5795 13.103 23.2884 13.2558C19.6712 15.1536 17.424 18.8582 17.424 22.9239C17.424 28.939 22.3176 33.8325 28.3326 33.8325C34.3477 33.8325 39.2413 28.9389 39.2413 22.9239C39.2413 17.0236 34.6242 12.2351 28.73 12.0224C28.4015 12.0105 28.1446 11.7345 28.1565 11.406C28.1683 11.0773 28.4404 10.8193 28.773 10.8325C31.9045 10.9454 34.8356 12.2554 37.0263 14.5212C39.2223 16.7925 40.432 19.7767 40.432 22.9239C40.4321 29.5956 35.0043 35.0234 28.3328 35.0234Z" fill="#FF7E45" stroke="#FF7E45" stroke-width="0.2"></path>
  <path d="M37.1216 57.441C36.9105 57.441 36.7132 57.3288 36.6062 57.1434L32.581 50.1732C32.4166 49.8884 32.5141 49.5242 32.7989 49.3598C33.0837 49.1951 33.4476 49.2929 33.6122 49.5777L36.977 55.4044L38.7398 50.1454C38.8366 49.857 39.134 49.6877 39.4322 49.7532L44.6985 50.9113L38.6695 40.4696C38.62 40.5005 38.5699 40.5308 38.5191 40.5603C37.707 41.0283 36.7878 41.2747 35.8587 41.2747C34.854 41.2747 33.8743 40.9911 33.0323 40.4654C32.3632 41.7144 31.2068 42.6594 29.8527 43.0676L30.6349 44.4221C30.7993 44.7069 30.7018 45.071 30.417 45.2355C30.1319 45.3999 29.7682 45.3023 29.6037 45.0176L28.4128 42.9552C28.3131 42.7826 28.3064 42.5713 28.3951 42.3927C28.4837 42.2141 28.6559 42.0918 28.8539 42.0668C30.3852 41.8734 31.7093 40.8076 32.2273 39.3512C32.2929 39.1667 32.445 39.0263 32.6342 38.9757C32.8233 38.9251 33.0254 38.9707 33.1744 39.0976C33.9207 39.7338 34.874 40.084 35.8589 40.084C36.5796 40.084 37.2932 39.8924 37.9225 39.5299C38.121 39.4144 38.3085 39.2842 38.4774 39.1447C38.6124 39.033 38.7895 38.9862 38.9623 39.0176C39.1347 39.0487 39.2847 39.1541 39.3723 39.3059L46.4047 51.4853C46.5226 51.6895 46.5089 51.9442 46.3695 52.1346C46.2301 52.3248 45.992 52.415 45.7612 52.3644L39.699 51.0313L37.6863 57.0352C37.612 57.2572 37.4143 57.415 37.1814 57.4384C37.1613 57.44 37.1414 57.441 37.1216 57.441Z" fill="#FF7E45" stroke="#FF7E45" stroke-width="0.2"></path>
  <path d="M19.5481 57.441C19.5283 57.441 19.5084 57.4399 19.4885 57.438C19.2556 57.4148 19.058 57.2569 18.9834 57.035L16.9684 51.0309L10.9058 52.3639C10.6757 52.4147 10.4369 52.3245 10.2975 52.1341C10.1582 51.9437 10.1444 51.689 10.2624 51.4848L17.2947 39.3054C17.3824 39.1537 17.5324 39.0482 17.7048 39.0172C17.8771 38.986 18.0547 39.0325 18.1897 39.1442C18.3587 39.2839 18.5461 39.414 18.7468 39.5307C19.3741 39.892 20.0877 40.0837 20.8084 40.0837C21.7931 40.0837 22.7464 39.7335 23.4927 39.0973C23.6417 38.9704 23.8436 38.9246 24.033 38.9754C24.2221 39.0261 24.3742 39.1664 24.4398 39.3509C24.9578 40.8072 26.2819 41.8731 27.8133 42.0665C28.0111 42.0915 28.1833 42.2138 28.272 42.3924C28.3607 42.571 28.354 42.782 28.2543 42.9549L27.0639 45.017C26.8995 45.3017 26.5354 45.3994 26.2506 45.2349C25.9659 45.0705 25.8682 44.7065 26.0327 44.4217L26.8145 43.0673C25.4603 42.6593 24.304 41.7143 23.6348 40.4651C22.7928 40.9908 21.8131 41.2744 20.8084 41.2744C19.8795 41.2744 18.9602 41.028 18.1503 40.5613C18.0987 40.5313 18.0479 40.5006 17.9976 40.4694L11.9686 50.9111L17.2349 49.753C17.5316 49.688 17.8303 49.8567 17.9271 50.1451L19.6923 55.4046L23.0561 49.5777C23.2204 49.2929 23.5845 49.1953 23.8694 49.3598C24.1541 49.5242 24.2517 49.8883 24.0873 50.1731L20.0636 57.1432C19.9564 57.3287 19.7592 57.441 19.5481 57.441Z" fill="#FF7E45" stroke="#FF7E45" stroke-width="0.5"></path>
  <path d="M7.37624 47.7417C5.73482 47.7417 4.39941 46.4063 4.39941 44.7649C4.39941 43.1235 5.73482 41.7881 7.37624 41.7881C9.01766 41.7881 10.3531 43.1235 10.3531 44.7649C10.3531 46.4063 9.01766 47.7417 7.37624 47.7417ZM7.37624 42.9788C6.39139 42.9788 5.59014 43.7801 5.59014 44.7649C5.59014 45.7498 6.39139 46.551 7.37624 46.551C8.36109 46.551 9.16233 45.7498 9.16233 44.7649C9.16233 43.7801 8.36109 42.9788 7.37624 42.9788Z" fill="#FF7E45" stroke="#FF7E45" stroke-width="0.2"></path>
  <path d="M49.052 10.8291C47.4106 10.8291 46.0752 9.49373 46.0752 7.85231C46.0752 6.21089 47.4106 4.87549 49.052 4.87549C50.6934 4.87549 52.0288 6.21089 52.0288 7.85231C52.0288 9.49373 50.6934 10.8291 49.052 10.8291ZM49.052 6.06622C48.0672 6.06622 47.2659 6.86746 47.2659 7.85231C47.2659 8.83716 48.0672 9.63841 49.052 9.63841C50.0369 9.63841 50.8381 8.83716 50.8381 7.85231C50.8381 6.86746 50.0369 6.06622 49.052 6.06622Z" fill="#FF7E45" stroke="#FF7E45" stroke-width="0.2"></path>
  <path d="M52.0282 40.5974C50.0585 40.5974 48.4561 38.9949 48.4561 37.0252C48.4561 35.0555 50.0585 33.453 52.0282 33.453C53.9979 33.453 55.6004 35.0555 55.6004 37.0252C55.6004 38.9949 53.9979 40.5974 52.0282 40.5974ZM52.0282 34.6437C50.7151 34.6437 49.6468 35.7121 49.6468 37.0252C49.6468 38.3382 50.7151 39.4067 52.0282 39.4067C53.3414 39.4067 54.4097 38.3382 54.4097 37.0252C54.4097 35.7121 53.3414 34.6437 52.0282 34.6437Z" fill="#FF7E45" stroke="#FF7E45" stroke-width="0.2"></path>
</svg>
