<?xml version="1.0" encoding="UTF-8"?>
<svg xmlns="http://www.w3.org/2000/svg" width="60" height="60" viewBox="0 0 60 60" fill="none">
  <path d="M56.5748 44.6187C56.3166 43.6485 55.8675 42.7389 55.2536 41.9426C54.6397 41.1462 53.8732 40.4789 52.9984 39.9793L47.9733 37.1146C46.2089 36.1076 44.1155 35.8365 42.1508 36.3607C40.1861 36.8848 38.5099 38.1616 37.4885 39.9117C37.3803 40.1176 37.3561 40.3571 37.4212 40.5803C37.4863 40.8034 37.6355 40.993 37.8377 41.1092C38.0399 41.2255 38.2794 41.2596 38.5062 41.2043C38.733 41.149 38.9296 41.0087 39.0549 40.8126C39.8366 39.4762 41.1178 38.5016 42.619 38.1016C44.1202 37.7017 45.7195 37.9087 47.0679 38.6776L46.2258 41.2043C47.5678 41.982 46.6659 42.6842 47.0679 44.1768C47.4698 45.6693 55.0101 48.1918 54.2388 49.5329C53.4571 50.8693 50.4676 45.3538 48.9663 45.7538C47.4651 46.1538 47.0234 47.4485 45.675 46.6797L41.2007 48.7807C40.5898 48.4308 40.0482 47.9728 39.6027 47.4294L44.6323 44.5061C44.7698 44.4271 44.884 44.3135 44.9635 44.1768C45.0429 44.04 45.0848 43.8848 45.085 43.7269V40.718C45.085 40.4791 44.9896 40.2499 44.8198 40.081C44.65 39.9121 44.4197 39.8171 44.1796 39.8171C43.9394 39.8171 43.7091 39.9121 43.5393 40.081C43.3695 40.2499 43.2741 40.4791 43.2741 40.718V43.2089L33.3145 48.9338L54.7889 49.8335L43.2741 32.0022V33.5111C43.2741 33.7501 43.3695 33.9792 43.5393 34.1481C43.7091 34.3171 43.9394 34.412 44.1796 34.412C44.4197 34.412 44.65 34.3171 44.8198 34.1481C44.9896 33.9792 45.085 33.7501 45.085 33.5111V30.2095C45.0848 30.0515 45.0429 29.8963 44.9635 29.7596C44.884 29.6228 44.7698 29.5092 44.6323 29.4302L39.4804 26.4664C39.8855 25.5283 40.0979 24.5191 40.1052 23.4981V17.7461C40.1052 15.7213 39.2967 13.7793 37.8577 12.3475C36.4186 10.9157 34.4668 10.1113 32.4317 10.1113C30.3966 10.1113 28.4448 10.9157 27.0058 12.3475C25.5667 13.7793 24.7583 15.7213 24.7583 17.7461V23.4981C24.7583 25.5289 24.3381 31.4626 25.7814 32.8986C27.2247 34.3346 35.0843 49.3951 35.0843 49.3951C35.0843 49.3951 32.9248 31.0605 33.0946 30.8915C33.2644 30.7226 33.3598 30.4934 33.3598 30.2545C33.3598 30.0156 33.2644 29.7865 33.0946 29.6175C32.9248 29.4486 32.6945 29.3537 32.4544 29.3537C30.8935 29.3537 33.7037 27.5645 32.6 26.4664C31.4963 25.3683 26.5691 25.0511 26.5691 23.4981V17.7461C26.6981 16.2876 25.7126 27.981 26.7978 26.9921C27.883 26.0032 25.8762 27.6386 27.3478 27.6386C28.8194 27.6386 30.1908 25.7637 30.1908 25.7637C31.276 26.7527 34.389 24.3052 34.518 25.7637L35.7069 27.3446C35.7042 28.0478 37.5328 26.107 37.2839 26.7652L32.8618 22.6693C32.7242 22.5902 32.568 22.5486 32.4091 22.5486C32.2502 22.5486 32.094 22.5902 31.9564 22.6693L29.2854 24.2053C29.1772 24.2616 29.0815 24.3391 29.0042 24.4331C28.9269 24.5272 28.8695 24.6358 28.8355 24.7525C28.8015 24.8692 28.7915 24.9915 28.8063 25.1121C28.821 25.2327 28.8601 25.3491 28.9212 25.4543C28.9823 25.5595 29.0642 25.6513 29.1619 25.7242C29.2595 25.7971 29.371 25.8496 29.4897 25.8785C29.6083 25.9074 29.7315 25.9121 29.852 25.8924C29.9725 25.8727 23.1444 29.8131 30.1908 25.7637L32.6 37.1146L42.577 30.3581L32.4091 35.9344L24.7583 26.9921L22.6404 28.0249C22.8375 27.9003 24.1774 29.092 24.233 28.8663C24.2885 28.6406 24.2543 28.4023 24.1374 28.2011C24.0206 28 23.8301 27.8515 23.6058 27.7868C23.3815 27.722 23.1408 27.746 22.9338 27.8537L20.1859 29.4573C20.0484 29.5363 19.9342 29.6498 19.8547 29.7866C19.7753 29.9234 19.7333 30.0785 19.7332 30.2365V36.1326C18.7144 36.2657 17.7325 36.5996 16.8449 37.1146L11.8198 40.0018C10.1882 41.0804 9.03142 42.7375 8.58518 44.6353C8.13894 46.533 8.43684 48.5288 9.41816 50.2156C10.3995 51.9024 11.9904 53.1535 13.8666 53.7137C15.7428 54.274 17.7632 54.1013 19.5159 53.2309L24.541 50.3437C25.4139 49.8422 26.1789 49.1745 26.7924 48.3788C27.4059 47.5832 27.8558 46.675 28.1164 45.7062C28.3771 44.7375 28.4434 43.7271 28.3115 42.7329C28.1796 41.7387 27.8521 40.78 27.3478 39.9117C27.2912 39.8041 27.2133 39.7089 27.1187 39.632C27.0242 39.5551 30.1044 34.9337 29.9871 34.8999C29.8698 34.866 26.5575 39.4204 26.4363 39.435C26.3151 39.4497 26.1981 39.4886 26.0924 39.5494C25.9867 39.6102 25.8944 39.6916 25.8211 39.7888C25.7479 39.886 25.6951 39.997 25.6661 40.115C25.637 40.233 25.6323 40.3556 25.6521 40.4755C25.6719 40.5954 25.7159 40.7101 25.7814 40.8126C26.5527 42.1537 26.76 43.7439 26.3581 45.2364C25.9561 46.7289 25.8829 44.0171 24.541 44.7949L21.1234 44.1813C20.1178 44.7491 12.2165 47.507 11.063 47.4277C9.90951 47.3484 13.7196 48.795 12.802 48.0949C11.8845 47.3949 24.2155 45.2691 23.8393 44.1813C23.463 43.0935 23.4896 45.5174 23.7799 44.4038C23.9741 43.664 14.075 49.481 14.5414 48.8732C14.7207 49.9472 24.2145 45.6178 24.8806 45.2364L22.4494 42.076C23.0613 41.7178 20.4982 37.9524 19.7332 37.9524V43.7314C19.7333 43.8893 19.7753 44.0445 19.8547 44.1813C19.9342 44.318 20.0484 44.4316 20.1859 44.5106L22.875 46.0781C23.0121 46.1591 23.1683 46.2026 23.3277 46.2042C23.4865 46.2041 23.6424 46.1624 23.7799 46.0833C23.9174 46.0042 24.0315 45.8906 24.1109 45.7538C24.2331 45.5503 23.2407 47.542 23.7799 47.5728C23.4599 47.2539 25.0836 46.6912 24.8806 46.5671L26.3581 46.5671L31.9564 49.3951L31.5037 37.4929V48.9338L29.9871 48.0645C29.884 47.9993 29.7688 47.9555 29.6483 47.9358C29.5278 47.9161 29.4045 47.9208 29.2859 47.9498C29.1673 47.9787 29.0558 48.0311 28.9581 48.104C28.8604 48.1769 28.7786 48.2687 28.7175 48.3739C28.6564 48.4791 28.6173 48.5955 28.6025 48.7161C28.5878 48.8367 28.5978 48.9591 28.6318 49.0757C28.6658 49.1924 28.7232 49.3011 28.8005 49.3951C28.8778 49.4892 28.9735 49.5667 29.0817 49.623L31.9564 51.2716C32.094 51.3506 32.2502 51.3922 32.4091 51.3922C32.568 51.3922 32.7242 51.3506 32.8618 51.2716L38.0136 48.3122C38.6276 49.1238 39.3969 49.8066 40.2772 50.3211L45.3023 53.2084C46.6181 53.9538 48.1256 54.2966 49.6362 54.1937C51.1468 54.0908 52.5933 53.5468 53.7947 52.6299C54.9961 51.713 55.8989 50.4638 56.3902 49.0388C56.8815 47.6138 56.9394 46.0763 56.5567 44.6187H56.5748Z" fill="#F4DDDD"></path>
  <path d="M51.3853 40.2955C51.1271 39.3253 50.6781 38.4157 50.0642 37.6193C49.4503 36.823 48.6837 36.1557 47.8089 35.656L42.7838 32.7913C41.0194 31.7843 38.9261 31.5133 36.9614 32.0374C34.9967 32.5616 33.3204 33.8383 32.299 35.5885C32.1908 35.7944 32.1667 36.0339 32.2318 36.257C32.2968 36.4802 32.446 36.6697 32.6482 36.786C32.8504 36.9023 33.0899 36.9363 33.3167 36.881C33.5436 36.8258 33.7401 36.6854 33.8654 36.4893C34.6471 35.1529 35.9284 34.1784 37.4296 33.7784C38.9308 33.3784 40.5301 33.5854 41.8784 34.3543L46.9035 37.2416C48.2455 38.0193 49.2241 39.2933 49.626 40.7858C50.028 42.2784 49.8207 43.8685 49.0494 45.2096C48.2677 46.5461 46.9864 47.5206 45.4852 47.9206C43.984 48.3206 42.3847 48.1136 41.0364 47.3447L36.0113 44.4574C35.4004 44.1075 34.8588 43.6496 34.4132 43.1061L39.4428 40.1829C39.5803 40.1039 39.6945 39.9903 39.774 39.8535C39.8535 39.7168 39.8954 39.5616 39.8955 39.4036V36.3947C39.8955 36.1558 39.8001 35.9267 39.6303 35.7577C39.4605 35.5888 39.2302 35.4939 38.9901 35.4939C38.75 35.4939 38.5197 35.5888 38.3499 35.7577C38.1801 35.9267 38.0847 36.1558 38.0847 36.3947V38.8856L28.1251 44.6106V33.1787L38.0847 27.6789V29.1879C38.0847 29.4268 38.1801 29.6559 38.3499 29.8249C38.5197 29.9938 38.75 30.0887 38.9901 30.0887C39.2302 30.0887 39.4605 29.9938 39.6303 29.8249C39.8001 29.6559 39.8955 29.4268 39.8955 29.1879V25.8862C39.8954 25.7283 39.8535 25.5731 39.774 25.4363C39.6945 25.2996 39.5803 25.186 39.4428 25.107L34.291 22.1432C34.696 21.2051 34.9085 20.1958 34.9157 19.1748V13.4229C34.9157 11.398 34.1073 9.45606 32.6682 8.02426C31.2292 6.59246 29.2774 5.78809 27.2423 5.78809C25.2071 5.78809 23.2554 6.59246 21.8163 8.02426C20.3773 9.45606 19.5688 11.398 19.5688 13.4229V19.1748C19.5688 21.2057 20.3797 23.1533 21.823 24.5894C23.2662 26.0254 25.2238 26.8321 27.2649 26.8321C27.505 26.8321 27.7353 26.7372 27.9051 26.5683C28.0749 26.3993 28.1703 26.1702 28.1703 25.9313C28.1703 25.6924 28.0749 25.4632 27.9051 25.2943C27.7353 25.1253 27.505 25.0304 27.2649 25.0304C25.704 25.0304 24.2071 24.4135 23.1034 23.3154C21.9997 22.2172 21.3797 20.7278 21.3797 19.1748V13.4229C21.5086 11.9643 22.1821 10.6068 23.2673 9.61782C24.3525 8.62889 25.7707 8.08036 27.2423 8.08036C28.7139 8.08036 30.1321 8.62889 31.2173 9.61782C32.3025 10.6068 32.9759 11.9643 33.1049 13.4229V19.1748C33.1022 19.878 32.9734 20.5751 32.7246 21.2333L27.6723 18.3461C27.5347 18.267 27.3786 18.2254 27.2196 18.2254C27.0607 18.2254 26.9046 18.267 26.7669 18.3461L24.0959 19.882C23.9877 19.9383 23.8921 20.0158 23.8148 20.1099C23.7375 20.2039 23.6801 20.3126 23.646 20.4293C23.612 20.5459 23.6021 20.6683 23.6168 20.7889C23.6315 20.9095 23.6706 21.0259 23.7317 21.1311C23.7928 21.2363 23.8747 21.3281 23.9724 21.401C24.0701 21.4739 24.1816 21.5263 24.3002 21.5552C24.4188 21.5841 24.5421 21.5889 24.6626 21.5692C24.7831 21.5494 24.8983 21.5057 25.0013 21.4405L27.2196 20.1793L37.3875 26.0349L27.2196 31.6112L17.26 25.8907L18.6498 25.089C18.8469 24.9643 18.9879 24.7687 19.0435 24.5431C19.0991 24.3174 19.0648 24.0791 18.948 23.8779C18.8311 23.6767 18.6406 23.5283 18.4163 23.4635C18.1921 23.3988 17.9513 23.4228 17.7444 23.5305L14.9964 25.134C14.8589 25.213 14.7447 25.3266 14.6653 25.4634C14.5858 25.6001 14.5439 25.7553 14.5437 25.9133V31.8094C13.525 31.9425 12.5431 32.2763 11.6554 32.7913L6.63034 35.6786C4.99876 36.7572 3.84197 38.4142 3.39573 40.312C2.94949 42.2098 3.24738 44.2055 4.22871 45.8923C5.21003 47.5792 6.80092 48.8302 8.67714 49.3905C10.5534 49.9507 12.5737 49.7781 14.3264 48.9077L19.3515 46.0204C20.2244 45.519 20.9894 44.8513 21.6029 44.0556C22.2164 43.2599 22.6663 42.3517 22.927 41.383C23.1876 40.4142 23.2539 39.4039 23.122 38.4097C22.9901 37.4154 22.6627 36.4568 22.1583 35.5885C22.1017 35.4808 22.0238 35.3857 21.9293 35.3087C21.8348 35.2318 21.7256 35.1747 21.6083 35.1409C21.491 35.107 21.3681 35.0971 21.2469 35.1118C21.1256 35.1264 21.0087 35.1653 20.9029 35.2261C20.7972 35.2869 20.7049 35.3684 20.6317 35.4656C20.5584 35.5628 20.5057 35.6737 20.4766 35.7917C20.4476 35.9097 20.4428 36.0324 20.4626 36.1523C20.4824 36.2721 20.5264 36.3868 20.5919 36.4893C21.3633 37.8305 21.5706 39.4206 21.1686 40.9132C20.7667 42.4057 19.7881 43.6797 18.4461 44.4574L13.421 47.3447C12.4154 47.9125 11.264 48.173 10.1105 48.0937C8.95696 48.0144 7.8525 47.5987 6.93496 46.8987C6.01743 46.1986 5.32748 45.2452 4.95126 44.1573C4.57503 43.0695 4.52921 41.8955 4.8195 40.7819C5.01367 40.0421 5.35382 39.348 5.82015 38.7402C6.28648 38.1324 6.86967 37.623 7.53577 37.2416L12.5609 34.3543C13.1727 33.9961 13.8444 33.7504 14.5437 33.6291V39.4081C14.5439 39.5661 14.5858 39.7213 14.6653 39.858C14.7447 39.9948 14.8589 40.1084 14.9964 40.1874L17.6855 41.7549C17.8227 41.8358 17.9788 41.8793 18.1383 41.881C18.297 41.8808 18.453 41.8391 18.5904 41.7601C18.7279 41.681 18.8421 41.5674 18.9214 41.4305C19.0436 41.2271 19.0803 40.9839 19.0235 40.7538C18.9668 40.5236 18.8211 40.3249 18.6181 40.2009L16.3546 38.8946V27.4492L26.3142 33.1697V44.6106L24.7976 43.7412C24.6946 43.6761 24.5793 43.6323 24.4588 43.6126C24.3383 43.5929 24.2151 43.5976 24.0965 43.6265C23.9779 43.6554 23.8664 43.7079 23.7687 43.7808C23.671 43.8537 23.5891 43.9455 23.528 44.0507C23.4669 44.1559 23.4278 44.2723 23.4131 44.3929C23.3984 44.5135 23.4083 44.6358 23.4423 44.7525C23.4763 44.8692 23.5337 44.9778 23.6111 45.0719C23.6884 45.1659 23.784 45.2434 23.8922 45.2997L26.7669 46.9483C26.9046 47.0274 27.0607 47.069 27.2196 47.069C27.3786 47.069 27.5347 47.0274 27.6723 46.9483L32.8242 43.989C33.4382 44.8006 34.2075 45.4833 35.0877 45.9979L40.1128 48.8852C41.4286 49.6306 42.9362 49.9733 44.4468 49.8704C45.9574 49.7675 47.4039 49.2236 48.6053 48.3066C49.8066 47.3897 50.7095 46.1406 51.2008 44.7156C51.6921 43.2906 51.75 41.753 51.3672 40.2955H51.3853Z" fill="#E58F8F"></path>
</svg>
