<?xml version="1.0" encoding="UTF-8"?>
<svg xmlns="http://www.w3.org/2000/svg" width="60" height="60" viewBox="0 0 60 60" fill="none">
  <path d="M8.13477 48.9938C8.13477 46.9688 9.77639 45.3271 11.8014 45.3271H24.4681C26.4931 45.3271 28.1348 46.9688 28.1348 48.9938C28.1348 53.0439 24.8515 56.3271 20.8014 56.3271H15.4681C11.418 56.3271 8.13477 53.0439 8.13477 48.9938Z" fill="#C0E3F8"></path>
  <path d="M36.1348 48.9938C36.1348 46.9688 37.7764 45.3271 39.8014 45.3271H52.4681C54.4931 45.3271 56.1348 46.9688 56.1348 48.9938C56.1348 53.0439 52.8515 56.3271 48.8014 56.3271H43.4681C39.418 56.3271 36.1348 53.0439 36.1348 48.9938Z" fill="#C0E3F8"></path>
  <path d="M40.3753 52.1269L33.6701 49.9672C30.4743 49.0585 29.8978 42.3936 35.5062 42.3936C37.6176 42.3936 44.0361 42.3936 46.9814 42.3936C49.8633 42.5416 52.7994 46.2377 46.6945 50.8278" stroke="#7FBBDC" stroke-width="2" stroke-linecap="round" stroke-linejoin="round"></path>
  <path d="M12.972 51.7636L6.26683 49.6039C3.07103 48.6952 2.49447 42.0303 8.10284 42.0303C10.2143 42.0303 16.6328 42.0303 19.5781 42.0303C22.46 42.1783 25.396 45.8744 19.2912 50.4645" stroke="#7FBBDC" stroke-width="2" stroke-linecap="round" stroke-linejoin="round"></path>
  <circle cx="20.0059" cy="34.2441" r="6.5" fill="#C0E3F8"></circle>
  <circle cx="47.0059" cy="34.2441" r="6.5" fill="#C0E3F8"></circle>
  <path d="M39.0543 35.5498C38.8609 35.8619 38.956 36.2751 39.2859 36.4364C40.4591 37.0102 41.7805 37.2278 43.0848 37.0541C44.6097 36.851 46.017 36.1254 47.0669 35.001C48.1168 33.8765 48.7443 32.4229 48.8426 30.8876C48.9409 29.3524 48.5038 27.8306 47.6058 26.5815C46.7078 25.3324 45.4045 24.4333 43.9179 24.0374C42.4314 23.6415 40.8535 23.7734 39.4532 24.4104C38.053 25.0474 36.9169 26.1503 36.2386 27.5311C35.6584 28.7121 35.4439 30.0339 35.614 31.3289C35.6618 31.693 36.0232 31.9147 36.3807 31.8308C36.7382 31.7468 36.9556 31.3888 36.9169 31.0236C36.8116 30.0301 36.9878 29.0221 37.4322 28.1174C37.9749 27.0128 38.8837 26.1305 40.0039 25.6209C41.1242 25.1113 42.3864 25.0058 43.5757 25.3225C44.765 25.6392 45.8076 26.3585 46.526 27.3578C47.2444 28.357 47.594 29.5745 47.5154 30.8027C47.4368 32.0309 46.9348 33.1938 46.0949 34.0933C45.2549 34.9929 44.1291 35.5733 42.9092 35.7359C41.91 35.869 40.8984 35.7149 39.9902 35.2987C39.6564 35.1456 39.2478 35.2376 39.0543 35.5498Z" fill="#7FBBDC"></path>
  <path d="M20.094 28.8963C20.4437 28.7842 20.8216 28.9764 20.8983 29.3355C21.1575 30.5494 21.0725 31.8164 20.6462 32.9915C20.144 34.3757 19.1965 35.5541 17.9524 36.3418C16.7083 37.1295 15.2379 37.482 13.7719 37.3439C12.3058 37.2058 10.9271 36.585 9.85194 35.5788C8.77679 34.5726 8.06602 33.2381 7.83115 31.7844C7.59627 30.3307 7.85056 28.8402 8.55414 27.5466C9.25771 26.2531 10.3708 25.2296 11.7187 24.6369C12.863 24.1337 14.1216 23.965 15.3499 24.1432C15.7133 24.1959 15.9302 24.5603 15.8415 24.9166C15.7527 25.273 15.3918 25.4855 15.0272 25.4419C14.0866 25.3294 13.1286 25.4697 12.2541 25.8543C11.1757 26.3285 10.2853 27.1472 9.72239 28.1821C9.15953 29.2169 8.9561 30.4093 9.144 31.5723C9.3319 32.7352 9.90051 33.8029 10.7606 34.6078C11.6208 35.4127 12.7237 35.9094 13.8966 36.0198C15.0694 36.1303 16.2457 35.8484 17.241 35.2182C18.2363 34.588 18.9943 33.6453 19.396 32.5379C19.7219 31.6398 19.7984 30.6747 19.6239 29.7436C19.5562 29.3826 19.7444 29.0084 20.094 28.8963Z" fill="#7FBBDC"></path>
  <path d="M26.7742 11.9207C26.5044 11.6677 26.0806 11.6814 25.8276 11.9512C25.5746 12.221 25.5883 12.6449 25.8581 12.8978L28.5369 15.4092C28.8245 15.6788 29.2816 15.6429 29.5236 15.3318L34.2114 9.30451C34.4385 9.01256 34.3859 8.59181 34.094 8.36473C33.802 8.13766 33.3813 8.19025 33.1542 8.48221L28.9172 13.9297L26.7742 11.9207Z" fill="#7FBBDC" stroke="#7FBBDC" stroke-width="0.5"></path>
  <path d="M26.6221 3.67727H37.9795C39.8266 3.58603 42.084 4.86985 42.084 10.9976C42.084 15.0478 42.084 17.5654 42.084 18.318C42.084 19.2074 41.3313 20.5262 37.7737 20.0336" stroke="#7FBBDC" stroke-width="2" stroke-linecap="round"></path>
  <path d="M34.3533 19.4111L33.003 21.3421C31.4865 23.5109 28.3129 23.6177 26.654 21.5557V21.5557C25.9002 20.6187 24.7623 20.0737 23.5597 20.0737H22.3706C20.3527 20.0737 18.3166 19.1343 17.9566 17.1486C17.7787 16.1675 17.662 14.8476 17.6621 13.027C17.6621 10.7023 17.6621 9.0305 17.6621 7.86C17.6621 6.30825 17.9985 4.59902 19.4372 4.0176C20.1231 3.7404 21.008 3.58782 22.1089 3.72261" stroke="#7FBBDC" stroke-width="2" stroke-linecap="round"></path>
</svg>
