<svg width="60" height="60" viewBox="0 0 60 60" fill="none" xmlns="http://www.w3.org/2000/svg">
<path d="M7.9268 42.2286C8.87876 42.2286 9.65048 41.4569 9.65048 40.5049C9.65048 39.553 8.87876 38.7812 7.9268 38.7812C6.97484 38.7812 6.20312 39.553 6.20312 40.5049C6.20312 41.4569 6.97484 42.2286 7.9268 42.2286Z" fill="#E4EDE4"/>
<path d="M5.59558 33.6462C6.81605 33.6462 7.80542 32.6569 7.80542 31.4364C7.80542 30.2159 6.81605 29.2266 5.59558 29.2266C4.37512 29.2266 3.38574 30.2159 3.38574 31.4364C3.38574 32.6569 4.37512 33.6462 5.59558 33.6462Z" fill="#E4EDE4"/>
<path d="M7.9268 24.0919C8.87876 24.0919 9.65048 23.3202 9.65048 22.3682C9.65048 21.4162 8.87876 20.6445 7.9268 20.6445C6.97484 20.6445 6.20312 21.4162 6.20312 22.3682C6.20312 23.3202 6.97484 24.0919 7.9268 24.0919Z" fill="#E4EDE4"/>
<path d="M56.0897 33.6462C57.3102 33.6462 58.2996 32.6569 58.2996 31.4364C58.2996 30.2159 57.3102 29.2266 56.0897 29.2266C54.8693 29.2266 53.8799 30.2159 53.8799 31.4364C53.8799 32.6569 54.8693 33.6462 56.0897 33.6462Z" fill="#E4EDE4"/>
<path d="M53.7588 24.0919C54.7108 24.0919 55.4825 23.3202 55.4825 22.3682C55.4825 21.4162 54.7108 20.6445 53.7588 20.6445C52.8069 20.6445 52.0352 21.4162 52.0352 22.3682C52.0352 23.3202 52.8069 24.0919 53.7588 24.0919Z" fill="#E4EDE4"/>
<path d="M53.7588 42.2286C54.7108 42.2286 55.4825 41.4569 55.4825 40.5049C55.4825 39.553 54.7108 38.7812 53.7588 38.7812C52.8069 38.7812 52.0352 39.553 52.0352 40.5049C52.0352 41.4569 52.8069 42.2286 53.7588 42.2286Z" fill="#E4EDE4"/>
<path d="M14.5771 51.2543V12.6705C14.5771 10.8816 15.0719 9.42969 15.6815 9.42969H45.9884C46.598 9.42969 47.0928 10.8816 47.0928 12.6705V45.7704" fill="#E4EDE4"/>
<path d="M47.1084 23.4102V45.8323C47.1084 46.1251 46.9913 46.4058 46.7846 46.6135L40.7207 52.6773C40.5141 52.8839 40.2323 53.001 39.9395 53.001H30.8145" fill="#E4EDE4"/>
<path d="M14.5771 16.8936V51.8963C14.5771 52.5063 15.0722 53.0013 15.6821 53.0013H36.7792" fill="#E4EDE4"/>
<path d="M46.8164 46.29H41.3791C40.837 46.29 40.3975 46.7295 40.3975 47.2717V52.6927" fill="#E4EDE4"/>
<path d="M12.6919 34.1455H11.5435C10.6644 34.1455 9.82123 34.4948 9.1996 35.1164L7.65039 36.6656" stroke="#93BC93" stroke-width="2" stroke-miterlimit="10" stroke-linecap="round" stroke-linejoin="round"/>
<path d="M12.6919 23.8658H11.5435C10.6644 23.8658 9.82123 23.5165 9.1996 22.8949L7.65039 21.3457" stroke="#93BC93" stroke-width="2" stroke-miterlimit="10" stroke-linecap="round" stroke-linejoin="round"/>
<path d="M12.5696 29.0049H6.22949" stroke="#93BC93" stroke-width="2" stroke-miterlimit="10" stroke-linecap="round" stroke-linejoin="round"/>
<path d="M6.24125 39.7979C7.19321 39.7979 7.96493 39.0262 7.96493 38.0743C7.96493 37.1223 7.19321 36.3506 6.24125 36.3506C5.28929 36.3506 4.51758 37.1223 4.51758 38.0743C4.51758 39.0262 5.28929 39.7979 6.24125 39.7979Z" stroke="#93BC93" stroke-width="2" stroke-miterlimit="10" stroke-linecap="round" stroke-linejoin="round"/>
<path d="M3.91004 31.2156C5.1305 31.2156 6.11988 30.2262 6.11988 29.0057C6.11988 27.7853 5.1305 26.7959 3.91004 26.7959C2.68957 26.7959 1.7002 27.7853 1.7002 29.0057C1.7002 30.2262 2.68957 31.2156 3.91004 31.2156Z" stroke="#93BC93" stroke-width="2" stroke-miterlimit="10" stroke-linecap="round" stroke-linejoin="round"/>
<path d="M6.24125 21.6612C7.19321 21.6612 7.96493 20.8895 7.96493 19.9375C7.96493 18.9856 7.19321 18.2139 6.24125 18.2139C5.28929 18.2139 4.51758 18.9856 4.51758 19.9375C4.51758 20.8895 5.28929 21.6612 6.24125 21.6612Z" stroke="#93BC93" stroke-width="2" stroke-miterlimit="10" stroke-linecap="round" stroke-linejoin="round"/>
<path d="M45.6572 23.8666H46.7712C47.6504 23.8666 48.4934 23.5173 49.1151 22.8957L50.7315 21.2793" stroke="#93BC93" stroke-width="2" stroke-miterlimit="10" stroke-linecap="round" stroke-linejoin="round"/>
<path d="M45.5352 34.1455H46.7708C47.65 34.1455 48.493 34.4948 49.1147 35.1164L50.731 36.7328" stroke="#93BC93" stroke-width="2" stroke-miterlimit="10" stroke-linecap="round" stroke-linejoin="round"/>
<path d="M45.6572 29.0049H51.7719" stroke="#93BC93" stroke-width="2" stroke-miterlimit="10" stroke-linecap="round" stroke-linejoin="round"/>
<path d="M54.4042 31.2156C55.6246 31.2156 56.614 30.2262 56.614 29.0057C56.614 27.7853 55.6246 26.7959 54.4042 26.7959C53.1837 26.7959 52.1943 27.7853 52.1943 29.0057C52.1943 30.2262 53.1837 31.2156 54.4042 31.2156Z" stroke="#93BC93" stroke-width="2" stroke-miterlimit="10" stroke-linecap="round" stroke-linejoin="round"/>
<path d="M52.0733 21.6612C53.0252 21.6612 53.797 20.8895 53.797 19.9375C53.797 18.9856 53.0252 18.2139 52.0733 18.2139C51.1213 18.2139 50.3496 18.9856 50.3496 19.9375C50.3496 20.8895 51.1213 21.6612 52.0733 21.6612Z" stroke="#93BC93" stroke-width="2" stroke-miterlimit="10" stroke-linecap="round" stroke-linejoin="round"/>
<path d="M52.0733 39.7979C53.0252 39.7979 53.797 39.0262 53.797 38.0743C53.797 37.1223 53.0252 36.3506 52.0733 36.3506C51.1213 36.3506 50.3496 37.1223 50.3496 38.0743C50.3496 39.0262 51.1213 39.7979 52.0733 39.7979Z" stroke="#93BC93" stroke-width="2" stroke-miterlimit="10" stroke-linecap="round" stroke-linejoin="round"/>
<path d="M12.8916 10.5955V8.10394C12.8916 7.49403 13.3866 6.99902 13.9965 6.99902H44.3178C44.9277 6.99902 45.4227 7.49403 45.4227 8.10394V17.1124" stroke="#93BC93" stroke-width="2" stroke-miterlimit="10" stroke-linecap="round" stroke-linejoin="round"/>
<path d="M45.4231 20.9795V43.4016C45.4231 43.6945 45.306 43.9751 45.0994 44.1828L39.0356 50.2466C38.829 50.4533 38.5472 50.5704 38.2544 50.5704H34.7109" stroke="#93BC93" stroke-width="2" stroke-miterlimit="10" stroke-linecap="round" stroke-linejoin="round"/>
<path d="M12.8916 14.4629V49.4657C12.8916 50.0756 13.3866 50.5706 13.9965 50.5706H30.8432" stroke="#93BC93" stroke-width="2" stroke-miterlimit="10" stroke-linecap="round" stroke-linejoin="round"/>
<path d="M27.6053 13.6013C27.6053 14.8477 26.5949 15.8579 25.3487 15.8579H22.3777C21.1313 15.8579 20.1211 14.8475 20.1211 13.6013C20.1211 12.355 21.1314 11.3447 22.3777 11.3447H25.3487C26.5949 11.3446 27.6053 12.355 27.6053 13.6013Z" stroke="#93BC93" stroke-width="2" stroke-miterlimit="10" stroke-linecap="round" stroke-linejoin="round"/>
<path d="M41.261 43.6848V41.2693C41.261 40.9642 41.0136 40.7168 40.7085 40.7168H32.1501C31.845 40.7168 31.5977 40.9642 31.5977 41.2693V44.3012C31.5977 44.6062 31.845 44.8536 32.1501 44.8536H38.4316" stroke="#93BC93" stroke-width="2" stroke-miterlimit="10" stroke-linecap="round" stroke-linejoin="round"/>
<path d="M23.9539 40.7168H26.2997C26.6046 40.7168 26.8521 40.9643 26.8521 41.2693V44.3012C26.8521 44.6061 26.6046 44.8536 26.2997 44.8536H17.7409C17.436 44.8536 17.1885 44.6061 17.1885 44.3012V41.2693C17.1885 40.9643 17.436 40.7168 17.7409 40.7168H20.0867" stroke="#93BC93" stroke-width="2" stroke-miterlimit="10" stroke-linecap="round" stroke-linejoin="round"/>
<path d="M45.1308 43.8594H39.6935C39.1515 43.8594 38.7119 44.2988 38.7119 44.841V50.2621" stroke="#93BC93" stroke-width="2" stroke-miterlimit="10" stroke-linecap="round" stroke-linejoin="round"/>
<path d="M38.3279 13.6013C38.3279 14.8477 37.3176 15.8579 36.0714 15.8579H33.1003C31.854 15.8579 30.8438 14.8475 30.8438 13.6013C30.8438 12.355 31.8541 11.3447 33.1003 11.3447H36.0714C37.3177 11.3446 38.3279 12.355 38.3279 13.6013Z" stroke="#93BC93" stroke-width="2" stroke-miterlimit="10" stroke-linecap="round" stroke-linejoin="round"/>
<path d="M25.9863 13.5889H32.4616" stroke="#93BC93" stroke-width="2" stroke-miterlimit="10" stroke-linecap="round" stroke-linejoin="round"/>
<path d="M17.0771 13.5889H21.7405" stroke="#93BC93" stroke-width="2" stroke-miterlimit="10" stroke-linecap="round" stroke-linejoin="round"/>
<path d="M36.71 13.5889H41.2383" stroke="#93BC93" stroke-width="2" stroke-miterlimit="10" stroke-linecap="round" stroke-linejoin="round"/>
<path d="M17.2803 28.9707H41.0371" stroke="#93BC93" stroke-width="2" stroke-miterlimit="10" stroke-linecap="round" stroke-linejoin="round"/>
<path d="M21.5049 32.7939H36.9319" stroke="#93BC93" stroke-width="2" stroke-miterlimit="10" stroke-linecap="round" stroke-linejoin="round"/>
<path d="M35.0084 21.0117H23.3064C23.0013 21.0117 22.7539 21.2591 22.7539 21.5642V24.5961C22.7539 24.9012 23.0013 25.1485 23.3064 25.1485H35.0084C35.3134 25.1485 35.5608 24.9012 35.5608 24.5961V21.5642C35.5608 21.2591 35.3135 21.0117 35.0084 21.0117Z" stroke="#93BC93" stroke-width="2" stroke-miterlimit="10" stroke-linecap="round" stroke-linejoin="round"/>
</svg>
