<svg width="60" height="60" viewBox="0 0 60 60" fill="none" xmlns="http://www.w3.org/2000/svg">
<path d="M19.4171 13.7571C19.4171 12.5112 18.4058 11.5 17.16 11.5H11.6751C10.4292 11.5 9.41797 12.5112 9.41797 13.7571V19.242C9.41797 20.4879 10.4292 21.4991 11.6751 21.4991H17.16C18.4058 21.4991 19.4171 20.4879 19.4171 19.242V13.7571ZM18.0256 19.242C18.0256 19.7193 17.6373 20.1076 17.16 20.1076H11.6751C11.1977 20.1076 10.8094 19.7193 10.8094 19.242V13.7571C10.8094 13.2798 11.1977 12.8915 11.6751 12.8915H17.16C17.6373 12.8915 18.0256 13.2798 18.0256 13.7571V19.242Z" fill="#F4DDDD"/>
<path d="M19.4171 28.0276C19.4171 26.7817 18.4058 25.7705 17.16 25.7705H11.6751C10.4292 25.7705 9.41797 26.7817 9.41797 28.0276V33.5125C9.41797 34.7584 10.4292 35.7696 11.6751 35.7696H17.16C18.4058 35.7696 19.4171 34.7584 19.4171 33.5125V28.0276ZM18.0256 33.5125C18.0256 33.9898 17.6373 34.3782 17.16 34.3782H11.6751C11.1977 34.3782 10.8094 33.9898 10.8094 33.5125V28.0276C10.8094 27.5503 11.1977 27.162 11.6751 27.162H17.16C17.6373 27.162 18.0256 27.5503 18.0256 28.0276V33.5125Z" fill="#F4DDDD"/>
<path d="M17.16 40.0332H11.6751C10.4292 40.0332 9.41797 41.0444 9.41797 42.2903V47.7752C9.41797 49.0211 10.4292 50.0323 11.6751 50.0323H17.16C18.4058 50.0323 19.4171 49.0211 19.4171 47.7752V42.2903C19.4171 41.0444 18.4058 40.0332 17.16 40.0332ZM18.0256 47.7752C18.0256 48.2525 17.6373 48.6409 17.16 48.6409H11.6751C11.1977 48.6409 10.8094 48.2525 10.8094 47.7752V42.2903C10.8094 41.813 11.1977 41.4247 11.6751 41.4247H17.16C17.6373 41.4247 18.0256 41.813 18.0256 42.2903V47.7752Z" fill="#F4DDDD"/>
<path d="M36.0806 12.6494H22.5219C22.1336 12.6494 21.8262 12.9649 21.8262 13.3451C21.8262 13.7254 22.1417 14.0409 22.5219 14.0409H36.0725C36.4608 14.0409 36.7682 13.7254 36.7682 13.3451C36.7682 12.9649 36.4608 12.6494 36.0806 12.6494Z" fill="#F4DDDD"/>
<path d="M36.0806 15.8037H22.5219C22.1336 15.8037 21.8262 16.1192 21.8262 16.4994C21.8262 16.8878 22.1417 17.1952 22.5219 17.1952H36.0725C36.4608 17.1952 36.7682 16.8797 36.7682 16.4994C36.7763 16.1111 36.4608 15.8037 36.0806 15.8037Z" fill="#F4DDDD"/>
<path d="M22.5219 20.3514H30.3853C30.7736 20.3514 31.081 20.0359 31.081 19.6557C31.081 19.2755 30.7655 18.96 30.3853 18.96H22.5219C22.1336 18.96 21.8262 19.2755 21.8262 19.6557C21.8262 20.0359 22.1417 20.3514 22.5219 20.3514Z" fill="#F4DDDD"/>
<path d="M36.0806 26.9199H22.5219C22.1336 26.9199 21.8262 27.2354 21.8262 27.6157C21.8262 27.9959 22.1417 28.3114 22.5219 28.3114H36.0725C36.4608 28.3114 36.7682 27.9959 36.7682 27.6157C36.7682 27.2354 36.4608 26.9199 36.0806 26.9199Z" fill="#F4DDDD"/>
<path d="M36.7763 30.7709C36.7763 30.3826 36.4608 30.0752 36.0806 30.0752H22.5219C22.1336 30.0752 21.8262 30.3907 21.8262 30.7709C21.8262 31.1592 22.1417 31.4667 22.5219 31.4667H36.0725C36.4608 31.4667 36.7763 31.1512 36.7763 30.7709Z" fill="#F4DDDD"/>
<path d="M22.5219 34.621H30.3853C30.7736 34.621 31.081 34.3054 31.081 33.9252C31.081 33.5369 30.7655 33.2295 30.3853 33.2295H22.5219C22.1336 33.2295 21.8262 33.545 21.8262 33.9252C21.8262 34.3054 22.1417 34.621 22.5219 34.621Z" fill="#F4DDDD"/>
<path d="M31.5017 41.1816H22.5219C22.1336 41.1816 21.8262 41.4971 21.8262 41.8774C21.8262 42.2657 22.1417 42.5731 22.5219 42.5731H31.5017C31.89 42.5731 32.1974 42.2576 32.1974 41.8774C32.1974 41.4971 31.89 41.1816 31.5017 41.1816Z" fill="#F4DDDD"/>
<path d="M32.1974 45.0326C32.1974 44.6443 31.8819 44.3369 31.5017 44.3369H22.5219C22.1336 44.3369 21.8262 44.6524 21.8262 45.0326C21.8262 45.421 22.1417 45.7284 22.5219 45.7284H31.5017C31.89 45.7365 32.1974 45.421 32.1974 45.0326Z" fill="#F4DDDD"/>
<path d="M22.5219 47.4932C22.1336 47.4932 21.8262 47.8087 21.8262 48.1889C21.8262 48.5691 22.1417 48.8846 22.5219 48.8846H25.9925C26.3808 48.8846 26.6882 48.5691 26.6882 48.1889C26.6882 47.8087 26.3808 47.4932 26.0006 47.4932H22.5219Z" fill="#F4DDDD"/>
<path d="M15.833 14.842L13.8428 16.8321L13.3251 16.3144C13.05 16.0393 12.6132 16.0393 12.3381 16.3144C12.0631 16.5895 12.0631 17.0263 12.3381 17.3014L13.3494 18.3126C13.4869 18.4501 13.6649 18.5148 13.8428 18.5148C14.0208 18.5148 14.1988 18.4501 14.3363 18.3126L16.8199 15.829C17.095 15.5539 17.095 15.1171 16.8199 14.842C16.5449 14.567 16.108 14.567 15.833 14.842Z" fill="#F4DDDD"/>
<path d="M15.833 28.9827L13.8428 30.9728L13.3251 30.455C13.05 30.18 12.6132 30.18 12.3381 30.455C12.0631 30.7301 12.0631 31.1669 12.3381 31.442L13.3494 32.4532C13.4869 32.5908 13.6649 32.6555 13.8428 32.6555C14.0208 32.6555 14.1988 32.5908 14.3363 32.4532L16.8199 29.9696C17.095 29.6946 17.095 29.2577 16.8199 28.9827C16.5449 28.7076 16.108 28.7076 15.833 28.9827Z" fill="#F4DDDD"/>
<path d="M15.833 43.1243L13.8428 45.1144L13.3251 44.5966C13.05 44.3216 12.6132 44.3216 12.3381 44.5966C12.0631 44.8717 12.0631 45.3085 12.3381 45.5836L13.3494 46.5948C13.4869 46.7324 13.6649 46.7971 13.8428 46.7971C14.0208 46.7971 14.1988 46.7324 14.3363 46.5948L16.8199 44.1112C17.095 43.8362 17.095 43.3993 16.8199 43.1243C16.5449 42.8492 16.108 42.8492 15.833 43.1243Z" fill="#F4DDDD"/>
<path d="M54.4367 36.8943H45.7886C45.554 36.8943 45.3275 36.8134 45.1495 36.6596L43.6772 35.3976C43.2484 35.0255 42.6983 34.8232 42.132 34.8232H37.7958C36.372 34.8232 35.207 35.9882 35.207 37.412V54.4898C35.207 55.9136 36.372 57.0785 37.7958 57.0785H54.4367C55.8605 57.0785 57.0255 55.9217 57.0255 54.4898V39.483C57.0255 38.0511 55.8686 36.8943 54.4367 36.8943Z" fill="#F4DDDD"/>
<path d="M39.0758 38.8924H40.7261C41.1144 38.8924 41.4218 38.5769 41.4218 38.1967C41.4218 37.8084 41.1063 37.501 40.7261 37.501H39.0758C38.6875 37.501 38.38 37.8165 38.38 38.1967C38.3719 38.585 38.6875 38.8924 39.0758 38.8924Z" fill="#F4DDDD"/>
<path d="M38.1895 55.744H8.38937C7.23251 55.744 8.6987 57.2975 8.6987 56.1407L13.5688 55.744C15.19 56.1941 26.9908 55.744 28.1477 55.744H55.7246C56.3879 55.744 42.4074 40.9632 42.4074 41.6346L43.6209 36.7309C43.6209 37.1193 44.0301 36.7309 44.4103 36.7309C44.7986 36.7309 45.0123 36.9537 45.0123 36.5734V8.09448C45.0123 6.65448 43.8474 5.48145 42.4074 5.48145L8.38128 5.49763C6.45588 5.49763 4.89453 7.05898 4.89453 8.98437V53.6487C4.89453 55.5741 6.46397 57.1354 8.38937 57.1354L38.4058 57.088C38.7941 57.088 38.1895 56.9604 38.1895 56.5802C38.1976 56.1918 38.5778 55.744 38.1895 55.744Z" fill="#F4DDDD"/>
<path d="M17.4972 11.1399C17.4972 9.89405 16.4859 8.88281 15.2401 8.88281H9.75513C8.50928 8.88281 7.49805 9.89405 7.49805 11.1399V16.6248C7.49805 17.8707 8.50928 18.8819 9.75513 18.8819H15.2401C16.4859 18.8819 17.4972 17.8707 17.4972 16.6248V11.1399ZM16.1057 16.6248C16.1057 17.1021 15.7174 17.4905 15.2401 17.4905H9.75513C9.27782 17.4905 8.88951 17.1021 8.88951 16.6248V11.1399C8.88951 10.6626 9.27782 10.2743 9.75513 10.2743H15.2401C15.7174 10.2743 16.1057 10.6626 16.1057 11.1399V16.6248Z" fill="#E58F8F"/>
<path d="M17.4972 25.4104C17.4972 24.1646 16.4859 23.1533 15.2401 23.1533H9.75513C8.50928 23.1533 7.49805 24.1646 7.49805 25.4104V30.8954C7.49805 32.1412 8.50928 33.1524 9.75513 33.1524H15.2401C16.4859 33.1524 17.4972 32.1412 17.4972 30.8954V25.4104ZM16.1057 30.8954C16.1057 31.3727 15.7174 31.761 15.2401 31.761H9.75513C9.27782 31.761 8.88951 31.3727 8.88951 30.8954V25.4104C8.88951 24.9331 9.27782 24.5448 9.75513 24.5448H15.2401C15.7174 24.5448 16.1057 24.9331 16.1057 25.4104V30.8954Z" fill="#E58F8F"/>
<path d="M15.2401 37.416H9.75513C8.50928 37.416 7.49805 38.4273 7.49805 39.6731V45.158C7.49805 46.4039 8.50928 47.4151 9.75513 47.4151H15.2401C16.4859 47.4151 17.4972 46.4039 17.4972 45.158V39.6731C17.4972 38.4273 16.4859 37.416 15.2401 37.416ZM16.1057 45.158C16.1057 45.6354 15.7174 46.0237 15.2401 46.0237H9.75513C9.27782 46.0237 8.88951 45.6354 8.88951 45.158V39.6731C8.88951 39.1958 9.27782 38.8075 9.75513 38.8075H15.2401C15.7174 38.8075 16.1057 39.1958 16.1057 39.6731V45.158Z" fill="#E58F8F"/>
<path d="M34.1607 10.0322H20.602C20.2137 10.0322 19.9062 10.3477 19.9062 10.728C19.9062 11.1082 20.2218 11.4237 20.602 11.4237H34.1526C34.5409 11.4237 34.8483 11.1082 34.8483 10.728C34.8483 10.3477 34.5409 10.0322 34.1607 10.0322Z" fill="#E58F8F"/>
<path d="M34.1607 13.1865H20.602C20.2137 13.1865 19.9062 13.502 19.9062 13.8823C19.9062 14.2706 20.2218 14.578 20.602 14.578H34.1526C34.5409 14.578 34.8483 14.2625 34.8483 13.8823C34.8564 13.4939 34.5409 13.1865 34.1607 13.1865Z" fill="#E58F8F"/>
<path d="M20.602 17.7342H28.4654C28.8537 17.7342 29.1611 17.4187 29.1611 17.0385C29.1611 16.6583 28.8456 16.3428 28.4654 16.3428H20.602C20.2137 16.3428 19.9062 16.6583 19.9062 17.0385C19.9062 17.4187 20.2218 17.7342 20.602 17.7342Z" fill="#E58F8F"/>
<path d="M34.1607 24.3027H20.602C20.2137 24.3027 19.9062 24.6182 19.9062 24.9985C19.9062 25.3787 20.2218 25.6942 20.602 25.6942H34.1526C34.5409 25.6942 34.8483 25.3787 34.8483 24.9985C34.8483 24.6182 34.5409 24.3027 34.1607 24.3027Z" fill="#E58F8F"/>
<path d="M34.8564 28.1537C34.8564 27.7654 34.5409 27.458 34.1607 27.458H20.602C20.2137 27.458 19.9062 27.7735 19.9062 28.1537C19.9062 28.5421 20.2218 28.8495 20.602 28.8495H34.1526C34.5409 28.8495 34.8564 28.534 34.8564 28.1537Z" fill="#E58F8F"/>
<path d="M20.602 32.0038H28.4654C28.8537 32.0038 29.1611 31.6883 29.1611 31.308C29.1611 30.9197 28.8456 30.6123 28.4654 30.6123H20.602C20.2137 30.6123 19.9062 30.9278 19.9062 31.308C19.9062 31.6883 20.2218 32.0038 20.602 32.0038Z" fill="#E58F8F"/>
<path d="M29.5818 38.5645H20.602C20.2137 38.5645 19.9062 38.88 19.9062 39.2602C19.9062 39.6485 20.2218 39.9559 20.602 39.9559H29.5818C29.9701 39.9559 30.2775 39.6404 30.2775 39.2602C30.2775 38.88 29.9701 38.5645 29.5818 38.5645Z" fill="#E58F8F"/>
<path d="M30.2775 42.4155C30.2775 42.0271 29.962 41.7197 29.5818 41.7197H20.602C20.2137 41.7197 19.9062 42.0352 19.9062 42.4155C19.9062 42.8038 20.2218 43.1112 20.602 43.1112H29.5818C29.9701 43.1193 30.2775 42.8038 30.2775 42.4155Z" fill="#E58F8F"/>
<path d="M20.602 44.876C20.2137 44.876 19.9062 45.1915 19.9062 45.5717C19.9062 45.9519 20.2218 46.2674 20.602 46.2674H24.0725C24.4609 46.2674 24.7683 45.9519 24.7683 45.5717C24.7683 45.1915 24.4609 44.876 24.0806 44.876H20.602Z" fill="#E58F8F"/>
<path d="M13.913 12.2248L11.9229 14.215L11.4052 13.6972C11.1301 13.4222 10.6933 13.4222 10.4182 13.6972C10.1431 13.9723 10.1431 14.4091 10.4182 14.6842L11.4294 15.6954C11.567 15.8329 11.745 15.8977 11.9229 15.8977C12.1009 15.8977 12.2789 15.8329 12.4164 15.6954L14.9 13.2118C15.1751 12.9368 15.1751 12.4999 14.9 12.2248C14.625 11.9498 14.1881 11.9498 13.913 12.2248Z" fill="#E58F8F"/>
<path d="M13.913 26.3655L11.9229 28.3556L11.4052 27.8378C11.1301 27.5628 10.6933 27.5628 10.4182 27.8378C10.1431 28.1129 10.1431 28.5497 10.4182 28.8248L11.4294 29.836C11.567 29.9736 11.745 30.0383 11.9229 30.0383C12.1009 30.0383 12.2789 29.9736 12.4164 29.836L14.9 27.3524C15.1751 27.0774 15.1751 26.6405 14.9 26.3655C14.625 26.0904 14.1881 26.0904 13.913 26.3655Z" fill="#E58F8F"/>
<path d="M13.913 40.5071L11.9229 42.4972L11.4052 41.9794C11.1301 41.7044 10.6933 41.7044 10.4182 41.9794C10.1431 42.2545 10.1431 42.6913 10.4182 42.9664L11.4294 43.9776C11.567 44.1152 11.745 44.1799 11.9229 44.1799C12.1009 44.1799 12.2789 44.1152 12.4164 43.9776L14.9 41.494C15.1751 41.219 15.1751 40.7821 14.9 40.5071C14.625 40.232 14.1881 40.232 13.913 40.5071Z" fill="#E58F8F"/>
<path d="M52.5168 34.2771H43.8687C43.6341 34.2771 43.4076 34.1962 43.2296 34.0425L41.7572 32.7804C41.3285 32.4083 40.7784 32.2061 40.2121 32.2061H35.8759C34.4521 32.2061 33.2871 33.371 33.2871 34.7948V51.8726C33.2871 53.2964 34.4521 54.4614 35.8759 54.4614H52.5168C53.9406 54.4614 55.1056 53.3045 55.1056 51.8726V36.8658C55.1056 35.4339 53.9487 34.2771 52.5168 34.2771ZM35.8759 33.5975H40.2121C40.4467 33.5975 40.6732 33.6784 40.8512 33.8321L42.3235 35.0941C42.7523 35.4663 43.3024 35.6685 43.8687 35.6685H52.5168C53.1721 35.6685 53.706 36.2025 53.706 36.8577V39.6002H34.6867V34.7786C34.6867 34.1315 35.2206 33.5975 35.8759 33.5975ZM52.5168 53.0618H35.8759C35.2206 53.0618 34.6867 52.5279 34.6867 51.8726V40.9998H53.7141V51.8645C53.7141 52.5279 53.1721 53.0618 52.5168 53.0618Z" fill="#E58F8F"/>
<path d="M37.1558 36.2752H38.8062C39.1945 36.2752 39.5019 35.9597 39.5019 35.5795C39.5019 35.1912 39.1864 34.8838 38.8062 34.8838H37.1558C36.7675 34.8838 36.4601 35.1993 36.4601 35.5795C36.452 35.9678 36.7675 36.2752 37.1558 36.2752Z" fill="#E58F8F"/>
<path d="M31.1598 53.1268H6.46944C5.31259 53.1268 4.36607 52.1884 4.36607 51.0315V6.36718C4.36607 5.21033 5.3045 4.2719 6.46135 4.2719L40.4955 4.26381C41.1589 4.26381 41.7009 4.80583 41.7009 5.47729V30.2324C41.7009 30.6207 42.0164 30.9281 42.3967 30.9281C42.785 30.9281 43.0924 30.6126 43.0924 30.2324V5.47729C43.0924 4.03729 41.9275 2.86426 40.4875 2.86426L6.46135 2.88044C4.53596 2.88044 2.97461 4.44179 2.97461 6.36718V51.0315C2.97461 52.9569 4.54405 54.5182 6.46944 54.5182H31.1598C31.5481 54.5182 31.8555 54.2027 31.8555 53.8225C31.8636 53.4342 31.5481 53.1268 31.1598 53.1268Z" fill="#E58F8F"/>
<path d="M40.8643 45.0427V48.9055L44.1959 50.8369L47.5276 48.9055V45.0427L44.1959 43.1113L40.8643 45.0427Z" stroke="#E58F8F" stroke-miterlimit="10" stroke-linecap="round" stroke-linejoin="round"/>
</svg>
