<?xml version="1.0" encoding="UTF-8"?>
<svg xmlns="http://www.w3.org/2000/svg" width="60" height="60" viewBox="0 0 60 60" fill="none">
  <path d="M51.3852 38.0771C50.8623 38.0771 50.4383 37.6531 50.4383 37.1302V30.4749C50.4383 29.4242 49.5835 28.5696 48.5328 28.5696C48.01 28.5696 47.5859 28.1455 47.5859 27.6227C47.5859 27.0998 48.01 26.6758 48.5328 26.6758C50.6277 26.6758 52.332 28.3801 52.332 30.4749V37.1302C52.332 37.6531 51.908 38.0771 51.3852 38.0771Z" fill="#DEF3FF"></path>
  <path d="M48.5318 56.1425H13.3538C11.259 56.1425 9.55469 54.4382 9.55469 52.3434L9.55526 21.8531C9.55526 21.3303 9.97927 20.9062 10.5021 20.9062C11.0251 20.9062 11.449 21.3303 11.449 21.8531L11.4485 52.3434C11.4485 53.394 12.3031 54.2487 13.3538 54.2487H48.5318C49.5825 54.2487 50.4372 53.394 50.4372 52.3434V44.7373C50.4372 44.2144 50.8613 43.7904 51.3841 43.7904C51.907 43.7904 52.331 44.2144 52.331 44.7373V52.3434C52.331 54.4382 50.6267 56.1425 48.5318 56.1425Z" fill="#DEF3FF"></path>
  <path d="M53.3872 45.6834H44.8188C42.7304 45.6834 41.0312 43.9843 41.0312 41.8958V39.9712C41.0312 37.8827 42.7304 36.1836 44.8188 36.1836H53.3872C53.91 36.1836 54.334 36.6076 54.334 37.1305V44.7365C54.334 45.2594 53.91 45.6834 53.3872 45.6834ZM44.8188 38.0774C43.7746 38.0774 42.925 38.9269 42.925 39.9712V41.8958C42.925 42.94 43.7746 43.7896 44.8188 43.7896H52.4403V38.0774H44.8188Z" fill="#DEF3FF"></path>
  <path d="M45.6813 41.8806C45.1569 41.8806 44.7344 41.4518 44.7344 40.9337C44.7344 40.4166 45.1548 39.9866 45.6813 39.9863C46.2054 39.986 46.6282 40.4148 46.6282 40.9337C46.6282 41.4624 46.1955 41.8806 45.6813 41.8806Z" fill="#DEF3FF"></path>
  <path d="M42.0406 39.979H29.5211C28.9982 39.979 28.5742 39.555 28.5742 39.0321V35.2291C28.5742 34.7062 28.9982 34.2822 29.5211 34.2822C30.044 34.2822 30.468 34.7062 30.468 35.2291V38.0852H42.0406C42.5635 38.0852 42.9875 38.5092 42.9875 39.0321C42.9875 39.555 42.5636 39.979 42.0406 39.979Z" fill="#DEF3FF"></path>
  <path d="M29.5211 47.5855C28.9982 47.5855 28.5742 47.1614 28.5742 46.6386V42.8356C28.5742 42.3127 28.9982 41.8887 29.5211 41.8887H42.0406C42.5635 41.8887 42.9875 42.3127 42.9875 42.8356C42.9875 43.3584 42.5635 43.7825 42.0406 43.7825H30.468V46.6386C30.468 47.1614 30.0441 47.5855 29.5211 47.5855Z" fill="#DEF3FF"></path>
  <path d="M29.5164 36.1763C27.9458 36.1763 26.668 34.8985 26.668 33.3279C26.668 31.7573 27.9458 30.4795 29.5164 30.4795C31.087 30.4795 32.3648 31.7573 32.3648 33.3279C32.3648 34.8985 31.087 36.1763 29.5164 36.1763ZM29.5164 32.3732C28.9899 32.3732 28.5618 32.8014 28.5618 33.3278C28.5618 33.8542 28.9899 34.2824 29.5164 34.2824C30.0428 34.2824 30.471 33.8542 30.471 33.3278C30.471 32.8015 30.0428 32.3732 29.5164 32.3732Z" fill="#DEF3FF"></path>
  <path d="M23.3797 43.7828C21.8091 43.7828 20.5312 42.505 20.5312 40.9344C20.5312 39.3638 21.8091 38.0859 23.3797 38.0859C24.9503 38.0859 26.228 39.3638 26.228 40.9344C26.228 42.505 24.9503 43.7828 23.3797 43.7828ZM23.3797 39.9797C22.8532 39.9797 22.425 40.4079 22.425 40.9344C22.425 41.4609 22.8532 41.889 23.3797 41.889C23.9061 41.889 24.3343 41.4609 24.3343 40.9344C24.3343 40.4079 23.9061 39.9797 23.3797 39.9797Z" fill="#DEF3FF"></path>
  <path d="M29.5164 51.3882C27.9458 51.3882 26.668 50.1104 26.668 48.5398C26.668 46.9691 27.9458 45.6914 29.5164 45.6914C31.087 45.6914 32.3648 46.9691 32.3648 48.5398C32.3648 50.1104 31.087 51.3882 29.5164 51.3882ZM29.5164 47.5852C28.9899 47.5852 28.5618 48.0134 28.5618 48.5398C28.5618 49.0662 28.9899 49.4944 29.5164 49.4944C30.0428 49.4944 30.471 49.0662 30.471 48.5398C30.471 48.0134 30.0428 47.5852 29.5164 47.5852Z" fill="#DEF3FF"></path>
  <path d="M21.4778 41.8811H10.5016C9.97871 41.8811 9.55469 41.4571 9.55469 40.9342C9.55469 40.4113 9.97871 39.9873 10.5016 39.9873H21.4778C22.0006 39.9873 22.4247 40.4113 22.4247 40.9342C22.4247 41.4571 22.0006 41.8811 21.4778 41.8811Z" fill="#DEF3FF"></path>
  <path d="M29.5164 22.865H27.6149C27.092 22.865 26.668 22.441 26.668 21.9181C26.668 21.3953 27.092 20.9712 27.6149 20.9712H29.5164C30.0428 20.9712 30.471 20.5431 30.471 20.0167C30.471 19.4902 30.0428 19.062 29.5164 19.062C27.9458 19.062 26.668 17.7842 26.668 16.2136C26.668 14.643 27.9458 13.3652 29.5164 13.3652H31.4179C31.9407 13.3652 32.3648 13.7893 32.3648 14.3121C32.3648 14.835 31.9407 15.259 31.4179 15.259H29.5164C28.9899 15.259 28.5618 15.6872 28.5618 16.2136C28.5618 16.7401 28.9899 17.1682 29.5164 17.1682C31.087 17.1682 32.3648 18.4461 32.3648 20.0167C32.3648 21.5873 31.087 22.865 29.5164 22.865Z" fill="#DEF3FF"></path>
  <path d="M29.5172 15.2602C28.9943 15.2602 28.5703 14.8362 28.5703 14.3133V12.4117C28.5703 11.8889 28.9943 11.4648 29.5172 11.4648C30.0401 11.4648 30.4641 11.8889 30.4641 12.4117V14.3133C30.4641 14.8363 30.0402 15.2602 29.5172 15.2602Z" fill="#DEF3FF"></path>
  <path d="M29.5172 24.767C28.9943 24.767 28.5703 24.343 28.5703 23.8201V21.9186C28.5703 21.3957 28.9943 20.9717 29.5172 20.9717C30.0401 20.9717 30.4641 21.3957 30.4641 21.9186V23.8201C30.4641 24.3431 30.0402 24.767 29.5172 24.767Z" fill="#DEF3FF"></path>
  <path d="M48.6334 28.5705H16.3076C12.6401 28.5705 9.65625 25.5866 9.65625 21.919C9.65625 18.2412 12.6326 15.2676 16.3076 15.2676H19.9214C20.4443 15.2676 20.8683 15.6916 20.8683 16.2145C20.8683 16.7373 20.4443 17.1614 19.9214 17.1614H16.3076C13.6768 17.1614 11.55 19.2902 11.55 21.919C11.55 24.5424 13.6842 26.6767 16.3076 26.6767H47.6865V17.1614H39.3151C38.7922 17.1614 38.3682 16.7373 38.3682 16.2145C38.3682 15.6916 38.7922 15.2676 39.3151 15.2676H48.6334C49.1562 15.2676 49.5803 15.6916 49.5803 16.2145V27.6236C49.5803 28.1465 49.1562 28.5705 48.6334 28.5705Z" fill="#DEF3FF"></path>
  <path d="M33.7723 28.57H25.2593C25.1195 28.57 24.9814 28.5392 24.8551 28.4795C21.1096 26.7119 18.5859 22.9178 18.5859 18.5909C18.5859 12.5783 23.4243 7.66113 29.5157 7.66113C35.612 7.66113 40.4455 12.5837 40.4455 18.591C40.4455 22.9181 37.9217 26.712 34.1763 28.4796C34.0499 28.5392 33.912 28.57 33.7723 28.57ZM25.477 26.6762H33.5544C36.5973 25.1533 38.5517 22.0026 38.5517 18.5909C38.5517 13.62 34.552 9.55482 29.5157 9.55482C24.4831 9.55482 20.4796 13.6153 20.4796 18.5909C20.4797 22.0026 22.4342 25.1533 25.477 26.6762Z" fill="#DEF3FF"></path>
  <path d="M17.3977 17.0105L48.2306 16.4126C49.1141 16.3955 49.172 16.8041 49.0905 17.0105V28.6085C50.8594 28.6085 51.6292 30.2824 51.793 31.1194V51.9241C51.793 52.6893 49.9913 53.7575 49.0905 54.1959H13.2211L12.2384 52.8806C12.1974 42.9167 12.0172 22.4867 11.6242 20.4779C11.2311 18.4692 15.3094 17.3293 17.3977 17.0105Z" fill="#DEF3FF" stroke="#DEF3FF" stroke-width="2" stroke-linecap="round"></path>
  <circle cx="29.5154" cy="18.115" r="9.5076" fill="#DEF3FF"></circle>
  <path d="M47.4984 34.2744C46.9756 34.2744 46.5515 33.8504 46.5515 33.3275V26.6722C46.5515 25.6215 45.6968 24.7668 44.6461 24.7668C44.1232 24.7668 43.6992 24.3428 43.6992 23.8199C43.6992 23.2971 44.1232 22.873 44.6461 22.873C46.741 22.873 48.4453 24.5774 48.4453 26.6722V33.3275C48.4453 33.8504 48.0213 34.2744 47.4984 34.2744Z" fill="#7FBBDC"></path>
  <path d="M44.6451 52.3388H9.46709C7.37228 52.3388 5.66797 50.6345 5.66797 48.5397L5.66854 18.0494C5.66854 17.5266 6.09256 17.1025 6.61543 17.1025C7.1384 17.1025 7.56232 17.5266 7.56232 18.0494L7.56175 48.5397C7.56175 49.5903 8.41642 50.445 9.46709 50.445H44.6451C45.6958 50.445 46.5505 49.5903 46.5505 48.5397V40.9336C46.5505 40.4107 46.9745 39.9867 47.4974 39.9867C48.0203 39.9867 48.4443 40.4107 48.4443 40.9336V48.5397C48.4443 50.6345 46.74 52.3388 44.6451 52.3388Z" fill="#7FBBDC"></path>
  <path d="M49.3989 41.8797H40.8305C38.7421 41.8797 37.043 40.1806 37.043 38.0921V36.1675C37.043 34.079 38.7421 32.3799 40.8305 32.3799H49.3989C49.9217 32.3799 50.3458 32.8039 50.3458 33.3268V40.9328C50.3458 41.4557 49.9217 41.8797 49.3989 41.8797ZM40.8305 34.2737C39.7863 34.2737 38.9368 35.1232 38.9368 36.1675V38.0921C38.9368 39.1363 39.7863 39.9859 40.8305 39.9859H48.452V34.2737H40.8305Z" fill="#7FBBDC"></path>
  <path d="M41.7945 38.0779C41.2702 38.0779 40.8477 37.6491 40.8477 37.131C40.8477 36.6139 41.2681 36.1839 41.7945 36.1836C42.3187 36.1833 42.7414 36.6121 42.7414 37.131C42.7414 37.6597 42.3088 38.0779 41.7945 38.0779Z" fill="#7FBBDC"></path>
  <path d="M38.1539 36.1753H25.6344C25.1115 36.1753 24.6875 35.7513 24.6875 35.2284V31.4254C24.6875 30.9025 25.1115 30.4785 25.6344 30.4785C26.1573 30.4785 26.5813 30.9025 26.5813 31.4254V34.2815H38.1539C38.6768 34.2815 39.1008 34.7055 39.1008 35.2284C39.1008 35.7513 38.6769 36.1753 38.1539 36.1753Z" fill="#7FBBDC"></path>
  <path d="M25.6344 43.7817C25.1115 43.7817 24.6875 43.3577 24.6875 42.8349V39.0319C24.6875 38.509 25.1115 38.085 25.6344 38.085H38.1539C38.6768 38.085 39.1008 38.509 39.1008 39.0319C39.1008 39.5547 38.6768 39.9787 38.1539 39.9787H26.5813V42.8349C26.5813 43.3577 26.1574 43.7817 25.6344 43.7817Z" fill="#7FBBDC"></path>
  <path d="M25.6297 32.3726C24.0591 32.3726 22.7812 31.0948 22.7812 29.5242C22.7812 27.9536 24.0591 26.6758 25.6297 26.6758C27.2003 26.6758 28.478 27.9536 28.478 29.5242C28.478 31.0948 27.2003 32.3726 25.6297 32.3726ZM25.6297 28.5695C25.1032 28.5695 24.675 28.9977 24.675 29.5241C24.675 30.0505 25.1032 30.4787 25.6297 30.4787C26.1561 30.4787 26.5843 30.0505 26.5843 29.5241C26.5843 28.9978 26.1561 28.5695 25.6297 28.5695Z" fill="#7FBBDC"></path>
  <path d="M19.493 39.9781C17.9224 39.9781 16.6445 38.7003 16.6445 37.1297C16.6445 35.5591 17.9224 34.2812 19.493 34.2812C21.0636 34.2812 22.3413 35.5591 22.3413 37.1297C22.3413 38.7003 21.0636 39.9781 19.493 39.9781ZM19.493 36.175C18.9665 36.175 18.5383 36.6032 18.5383 37.1297C18.5383 37.6562 18.9665 38.0843 19.493 38.0843C20.0194 38.0843 20.4475 37.6562 20.4475 37.1297C20.4475 36.6032 20.0194 36.175 19.493 36.175Z" fill="#7FBBDC"></path>
  <path d="M25.6297 47.5845C24.0591 47.5845 22.7812 46.3067 22.7812 44.736C22.7812 43.1654 24.0591 41.8877 25.6297 41.8877C27.2003 41.8877 28.478 43.1654 28.478 44.736C28.478 46.3067 27.2003 47.5845 25.6297 47.5845ZM25.6297 43.7815C25.1032 43.7815 24.675 44.2097 24.675 44.736C24.675 45.2625 25.1032 45.6907 25.6297 45.6907C26.1561 45.6907 26.5843 45.2625 26.5843 44.736C26.5843 44.2097 26.1561 43.7815 25.6297 43.7815Z" fill="#7FBBDC"></path>
  <path d="M17.591 38.0774H6.61486C6.09199 38.0774 5.66797 37.6534 5.66797 37.1305C5.66797 36.6076 6.09199 36.1836 6.61486 36.1836H17.591C18.1139 36.1836 18.5379 36.6076 18.5379 37.1305C18.5379 37.6534 18.1139 38.0774 17.591 38.0774Z" fill="#7FBBDC"></path>
  <path d="M25.6297 19.0613H23.7281C23.2053 19.0613 22.7812 18.6373 22.7812 18.1144C22.7812 17.5916 23.2053 17.1675 23.7281 17.1675H25.6297C26.1561 17.1675 26.5843 16.7393 26.5843 16.213C26.5843 15.6865 26.1561 15.2583 25.6297 15.2583C24.0591 15.2583 22.7812 13.9805 22.7812 12.4099C22.7812 10.8393 24.0591 9.56152 25.6297 9.56152H27.5311C28.054 9.56152 28.478 9.98554 28.478 10.5084C28.478 11.0313 28.054 11.4553 27.5311 11.4553H25.6297C25.1032 11.4553 24.675 11.8835 24.675 12.4099C24.675 12.9363 25.1032 13.3645 25.6297 13.3645C27.2003 13.3645 28.478 14.6424 28.478 16.213C28.478 17.7836 27.2003 19.0613 25.6297 19.0613Z" fill="#7FBBDC"></path>
  <path d="M25.6305 11.4555C25.1076 11.4555 24.6836 11.0315 24.6836 10.5086V8.60705C24.6836 8.08417 25.1076 7.66016 25.6305 7.66016C26.1534 7.66016 26.5774 8.08417 26.5774 8.60705V10.5086C26.5774 11.0316 26.1535 11.4555 25.6305 11.4555Z" fill="#7FBBDC"></path>
  <path d="M25.6305 20.9633C25.1076 20.9633 24.6836 20.5393 24.6836 20.0164V18.1149C24.6836 17.592 25.1076 17.168 25.6305 17.168C26.1534 17.168 26.5774 17.592 26.5774 18.1149V20.0164C26.5774 20.5394 26.1535 20.9633 25.6305 20.9633Z" fill="#7FBBDC"></path>
  <path d="M44.6451 24.7668H12.3193C8.65182 24.7668 5.66797 21.7829 5.66797 18.1153C5.66797 14.4375 8.64434 11.4639 12.3193 11.4639H15.9331C16.456 11.4639 16.88 11.8879 16.88 12.4108C16.88 12.9336 16.456 13.3577 15.9331 13.3577H12.3193C9.68857 13.3577 7.56175 15.4865 7.56175 18.1153C7.56175 20.7387 9.69595 22.873 12.3193 22.873H43.6982V13.3577H35.3268C34.8039 13.3577 34.3799 12.9336 34.3799 12.4108C34.3799 11.8879 34.8039 11.4639 35.3268 11.4639H44.6451C45.168 11.4639 45.592 11.8879 45.592 12.4108V23.8199C45.592 24.3428 45.168 24.7668 44.6451 24.7668Z" fill="#7FBBDC"></path>
  <path d="M29.8856 24.7663H21.3725C21.2328 24.7663 21.0947 24.7355 20.9684 24.6758C17.2229 22.9082 14.6992 19.1141 14.6992 14.7872C14.6992 8.77454 19.5376 3.85742 25.629 3.85742C31.7253 3.85742 36.5588 8.78003 36.5588 14.7873C36.5588 19.1144 34.035 22.9083 30.2896 24.6759C30.1632 24.7355 30.0252 24.7663 29.8856 24.7663ZM21.5903 22.8725H29.6677C32.7105 21.3496 34.665 18.1989 34.665 14.7872C34.665 9.81631 30.6652 5.75111 25.629 5.75111C20.5964 5.75111 16.5929 9.81158 16.5929 14.7872C16.593 18.1989 18.5475 21.3496 21.5903 22.8725Z" fill="#7FBBDC"></path>
</svg>
