<?xml version="1.0" encoding="UTF-8"?>
<svg xmlns="http://www.w3.org/2000/svg" width="60" height="60" viewBox="0 0 60 60" fill="none">
  <rect x="12.7877" y="14.4104" width="42" height="37.3333" rx="3" fill="#E4EDE4"></rect>
  <path fill-rule="evenodd" clip-rule="evenodd" d="M42.5614 10.2561H11.1802C8.41876 10.2561 6.18018 12.4947 6.18018 15.2561V22.9651H4.18018V15.2561C4.18018 11.3901 7.31418 8.2561 11.1802 8.2561H42.5614C46.4274 8.2561 49.5614 11.3901 49.5614 15.2561V29.4397H47.5614V15.2561C47.5614 12.4947 45.3228 10.2561 42.5614 10.2561ZM35.1727 46.6159H11.1802C8.41875 46.6159 6.18018 44.3773 6.18018 41.6159V32.2561H4.18018V41.6159C4.18018 45.4819 7.31418 48.6159 11.1802 48.6159H35.1727V46.6159Z" fill="#93BC92"></path>
  <path d="M44.2366 47.5074L42.4285 49.5225L36.9506 51.7435V48.6044V45.587L49.9395 32.1745C53.1451 29.5683 59.176 33.2893 53.441 39.2389C50.5492 42.1307 48.5291 44.0244 47.9643 44.6269" stroke="#93BC92" stroke-width="2" stroke-linecap="round" stroke-linejoin="round"></path>
  <rect x="49.0867" y="32.7148" width="7.79489" height="2.42447" transform="rotate(39.4807 49.0867 32.7148)" fill="#93BC92"></rect>
  <path d="M32.9605 17.89L27.0833 14.4964C26.9558 14.4199 26.7856 14.4114 26.6581 14.4964L20.7809 17.89L14.9377 21.2665C14.7931 21.3346 14.691 21.4791 14.691 21.6492V35.2234C14.691 35.368 14.7676 35.5126 14.9037 35.5892L20.7809 38.9827L26.6326 42.3592C26.7856 42.4613 26.9558 42.4613 27.1088 42.3592L32.9605 38.9827L38.8037 35.6147C38.9483 35.5466 39.0504 35.3935 39.0504 35.2234V21.6492C39.0504 21.4876 38.9653 21.3516 38.8292 21.275L32.986 17.8985C32.9775 17.8985 32.969 17.89 32.9605 17.89Z" stroke="#93BC92"></path>
</svg>
