<svg width="48" height="49" viewBox="0 0 48 49" fill="none" xmlns="http://www.w3.org/2000/svg">
<g id="icons8-twitter 6">
<g id="g1">
<rect id="Rectangle 39899" x="10.2234" y="14.1396" width="33.0543" height="25.9605" rx="5" fill="#FCE9E7"/>
<path id="path1" d="M8.76301 36.134C7.18808 35.6416 5.81214 34.3341 5.17967 32.729C4.82955 31.8405 4.8047 31.486 4.74122 26.4769C4.70421 23.5563 4.72279 20.9062 4.78252 20.5878C4.84224 20.2695 5.03705 19.863 5.21541 19.6847C5.66488 19.2352 6.59717 19.2561 7.03443 19.7254C7.35736 20.0721 7.37453 20.2952 7.37453 24.1457C7.37453 26.376 7.42362 28.2009 7.48361 28.2009C7.54361 28.2009 9.03632 27.3001 10.8007 26.1992C13.0059 24.8233 14.162 24.1976 14.499 24.1976C15.42 24.1976 16.0149 25.3265 15.5508 26.1936C15.4607 26.362 13.652 27.5707 11.5315 28.8797C9.41097 30.1887 7.63696 31.3615 7.58923 31.4858C7.44613 31.8588 8.32921 33.0078 9.03608 33.3684C9.67152 33.6926 9.99947 33.7053 17.7205 33.7053C23.501 33.7053 25.8465 33.7596 26.109 33.8994C26.945 34.3446 27.1269 35.1944 26.5446 35.9346L26.1989 36.3741L17.8292 36.363C11.4359 36.3545 9.29507 36.3004 8.76301 36.134ZM30.3952 36.0758C29.8573 35.6402 29.8417 34.6832 30.364 34.1603C30.7053 33.8187 30.9332 33.782 33.1913 33.7053C35.0904 33.6408 35.7673 33.5563 36.1763 33.3325C36.7693 33.0081 37.3264 32.3057 37.4762 31.6935C37.5688 31.315 37.288 31.1065 33.4452 28.7013C29.1156 25.9913 28.8774 25.7768 29.1206 24.8079C29.2496 24.2938 30.0991 23.7952 30.6196 23.9281C30.8161 23.9782 32.4782 24.9572 34.313 26.1035L37.649 28.1877L37.6928 22.0803C37.7169 18.7212 37.7055 15.9418 37.6675 15.9038C37.6295 15.8658 34.8325 17.7069 31.452 19.9952C28.0715 22.2834 24.9876 24.3163 24.5988 24.5126C24.2101 24.7089 23.4595 24.914 22.9308 24.9684C21.1564 25.1509 21.3836 25.2795 7.94671 16.4907C5.03683 14.5874 4.79346 14.3106 4.84621 12.9646C4.89655 11.6799 5.35945 10.6735 6.36037 9.67254C8.02853 8.00439 7.02494 8.10127 22.6369 8.10127H36.1478L37.099 8.56837C38.2836 9.15009 39.4232 10.3906 39.9334 11.6539C40.3153 12.5993 40.3179 12.6575 40.3685 21.5288C40.4216 30.857 40.3588 31.9803 39.713 33.2461C39.1911 34.2691 38.122 35.3212 37.0888 35.8286C36.1994 36.2654 36.001 36.2938 33.4727 36.3462C31.0199 36.397 30.7642 36.3746 30.3952 36.0758ZM23.4108 22.1468C24.3296 21.7275 37.391 12.7612 37.3948 12.5473C37.4021 12.1392 36.7137 11.3515 36.057 11.0165C35.4294 10.6963 35.0319 10.6867 22.4602 10.6867C11.035 10.6867 9.44494 10.7175 8.95782 10.9487C8.27044 11.2749 7.95797 11.6148 7.63497 12.3879L7.38228 12.9926L9.00472 14.0377C9.89706 14.6125 12.7664 16.4724 15.381 18.1708C17.9956 19.8693 20.5433 21.5073 21.0424 21.8108C21.9997 22.393 22.6647 22.4873 23.4108 22.1468Z" fill="#FF7664"/>
</g>
</g>
</svg>
