<svg width="26" height="21" viewBox="0 0 26 21" fill="none" xmlns="http://www.w3.org/2000/svg">
<path d="M23.1318 20.1001H2.86824C2.10707 20.0982 1.37772 19.7929 0.840055 19.2512C0.302394 18.7095 0.000301383 17.9756 0 17.2103V2.98381C0.00232889 2.21972 0.30527 1.48759 0.842673 0.947293C1.38008 0.406997 2.10828 0.10243 2.86827 0.100098H23.1318C23.8925 0.102063 24.6214 0.406988 25.159 0.948113C25.6965 1.48924 25.999 2.22247 26 2.98728V17.2163C25.9985 17.9799 25.6964 18.7119 25.1597 19.2523C24.6231 19.7926 23.8955 20.0974 23.136 20.1001H23.1318ZM2.86824 18.3387C2.93093 18.337 23.1366 18.342 23.1942 18.337L17.1848 11.4372C16.0645 12.6759 14.9085 14.5529 13 14.4508C11.0969 14.5553 9.92954 12.6719 8.81526 11.4372L2.80579 18.337C2.82846 18.3391 2.84771 18.3387 2.86824 18.3387ZM18.349 10.1003L24.2481 16.8736V3.32654L18.349 10.1003ZM1.7519 3.32654V16.8736L7.65097 10.1003L1.7519 3.32654ZM12.9572 12.689C13.2053 12.6949 13.4517 12.646 13.6789 12.5456C13.9061 12.4452 14.1086 12.2958 14.2721 12.1081L23.1942 1.86317C23.0605 1.85983 2.94203 1.85988 2.80579 1.86317C2.81697 1.8757 9.46378 9.50894 9.4743 9.52016L11.7267 12.1068C11.8805 12.2842 12.0693 12.4276 12.2811 12.5278C12.493 12.6281 12.7232 12.683 12.9572 12.689Z" fill="#90A0B9"/>
</svg>
