<svg width="60" height="60" viewBox="0 0 60 60" fill="none" xmlns="http://www.w3.org/2000/svg">
<circle cx="34.9219" cy="34.9219" r="23.6719" fill="#E4EDE4"/>
<path d="M28.2415 5.12017C23.3782 5.48345 18.9251 7.15923 14.8821 10.1241C13.6985 10.9913 10.9563 13.6631 10.3821 14.5069C9.71414 15.4795 9.88992 16.7217 10.7688 17.3077C11.6946 17.9288 12.6204 17.7647 13.4641 16.8389C16.2649 13.7452 17.9876 12.3975 20.9055 11.0147C27.011 8.12017 33.5501 8.22564 39.761 11.3311C41.718 12.3155 42.1985 12.6085 43.429 13.6045C49.593 18.6084 52.4173 26.4834 50.847 34.2764C50.3079 36.9717 49.1829 39.6202 47.5423 42.0928C46.6634 43.4288 46.593 43.5811 46.593 44.1436C46.593 44.835 46.8157 45.2335 47.472 45.6788C47.9759 46.0303 48.8782 45.9952 49.429 45.6085C49.9563 45.2217 51.3509 43.0655 52.3118 41.1319C55.6399 34.417 55.804 26.7295 52.7688 19.8624C52.4759 19.2178 52.2298 18.6084 52.2063 18.503C52.136 18.1631 50.929 16.253 50.0384 15.0459C48.9954 13.6514 46.7102 11.3311 45.4095 10.3467C40.3118 6.50298 34.2766 4.66314 28.2415 5.12017Z" fill="#93BC92" stroke="white" stroke-width="0.5"/>
<path d="M27.6084 12.9019C26.6006 13.148 26.2842 13.441 24.503 15.8199C19.0655 23.0738 17.7998 24.691 17.4951 24.855C17.2256 24.9839 16.3467 25.0191 12.6553 25.0191H8.14359L7.4639 25.3355C7.0889 25.5113 6.51468 25.9332 6.16312 26.273C5.03812 27.4097 4.75687 28.7808 5.0264 31.8863C5.47171 37.0074 7.31156 41.5894 10.5108 45.5855C11.3428 46.6285 13.3467 48.6089 14.4131 49.4644C15.3741 50.2144 17.2959 51.4918 17.8233 51.7144C18.0459 51.8082 18.8076 52.1597 19.5108 52.4879C26.4366 55.6636 34.042 55.5699 41.0733 52.2183C42.7959 51.3863 43.417 50.9175 43.6045 50.273C43.9444 49.1246 43.0537 47.9293 41.8467 47.9293C41.6592 47.9293 40.7451 48.3043 39.8194 48.7496C36.0342 50.6011 32.4131 51.3394 28.2998 51.0699C22.4873 50.6949 16.6983 47.5074 13.0069 42.6558C11.5069 40.6871 9.72562 36.6324 9.20999 34.0425C8.78812 31.9332 8.64749 29.2027 8.94046 28.9683C9.04593 28.8863 10.4873 28.816 13.0772 28.7691C15.2569 28.7222 17.3428 28.6402 17.6944 28.5699C18.5264 28.4175 19.6162 27.9019 20.2256 27.3746C20.4951 27.1402 20.9991 26.5777 21.3389 26.1089C21.6787 25.6402 23.4366 23.2964 25.2412 20.9175C27.0459 18.5269 28.5342 16.5699 28.5459 16.5464C28.6162 16.4293 29.2959 16.9097 29.3545 17.1207C29.542 17.7066 29.0381 20.0504 28.2412 22.2652C27.5498 24.1988 27.6319 25.0425 28.6045 25.9918C29.2959 26.6597 29.7061 26.7183 34.1358 26.7183H38.1084L38.5069 27.1168C39.0225 27.6324 39.0225 27.7144 38.4951 31.6519C38.2725 33.3511 37.9795 35.6129 37.8506 36.6793C37.5811 38.8121 37.335 39.4683 36.5967 40.0308C35.753 40.6636 35.6358 40.6754 29.9287 40.6402C24.7022 40.605 24.667 40.605 23.9639 40.3238C23.3076 40.066 22.5225 39.5855 21.7608 38.9879C21.4444 38.7418 21.3389 38.73 18.8311 38.73C16.2998 38.73 16.2178 38.7418 15.8428 38.9996C14.7881 39.7613 14.835 41.2964 15.9366 42.0347C16.2998 42.2925 16.4522 42.3043 18.1866 42.3043C20.0498 42.3043 20.0498 42.3043 20.542 42.6441C21.3037 43.1597 22.3936 43.6754 23.3428 43.9683C24.1631 44.2144 24.3975 44.2261 29.9053 44.273C34.8858 44.3082 35.6944 44.2847 36.3506 44.1207C38.6006 43.5347 40.417 41.8004 41.0616 39.6207C41.167 39.2691 41.378 37.9214 41.542 36.6324C41.7061 35.3316 41.9991 33.0933 42.1983 31.6402C42.6201 28.4996 42.6436 27.3629 42.3272 26.5074C41.7764 25.0543 40.9444 24.1402 39.6319 23.5191L38.8467 23.1441L35.3545 23.1089C32.1201 23.0738 31.8623 23.0621 31.9326 22.8746C32.167 22.2652 32.7295 20.0621 32.8936 19.1129C33.3272 16.523 32.7412 14.8121 31.0303 13.6988C29.917 12.9839 28.5576 12.6675 27.6084 12.9019Z" fill="#93BC92" stroke="white" stroke-width="0.5"/>
</svg>
