<svg width="48" height="49" viewBox="0 0 48 49" fill="none" xmlns="http://www.w3.org/2000/svg">
<g id="icons8-toolbox 2">
<circle id="Ellipse 4087" cx="24.5" cy="25.6001" r="13.5" fill="#DEF3FF"/>
<g id="Group 1261153611">
<path id="Vector" d="M35.7182 26.6716C35.742 26.5728 35.7849 26.4797 35.8446 26.3975C35.9044 26.3154 35.9797 26.2458 36.0663 26.1928C36.1529 26.1397 36.2491 26.1043 36.3495 26.0884C36.4498 26.0725 36.5522 26.0766 36.651 26.1003C36.7498 26.1241 36.8429 26.167 36.925 26.2268C37.0072 26.2865 37.0768 26.3618 37.1298 26.4484C37.1828 26.535 37.2183 26.6313 37.2342 26.7316C37.25 26.8319 37.246 26.9344 37.2222 27.0331C36.9657 28.0742 36.5902 29.0822 36.1029 30.0373C35.6167 30.9997 35.0217 31.9031 34.3296 32.7299C32.5644 34.8633 30.2189 36.4397 27.5768 37.2685C24.9347 38.0972 22.1091 38.1429 19.4417 37.3999C16.7742 36.657 14.379 35.1572 12.5458 33.082C10.7125 31.0067 9.51967 28.4448 9.11144 25.7061C9.08237 25.502 9.13554 25.2948 9.25925 25.13C9.38297 24.9651 9.5671 24.8562 9.77113 24.8271C9.97517 24.798 10.1824 24.8512 10.3472 24.9749C10.5121 25.0986 10.621 25.2828 10.6501 25.4868C11.1056 28.402 12.5535 31.0705 14.7492 33.0414C16.9449 35.0123 19.7537 36.1648 22.7009 36.3041C25.6481 36.4434 28.5531 35.5609 30.9249 33.8059C33.2966 32.0508 34.9898 29.5307 35.7182 26.6716ZM10.5001 23.425C10.5001 23.6291 10.419 23.8248 10.2747 23.969C10.1305 24.1133 9.93478 24.1944 9.73074 24.1944C9.52671 24.1944 9.33103 24.1133 9.18675 23.969C9.04248 23.8248 8.96143 23.6291 8.96143 23.425C8.97997 21.7964 9.27791 20.1831 9.84229 18.6553C10.4024 17.128 11.2251 15.7104 12.2733 14.4664C13.5072 12.9797 15.0295 11.7586 16.7485 10.8766C18.4674 9.9947 20.3472 9.47028 22.2744 9.33503L22.913 9.30426H23.4746C23.5756 9.30426 23.6756 9.32416 23.769 9.36282C23.8623 9.40148 23.9471 9.45815 24.0185 9.52959C24.09 9.60102 24.1467 9.68583 24.1853 9.77917C24.224 9.87251 24.2439 9.97255 24.2439 10.0736C24.2439 10.1746 24.224 10.2746 24.1853 10.368C24.1467 10.4613 24.09 10.5461 24.0185 10.6176C23.9471 10.689 23.8623 10.7457 23.769 10.7843C23.6756 10.823 23.5756 10.8429 23.4746 10.8429C23.3322 10.8429 23.1553 10.8429 22.9668 10.8429C22.7783 10.8429 22.6283 10.8429 22.4052 10.8737C20.6829 10.9877 19.0016 11.4505 17.4636 12.2341C15.9256 13.0177 14.5628 14.1056 13.4581 15.4319C11.5888 17.6806 10.5451 20.5012 10.5001 23.425ZM25.9287 11.116C25.7282 11.0752 25.5522 10.9564 25.4393 10.7858C25.3264 10.6152 25.2859 10.4067 25.3267 10.2063C25.3675 10.0058 25.4863 9.82977 25.6569 9.71688C25.8275 9.60398 26.0359 9.56349 26.2364 9.60429C27.3768 9.84404 28.4847 10.2185 29.5368 10.7198C30.5861 11.2251 31.5682 11.8596 32.4602 12.6085C34.7739 14.51 36.4262 17.0954 37.1799 19.9939C37.2309 20.1923 37.201 20.4029 37.0968 20.5793C36.9925 20.7556 36.8225 20.8834 36.6241 20.9344C36.4257 20.9854 36.2151 20.9555 36.0387 20.8513C35.8623 20.747 35.7346 20.577 35.6836 20.3786C35.3468 19.0945 34.8121 17.8708 34.0988 16.7512C32.8149 14.748 31.0034 13.1375 28.8636 12.0969C27.9298 11.6458 26.9441 11.3112 25.9287 11.1006V11.116Z" fill="#7FBBDC" stroke="#7FBBDC"/>
<path id="Vector_2" d="M30.5714 18.9784C30.5164 18.8934 30.4787 18.7983 30.4606 18.6986C30.4424 18.599 30.4441 18.4967 30.4655 18.3977C30.487 18.2987 30.5277 18.2049 30.5855 18.1217C30.6433 18.0386 30.717 17.9676 30.8022 17.9129C30.8873 17.8579 30.9824 17.8202 31.082 17.8021C31.1817 17.7839 31.2839 17.7856 31.3829 17.807C31.4819 17.8284 31.5757 17.8692 31.6589 17.927C31.7421 17.9848 31.8131 18.0584 31.8677 18.1437C32.3912 18.9549 32.7954 19.8371 33.0679 20.7632C33.3286 21.6907 33.4581 22.6501 33.4525 23.6135C33.4525 23.8176 33.3715 24.0133 33.2272 24.1575C33.0829 24.3018 32.8872 24.3829 32.6832 24.3829C32.4792 24.3829 32.2835 24.3018 32.1392 24.1575C31.9949 24.0133 31.9139 23.8176 31.9139 23.6135C31.9161 22.7951 31.8021 21.9805 31.5754 21.194C31.3452 20.4125 31.0073 19.6668 30.5714 18.9784ZM31.7562 25.2945C31.7761 25.1935 31.8158 25.0974 31.8729 25.0117C31.93 24.926 32.0034 24.8523 32.0889 24.795C32.1745 24.7377 32.2705 24.6978 32.3715 24.6775C32.4724 24.6573 32.5764 24.6572 32.6774 24.6771C32.7785 24.6971 32.8746 24.7367 32.9603 24.7938C33.046 24.8509 33.1196 24.9243 33.1769 25.0099C33.2343 25.0954 33.2742 25.1914 33.2944 25.2924C33.3146 25.3934 33.3148 25.4974 33.2948 25.5984L33.2717 25.7215L33.241 25.8407C33.1981 26.0432 33.0766 26.2204 32.9031 26.3333C32.7296 26.4462 32.5184 26.4856 32.3159 26.4427C32.1134 26.3999 31.9362 26.2783 31.8233 26.1048C31.7104 25.9313 31.671 25.7201 31.7139 25.5176L31.737 25.4061L31.7562 25.2945ZM31.0523 27.3755C31.097 27.2838 31.1593 27.2018 31.2357 27.1342C31.3121 27.0666 31.401 27.0148 31.4975 26.9815C31.5939 26.9483 31.6959 26.9344 31.7978 26.9406C31.8996 26.9469 31.9992 26.9731 32.0908 27.0178C32.1825 27.0625 32.2645 27.1248 32.3321 27.2012C32.3997 27.2776 32.4516 27.3665 32.4848 27.463C32.518 27.5594 32.5319 27.6614 32.5257 27.7633C32.5195 27.8651 32.4933 27.9647 32.4486 28.0563C31.6308 29.7157 30.3769 31.1211 28.8212 32.1222C27.27 33.1312 25.4705 33.6928 23.6207 33.7454C23.5196 33.7485 23.419 33.7316 23.3245 33.6957C23.23 33.6598 23.1435 33.6057 23.0699 33.5364C22.9963 33.4671 22.9371 33.384 22.8957 33.2918C22.8542 33.1997 22.8313 33.1002 22.8283 32.9992C22.8253 32.8982 22.8421 32.7975 22.878 32.703C22.9139 32.6085 22.968 32.522 23.0373 32.4484C23.1066 32.3749 23.1897 32.3157 23.2819 32.2742C23.374 32.2327 23.4735 32.2098 23.5745 32.2068C25.1438 32.1551 26.6693 31.6765 27.9868 30.8225C29.3044 29.9685 30.3642 28.7715 31.0523 27.3601V27.3755ZM21.5204 32.0106C21.6197 32.0316 21.7139 32.0719 21.7975 32.1292C21.8812 32.1866 21.9528 32.2599 22.0082 32.3449C22.0635 32.4299 22.1016 32.525 22.1202 32.6247C22.1388 32.7244 22.1376 32.8268 22.1167 32.9261C22.0957 33.0254 22.0554 33.1195 21.998 33.2032C21.9407 33.2869 21.8674 33.3585 21.7824 33.4138C21.6974 33.4692 21.6023 33.5073 21.5026 33.5259C21.4029 33.5445 21.3004 33.5433 21.2012 33.5223C18.9178 33.0382 16.8684 31.7883 15.3928 29.9796C13.9234 28.1764 13.1229 25.9204 13.1272 23.5943C13.1272 23.3903 13.2083 23.1946 13.3525 23.0503C13.4968 22.9061 13.6925 22.825 13.8965 22.825C14.1006 22.825 14.2962 22.9061 14.4405 23.0503C14.5848 23.1946 14.6658 23.3903 14.6658 23.5943C14.6627 25.5652 15.3424 27.4762 16.5891 29.0026C17.8439 30.5333 19.5812 31.5925 21.5166 32.0068L21.5204 32.0106ZM14.9082 21.6249C14.8613 21.8243 14.737 21.9969 14.5628 22.1048C14.3886 22.2126 14.1787 22.2469 13.9792 22.1999C13.7798 22.153 13.6072 22.0288 13.4993 21.8546C13.3915 21.6803 13.3572 21.4704 13.4042 21.271C13.9334 19.0447 15.1985 17.0621 16.9947 15.6443C18.7909 14.2264 21.0131 13.4563 23.3014 13.4586C25.2838 13.4538 27.2231 14.0361 28.8751 15.1318C28.961 15.1875 29.035 15.2596 29.0927 15.3442C29.1504 15.4288 29.1906 15.524 29.211 15.6243C29.2315 15.7246 29.2317 15.828 29.2116 15.9284C29.1916 16.0287 29.1517 16.1241 29.0944 16.2089C28.9821 16.3792 28.8068 16.498 28.607 16.5391C28.4072 16.5803 28.1992 16.5403 28.0289 16.4281C27.3335 15.9677 26.574 15.6125 25.7748 15.3742C24.9713 15.1396 24.1384 15.0217 23.3014 15.0241C21.3661 15.0175 19.485 15.6634 17.9621 16.8576C16.4391 18.0518 15.3632 19.7246 14.9082 21.6056V21.6249Z" fill="#7FBBDC" stroke="#7FBBDC"/>
<path id="Vector_3" d="M6.76932 24.3636C6.56528 24.3636 6.3696 24.2826 6.22533 24.1383C6.08105 23.994 6 23.7984 6 23.5943C6 23.3903 6.08105 23.1946 6.22533 23.0503C6.3696 22.9061 6.56528 22.825 6.76932 22.825H16.0857C16.2898 22.825 16.4854 22.9061 16.6297 23.0503C16.774 23.1946 16.855 23.3903 16.855 23.5943C16.855 23.7984 16.774 23.994 16.6297 24.1383C16.4854 24.2826 16.2898 24.3636 16.0857 24.3636H6.76932ZM30.5142 24.3636C30.3102 24.3636 30.1145 24.2826 29.9702 24.1383C29.826 23.994 29.7449 23.7984 29.7449 23.5943C29.7449 23.3903 29.826 23.1946 29.9702 23.0503C30.1145 22.9061 30.3102 22.825 30.5142 22.825H40.3345C40.5386 22.825 40.7343 22.9061 40.8785 23.0503C41.0228 23.1946 41.1039 23.3903 41.1039 23.5943C41.1039 23.7984 41.0228 23.994 40.8785 24.1383C40.7343 24.2826 40.5386 24.3636 40.3345 24.3636H30.5142Z" fill="#7FBBDC" stroke="#7FBBDC"/>
<path id="Vector_4" d="M24.317 40.3308C24.317 40.5348 24.2359 40.7305 24.0916 40.8748C23.9473 41.019 23.7517 41.1001 23.5476 41.1001C23.3436 41.1001 23.1479 41.019 23.0036 40.8748C22.8594 40.7305 22.7783 40.5348 22.7783 40.3308V30.7797C22.7783 30.5757 22.8594 30.38 23.0036 30.2357C23.1479 30.0915 23.3436 30.0104 23.5476 30.0104C23.7517 30.0104 23.9473 30.0915 24.0916 30.2357C24.2359 30.38 24.317 30.5757 24.317 30.7797V40.3308ZM24.317 16.4089C24.317 16.613 24.2359 16.8086 24.0916 16.9529C23.9473 17.0972 23.7517 17.1782 23.5476 17.1782C23.3436 17.1782 23.1479 17.0972 23.0036 16.9529C22.8594 16.8086 22.7783 16.613 22.7783 16.4089V6.86941C22.7783 6.66538 22.8594 6.4697 23.0036 6.32542C23.1479 6.18115 23.3436 6.1001 23.5476 6.1001C23.7517 6.1001 23.9473 6.18115 24.0916 6.32542C24.2359 6.4697 24.317 6.66538 24.317 6.86941V16.4089Z" fill="#7FBBDC" stroke="#7FBBDC"/>
<path id="Vector_5" d="M26.8214 21.2864C26.9002 21.2726 26.9799 21.2649 27.0599 21.2633C27.2601 21.2669 27.4573 21.3118 27.6394 21.3952C27.8214 21.4786 27.9842 21.5987 28.1177 21.748C28.3693 22.0237 28.5374 22.3652 28.6023 22.7327C28.6012 22.7519 28.6012 22.7712 28.6023 22.7904C28.6023 22.8981 28.6023 22.9866 28.6023 23.075V23.1404C28.6013 23.5226 28.5076 23.8988 28.3292 24.2367C28.1676 24.5165 27.9089 24.7273 27.6022 24.8291C27.4049 25.8428 26.934 26.7833 26.2406 27.5486C25.8744 27.9723 25.4263 28.3174 24.9232 28.5633C24.4201 28.8092 23.8725 28.9508 23.3133 28.9795C22.7531 28.9482 22.205 28.804 21.7019 28.5554C21.1989 28.3069 20.7513 27.9592 20.3861 27.5332C19.6774 26.7722 19.1905 25.8317 18.9782 24.8137C18.6662 24.7164 18.4024 24.5048 18.2397 24.2213C18.044 23.8692 17.9495 23.4698 17.9666 23.0674V23.0173C17.9753 22.5835 18.1343 22.1661 18.4166 21.8364C18.5724 21.6583 18.7656 21.5167 18.9823 21.4216C19.199 21.3266 19.434 21.2804 19.6706 21.2864C19.752 21.277 19.8344 21.2849 19.9125 21.3096C19.9906 21.3343 20.0626 21.3752 20.1237 21.4297C20.1849 21.4842 20.2338 21.551 20.2673 21.6257C20.3008 21.7005 20.3182 21.7815 20.3182 21.8634C20.3182 21.9453 20.3008 22.0263 20.2673 22.101C20.2338 22.1757 20.1849 22.2425 20.1237 22.297C20.0626 22.3515 19.9906 22.3925 19.9125 22.4172C19.8344 22.4419 19.752 22.4498 19.6706 22.4404C19.5992 22.4365 19.5277 22.4483 19.4613 22.4749C19.3949 22.5014 19.335 22.5422 19.2859 22.5942C19.1817 22.7161 19.1268 22.8725 19.1321 23.0327V23.0674C19.1188 23.2624 19.1532 23.4578 19.2321 23.6366C19.2561 23.6685 19.2876 23.694 19.3239 23.7108C19.3601 23.7276 19.3999 23.7351 19.4398 23.7328C19.588 23.7219 19.7348 23.7686 19.8494 23.8632C19.9641 23.9578 20.0378 24.0929 20.0553 24.2406C20.1799 25.185 20.5938 26.0678 21.24 26.7678C21.4988 27.072 21.8153 27.3221 22.1711 27.5036C22.5269 27.6851 22.9151 27.7946 23.3133 27.8256C23.7108 27.7928 24.098 27.6818 24.4524 27.499C24.8069 27.3161 25.1218 27.065 25.3789 26.7601C26.0276 26.0657 26.4397 25.1837 26.556 24.2406C26.5721 24.1134 26.6293 23.9951 26.7189 23.9034C26.8085 23.8118 26.9255 23.7519 27.0522 23.7328H27.1483C27.1895 23.7388 27.2316 23.7325 27.2692 23.7147C27.3068 23.6969 27.3384 23.6684 27.3599 23.6328C27.4401 23.4774 27.4773 23.3035 27.4676 23.1289V23.075C27.4733 23.0419 27.4733 23.0081 27.4676 22.975V22.9404C27.4396 22.7986 27.3761 22.6663 27.283 22.5558C27.2291 22.4932 27.1535 22.4533 27.0714 22.4442H27.0099L26.8214 21.2864Z" fill="#7FBBDC" stroke="#7FBBDC"/>
<path id="Vector_6" fill-rule="evenodd" clip-rule="evenodd" d="M18.8777 21.7672C18.8777 22.3288 19.1431 22.4711 19.847 22.7442C20.2828 22.9295 20.7475 23.0375 21.2203 23.0635H21.7395C22.7911 22.9585 23.7959 22.5762 24.6514 21.9557C24.8168 21.9864 27.4671 22.9981 27.7864 22.0095C28.1518 20.8363 27.6787 18.9746 26.3785 18.5476C25.5553 18.286 25.2899 18.713 24.7168 18.5476C22.2011 17.5744 19.3316 18.2322 18.8777 21.771V21.7672ZM26.6862 21.2325C26.7135 20.8528 26.6377 20.4727 26.467 20.1324C26.4222 20.0282 26.3542 19.9356 26.2682 19.8616C26.1822 19.7876 26.0805 19.7342 25.9708 19.7054C25.7154 19.6697 25.4556 19.7241 25.2361 19.8593C25.1483 19.9078 25.0497 19.9332 24.9495 19.9332C24.8493 19.9332 24.7507 19.9078 24.6629 19.8593C22.7396 18.8515 20.6279 19.1361 20.0894 21.5826C20.6802 21.8649 21.3431 21.9602 21.9896 21.8557C22.8216 21.7546 23.594 21.3718 24.1783 20.7709C24.6629 20.2555 25.5092 21.1979 26.6862 21.2325Z" fill="#7FBBDC" stroke="#7FBBDC"/>
</g>
</g>
</svg>
