<?xml version="1.0" encoding="UTF-8"?>
<svg xmlns="http://www.w3.org/2000/svg" width="60" height="60" viewBox="0 0 60 60" fill="none">
  <rect x="7.6759" y="7.63135" width="2" height="5.12925" rx="1" transform="rotate(-48.1124 7.6759 7.63135)" fill="#FFB444"></rect>
  <rect x="4.49243" y="26.4258" width="2" height="5.12925" rx="1" transform="rotate(-90.2963 4.49243 26.4258)" fill="#FFB444"></rect>
  <rect x="10.1942" y="42.9697" width="2" height="5.12925" rx="1" transform="rotate(-136.146 10.1942 42.9697)" fill="#FFB444"></rect>
  <rect x="50.2563" y="45.4062" width="2" height="5.12925" rx="1" transform="rotate(135.721 50.2563 45.4062)" fill="#FFB444"></rect>
  <rect x="55.517" y="27.4912" width="2" height="5.12925" rx="1" transform="rotate(89.9701 55.517 27.4912)" fill="#FFB444"></rect>
  <rect x="48.7374" y="8.98975" width="2" height="5.12925" rx="1" transform="rotate(43.5348 48.7374 8.98975)" fill="#FFB444"></rect>
  <ellipse cx="34.7739" cy="29.6398" rx="14.2235" ry="14.2235" fill="#FFE9C9"></ellipse>
  <path fill-rule="evenodd" clip-rule="evenodd" d="M16.5503 9.55659C19.4688 6.8823 23.1741 5.54395 26.8785 5.54395C30.5829 5.54395 34.2882 6.8823 37.2067 9.55659C38.092 10.3678 38.8609 11.2617 39.5116 12.2166H36.9495C36.6037 11.8133 36.2303 11.4267 35.8293 11.0593C33.2938 8.73587 30.0861 7.57415 26.8785 7.57415C23.6709 7.57415 20.4633 8.73587 17.9277 11.0593C12.8564 15.7063 12.172 23.4404 16.3592 28.8973C18.5483 31.882 19.7449 35.4728 19.7449 39.1698C19.7449 39.4405 19.8521 39.6989 20.0435 39.8903C20.2349 40.0817 20.4933 40.1889 20.764 40.1889H32.993C33.2637 40.1889 33.5221 40.0817 33.7135 39.8903C33.9049 39.6989 34.0121 39.4405 34.0121 39.1698C34.0121 35.4728 35.2007 31.8759 37.3899 28.8913C39.0925 26.6725 39.991 24.0781 40.1168 21.468H42.1464C42.0264 24.3701 41.0826 27.2584 39.2827 29.7572C37.1849 32.4592 36.0503 35.767 36.0503 39.1698C36.0503 39.9802 35.7276 40.7583 35.1546 41.3314C34.5816 41.9044 33.8035 42.227 32.993 42.227H20.764C19.9535 42.227 19.1754 41.9044 18.6024 41.3314C18.0294 40.7583 17.7067 39.9802 17.7067 39.1698C17.7067 35.767 16.584 32.4512 14.4862 29.7492C9.97881 23.4916 10.8287 14.7995 16.5503 9.55659ZM19.7449 45.2843C19.7373 44.7222 20.202 44.2744 20.764 44.2652C21.3384 44.2562 21.7933 44.7098 21.7831 45.2843V47.3205C21.7832 47.6687 21.8303 48.008 21.8985 48.3416H27.8976C28.4622 48.3416 28.9167 48.7961 28.9167 49.3606C28.9167 49.9252 28.4622 50.3797 27.8976 50.3797H22.8061C23.212 50.9206 23.7257 51.3857 24.3308 51.7352C25.9086 52.6464 27.8484 52.6464 29.4262 51.7352C31.0035 50.8243 31.9732 49.1442 31.9739 47.3225V46.3034H24.8403C24.2758 46.3034 23.8212 45.8489 23.8212 45.2843C23.8212 44.7197 24.2758 44.2652 24.8403 44.2652H32.993C33.5675 44.2562 34.0223 44.7098 34.0121 45.2843V47.3225C33.9508 49.8018 32.6 52.2564 30.4453 53.5007C28.2396 54.7744 25.5174 54.7744 23.3117 53.5007C21.149 52.2517 19.7969 49.8126 19.7449 47.3225V45.2843Z" fill="#FFB444"></path>
  <path d="M26.8757 27.378L26.8757 40.3974" stroke="#FFB444" stroke-width="2" stroke-linecap="round"></path>
  <path d="M20.0008 20.503L26.8757 27.3779" stroke="#FFB444" stroke-width="2" stroke-linecap="round"></path>
  <path d="M33.7506 20.5027L26.8757 27.3776" stroke="#FFB444" stroke-width="2" stroke-linecap="round"></path>
</svg>
