<?xml version="1.0" encoding="UTF-8"?>
<svg xmlns="http://www.w3.org/2000/svg" width="60" height="60" viewBox="0 0 60 60" fill="none">
  <path d="M42.6993 34.8038C42.5728 34.6476 42.4131 34.5216 42.2317 34.4351C42.0503 34.3486 41.8519 34.3037 41.651 34.3037C41.4501 34.3037 41.2517 34.3486 41.0703 34.4351C40.8889 34.5216 40.7292 34.6476 40.6027 34.8038L36.4602 40.5264C36.2921 40.7585 36.2068 41.0402 36.2177 41.3266C36.2287 41.6129 36.3354 41.8873 36.5208 42.1058L40.6625 47.01C40.7843 47.1538 40.936 47.2694 41.107 47.3486C41.2779 47.4278 41.4641 47.4689 41.6526 47.4689C41.841 47.4689 42.0272 47.4278 42.1981 47.3486C42.3691 47.2694 42.5208 47.1538 42.6426 47.01L46.7843 42.1058C46.9694 41.8872 47.0758 41.613 47.0867 41.3268C47.0975 41.0407 47.0121 40.7591 46.8441 40.5272L42.6993 34.8038ZM41.6487 45.7754L37.8393 41.2649L41.6487 36.0019L45.4581 41.2649L41.6487 45.7754Z" fill="#FFEEE4"></path>
  <path d="M52.1659 32.1317L47.0838 29.2121V20.6809C47.0828 20.3551 47.0131 20.0332 46.8793 19.7362C46.7455 19.4392 46.5507 19.1737 46.3074 18.9571V14.469C46.3074 13.8512 46.0619 13.2587 45.6251 12.8219C45.1882 12.385 44.5957 12.1396 43.9779 12.1396H39.2981C38.664 11.2895 37.8617 10.5791 36.9411 10.0525C36.0206 9.52591 35.0015 9.19443 33.9474 9.07869C32.8932 8.96295 31.8265 9.06544 30.8136 9.37976C29.8008 9.69409 28.8635 10.2135 28.06 10.9058C27.2505 9.97797 26.2309 9.25707 25.0863 8.80311C23.9418 8.34916 22.7053 8.1753 21.4799 8.29602C20.2545 8.41673 19.0756 8.82853 18.0416 9.4971C17.0076 10.1657 16.1483 11.0717 15.5354 12.1396H12.1422C11.1129 12.1408 10.1261 12.5503 9.39826 13.2781C8.67043 14.0059 8.261 14.9927 8.25977 16.022L8.25977 42.4224C8.261 43.4517 8.67043 44.4385 9.39826 45.1663C10.1261 45.8941 11.1129 46.3035 12.1422 46.3048H28.6253C28.803 46.9939 29.116 47.6409 29.5462 48.2078C29.9764 48.7748 30.5151 49.2505 31.131 49.6071L39.0372 54.1472C39.8324 54.6016 40.7325 54.8406 41.6485 54.8406C42.5644 54.8406 43.4645 54.6016 44.2598 54.1472L52.1659 49.6056C52.9827 49.1319 53.6606 48.4517 54.1314 47.6333C54.6023 46.8149 54.8497 45.887 54.8486 44.9428V36.796C54.8499 35.8515 54.6027 34.9233 54.1318 34.1046C53.6609 33.2859 52.9829 32.6055 52.1659 32.1317ZM9.81273 42.4224V36.2105H13.8271C13.9303 36.2106 14.0323 36.2313 14.1274 36.2713C14.2224 36.3113 14.3086 36.3698 14.3808 36.4435L15.6884 37.7511C15.4033 38.2237 15.2512 38.7645 15.2481 39.3164C15.2481 39.9307 15.4303 40.5312 15.7715 41.042C16.1128 41.5528 16.5979 41.9509 17.1654 42.1859C17.733 42.421 18.3575 42.4825 18.96 42.3627C19.5625 42.2428 20.1159 41.947 20.5502 41.5127C20.9846 41.0783 21.2804 40.5249 21.4003 39.9224C21.5201 39.3199 21.4586 38.6954 21.2235 38.1279C20.9884 37.5603 20.5903 37.0752 20.0796 36.734C19.5688 36.3927 18.9683 36.2105 18.354 36.2105C17.8013 36.2132 17.2596 36.3653 16.7863 36.6508L15.481 35.3432C15.2646 35.1249 15.0069 34.9519 14.723 34.8342C14.439 34.7165 14.1345 34.6565 13.8271 34.6575H9.81273V33.1046H20.7937C20.9827 33.8365 21.4322 34.4744 22.0578 34.8987C22.6835 35.323 23.4425 35.5045 24.1924 35.4093C24.9423 35.314 25.6318 34.9485 26.1315 34.3813C26.6312 33.8141 26.907 33.0841 26.907 32.3281C26.907 31.5721 26.6312 30.8421 26.1315 30.2749C25.6318 29.7077 24.9423 29.3422 24.1924 29.2469C23.4425 29.1517 22.6835 29.3332 22.0578 29.7575C21.4322 30.1818 20.9827 30.8197 20.7937 31.5516H9.81273V29.2222H13.8271C14.1345 29.2233 14.439 29.1632 14.723 29.0455C15.0069 28.9278 15.2646 28.7548 15.481 28.5365L16.7886 27.229C17.2613 27.514 17.8021 27.6661 18.354 27.6692C18.9683 27.6692 19.5688 27.4871 20.0796 27.1458C20.5903 26.8045 20.9884 26.3194 21.2235 25.7519C21.4586 25.1843 21.5201 24.5598 21.4003 23.9574C21.2804 23.3549 20.9846 22.8014 20.5502 22.3671C20.1159 21.9327 19.5625 21.6369 18.96 21.517C18.3575 21.3972 17.733 21.4587 17.1654 21.6938C16.5979 21.9289 16.1128 22.327 15.7715 22.8377C15.4303 23.3485 15.2481 23.949 15.2481 24.5633C15.2508 25.116 15.4029 25.6577 15.6884 26.131L14.3808 27.4363C14.3086 27.5099 14.2224 27.5684 14.1274 27.6084C14.0323 27.6484 13.9303 27.6691 13.8271 27.6692H9.81273V19.1279C10.484 19.6333 11.3019 19.9059 12.1422 19.9044H44.7544C44.9603 19.9044 45.1578 19.9862 45.3034 20.1318C45.4491 20.2774 45.5309 20.4749 45.5309 20.6809V28.3207L44.2598 27.5916C43.4645 27.137 42.5644 26.8979 41.6485 26.8979C40.7325 26.8979 39.8324 27.137 39.0372 27.5916L31.131 32.1317C30.314 32.6055 29.636 33.2859 29.1651 34.1046C28.6942 34.9233 28.447 35.8515 28.4483 36.796V44.7518H12.1422C11.5244 44.7518 10.9319 44.5064 10.495 44.0695C10.0582 43.6327 9.81273 43.0402 9.81273 42.4224ZM18.354 37.7635C18.6612 37.7635 18.9614 37.8546 19.2168 38.0252C19.4722 38.1958 19.6712 38.4384 19.7888 38.7221C19.9063 39.0059 19.9371 39.3182 19.8771 39.6194C19.8172 39.9207 19.6693 40.1974 19.4521 40.4145C19.2349 40.6317 18.9582 40.7796 18.657 40.8396C18.3557 40.8995 18.0435 40.8687 17.7597 40.7512C17.476 40.6336 17.2334 40.4346 17.0628 40.1792C16.8921 39.9238 16.8011 39.6236 16.8011 39.3164C16.8011 38.9046 16.9647 38.5096 17.2559 38.2183C17.5472 37.9271 17.9422 37.7635 18.354 37.7635ZM22.2364 32.3281C22.2364 32.021 22.3275 31.7207 22.4982 31.4653C22.6688 31.2099 22.9113 31.0109 23.1951 30.8934C23.4789 30.7758 23.7911 30.7451 24.0924 30.805C24.3936 30.8649 24.6703 31.0128 24.8875 31.23C25.1047 31.4472 25.2526 31.7239 25.3125 32.0251C25.3724 32.3264 25.3417 32.6386 25.2241 32.9224C25.1066 33.2062 24.9076 33.4487 24.6522 33.6193C24.3968 33.79 24.0965 33.8811 23.7894 33.8811C23.3775 33.8811 22.9825 33.7175 22.6913 33.4262C22.4 33.135 22.2364 32.74 22.2364 32.3281ZM16.8011 24.5633C16.8011 24.2561 16.8921 23.9559 17.0628 23.7005C17.2334 23.4451 17.476 23.2461 17.7597 23.1285C18.0435 23.011 18.3557 22.9802 18.657 23.0402C18.9582 23.1001 19.2349 23.248 19.4521 23.4652C19.6693 23.6824 19.8172 23.9591 19.8771 24.2603C19.9371 24.5616 19.9063 24.8738 19.7888 25.1576C19.6712 25.4414 19.4722 25.6839 19.2168 25.8545C18.9614 26.0252 18.6612 26.1163 18.354 26.1163C17.9422 26.1163 17.5472 25.9526 17.2559 25.6614C16.9647 25.3702 16.8011 24.9752 16.8011 24.5633Z" fill="#FFEEE4"></path>
  <path d="M50.6197 34.825L42.7135 30.2834C42.3886 30.1002 42.022 30.0039 41.649 30.0039C41.276 30.0039 40.9093 30.1002 40.5844 30.2834L32.6767 34.825C32.3335 35.0265 32.0492 35.3145 31.8523 35.6604C31.6554 36.0062 31.5527 36.3978 31.5547 36.7957V44.9426C31.5528 45.3407 31.6556 45.7324 31.8528 46.0783C32.05 46.4241 32.3347 46.7121 32.6783 46.9133L40.5844 51.4549C40.9081 51.6417 41.2753 51.7399 41.649 51.7399C42.0227 51.7399 42.3898 51.6417 42.7135 51.4549L50.6212 46.9133C50.9645 46.7119 51.2488 46.4238 51.4457 46.0779C51.6426 45.7321 51.7452 45.3406 51.7432 44.9426V36.7957C51.7451 36.3976 51.6423 36.006 51.4451 35.6601C51.2479 35.3142 50.9632 35.0262 50.6197 34.825ZM50.1903 44.9426C50.1921 45.067 50.1614 45.1898 50.1012 45.2988C50.041 45.4077 49.9534 45.4991 49.8471 45.5638L41.9402 50.1093C41.8515 50.16 41.7511 50.1867 41.649 50.1867C41.5468 50.1867 41.4465 50.16 41.3578 50.1093L33.4517 45.5669C33.3451 45.5023 33.2574 45.411 33.197 45.3021C33.1367 45.1931 33.1059 45.0702 33.1077 44.9457V36.7957C33.1059 36.6713 33.1366 36.5485 33.1968 36.4396C33.257 36.3306 33.3446 36.2393 33.4509 36.1746L41.3578 31.629C41.4461 31.5772 41.5466 31.5498 41.649 31.5498C41.7514 31.5498 41.8519 31.5772 41.9402 31.629L49.8463 36.1715C49.9528 36.236 50.0406 36.3273 50.1009 36.4363C50.1613 36.5452 50.1921 36.6681 50.1903 36.7926V44.9426Z" fill="#FFEEE4"></path>
  <path d="M9.8125 18.7461L44.6352 19.6168H45.4069V31.8352L44.6352 40.3846L42.1544 43.637L27.8436 44.8451C22.8874 44.8141 12.8636 44.7708 12.4176 44.8451C11.9715 44.9194 10.495 43.7274 9.8125 43.122V18.7461Z" fill="#FFEEE4" stroke="#FFEEE4" stroke-width="2" stroke-linecap="round"></path>
  <path d="M39.5918 31.7041C39.4654 31.548 39.3056 31.422 39.1243 31.3355C38.9429 31.249 38.7445 31.2041 38.5436 31.2041C38.3426 31.2041 38.1442 31.249 37.9629 31.3355C37.7815 31.422 37.6218 31.548 37.4953 31.7041L33.3528 37.4268C33.1847 37.6589 33.0993 37.9406 33.1103 38.227C33.1213 38.5133 33.228 38.7877 33.4134 39.0062L37.5551 43.9104C37.6769 44.0542 37.8286 44.1697 37.9995 44.249C38.1705 44.3282 38.3567 44.3693 38.5451 44.3693C38.7336 44.3693 38.9197 44.3282 39.0907 44.249C39.2617 44.1697 39.4133 44.0542 39.5351 43.9104L43.6769 39.0062C43.862 38.7876 43.9684 38.5134 43.9792 38.2272C43.9901 37.941 43.9047 37.6595 43.7367 37.4276L39.5918 31.7041ZM38.5412 42.6758L34.7318 38.1652L38.5412 32.9023L42.3507 38.1652L38.5412 42.6758Z" fill="#FF7E45"></path>
  <path d="M49.0585 29.032L43.9764 26.1125V17.5813C43.9754 17.2555 43.9057 16.9336 43.7719 16.6366C43.6381 16.3396 43.4432 16.0741 43.1999 15.8575V11.3694C43.1999 10.7516 42.9545 10.1591 42.5177 9.72225C42.0808 9.2854 41.4883 9.03998 40.8705 9.03998H36.1906C35.5565 8.18992 34.7542 7.47949 33.8337 6.9529C32.9132 6.4263 31.8941 6.09482 30.84 5.97908C29.7858 5.86334 28.7191 5.96583 27.7062 6.28016C26.6934 6.59448 25.756 7.11392 24.9526 7.80615C24.1431 6.87836 23.1235 6.15746 21.9789 5.7035C20.8343 5.24955 19.5978 5.07569 18.3724 5.19641C17.147 5.31712 15.9682 5.72892 14.9342 6.39749C13.9002 7.06607 13.0409 7.97205 12.428 9.03998H9.03475C8.00545 9.04121 7.01866 9.45064 6.29084 10.1785C5.56301 10.9063 5.15358 11.8931 5.15234 12.9224L5.15234 39.3228C5.15358 40.3521 5.56301 41.3388 6.29084 42.0667C7.01866 42.7945 8.00545 43.2039 9.03475 43.2052H25.5179C25.6956 43.8943 26.0086 44.5413 26.4388 45.1082C26.869 45.6752 27.4077 46.1509 28.0236 46.5075L35.9297 51.0476C36.725 51.502 37.6251 51.741 38.541 51.741C39.457 51.741 40.3571 51.502 41.1523 51.0476L49.0585 46.506C49.8753 46.0323 50.5531 45.3521 51.024 44.5337C51.4949 43.7153 51.7422 42.7874 51.7412 41.8432V33.6964C51.7425 32.7519 51.4953 31.8237 51.0244 31.005C50.5535 30.1863 49.8755 29.5058 49.0585 29.032ZM41.647 11.3694V15.2518H37.6015C37.9321 13.6851 37.7573 12.054 37.1022 10.5929H40.8705C41.0764 10.5929 41.2739 10.6747 41.4195 10.8204C41.5652 10.966 41.647 11.1635 41.647 11.3694ZM29.9997 7.48701C31.6468 7.48845 33.226 8.14338 34.3906 9.30801C35.5552 10.4726 36.2102 12.0518 36.2116 13.6989C36.2123 14.2229 36.1458 14.7448 36.0136 15.2518H26.5234C26.8529 14.2333 26.9644 13.1568 26.8507 12.0924C26.737 11.0279 26.4006 9.99933 25.8634 9.07336C27.0001 8.05369 28.4728 7.48889 29.9997 7.48701ZM13.5663 10.1612C14.2784 8.72076 15.5214 7.61271 17.0339 7.07025C18.5464 6.5278 20.2104 6.59324 21.6756 7.25281C23.1409 7.91239 24.2931 9.11465 24.8898 10.6066C25.4865 12.0985 25.4812 13.7637 24.875 15.2518H13.383C13.0478 14.4395 12.8909 13.5647 12.9227 12.6865C12.9546 11.8082 13.1746 10.9471 13.5678 10.1612H13.5663ZM9.03475 10.5929H11.7346C11.4932 11.346 11.3683 12.1316 11.3642 12.9224C11.3683 13.7132 11.4932 14.4987 11.7346 15.2518H9.03475C8.41694 15.2518 7.82444 15.0064 7.38759 14.5695C6.95073 14.1327 6.70531 13.5402 6.70531 12.9224C6.70531 12.3046 6.95073 11.7121 7.38759 11.2752C7.82444 10.8384 8.41694 10.5929 9.03475 10.5929ZM6.70531 39.3228V33.1109H10.7197C10.8228 33.111 10.9249 33.1317 11.02 33.1717C11.115 33.2117 11.2012 33.2702 11.2733 33.3438L12.5809 34.6514C12.2959 35.1241 12.1438 35.6649 12.1407 36.2168C12.1407 36.8311 12.3228 37.4316 12.6641 37.9424C13.0054 38.4532 13.4905 38.8513 14.058 39.0863C14.6255 39.3214 15.25 39.3829 15.8525 39.2631C16.455 39.1432 17.0085 38.8474 17.4428 38.413C17.8772 37.9787 18.173 37.4253 18.2928 36.8228C18.4127 36.2203 18.3512 35.5958 18.1161 35.0282C17.881 34.4607 17.4829 33.9756 16.9722 33.6343C16.4614 33.2931 15.8609 33.1109 15.2466 33.1109C14.6939 33.1136 14.1522 33.2657 13.6789 33.5512L12.3736 32.2436C12.1572 32.0253 11.8995 31.8523 11.6155 31.7346C11.3316 31.6169 11.0271 31.5568 10.7197 31.5579H6.70531V30.005H17.6863C17.8753 30.7369 18.3248 31.3748 18.9504 31.7991C19.5761 32.2234 20.335 32.4049 21.085 32.3097C21.8349 32.2144 22.5244 31.8489 23.0241 31.2817C23.5238 30.7145 23.7995 29.9845 23.7995 29.2285C23.7995 28.4725 23.5238 27.7425 23.0241 27.1753C22.5244 26.6081 21.8349 26.2426 21.085 26.1473C20.335 26.0521 19.5761 26.2336 18.9504 26.6579C18.3248 27.0822 17.8753 27.7201 17.6863 28.452H6.70531V26.1226H10.7197C11.0271 26.1237 11.3316 26.0636 11.6155 25.9459C11.8995 25.8282 12.1572 25.6552 12.3736 25.4369L13.6812 24.1293C14.1538 24.4144 14.6947 24.5665 15.2466 24.5696C15.8609 24.5696 16.4614 24.3874 16.9722 24.0462C17.4829 23.7049 17.881 23.2198 18.1161 22.6523C18.3512 22.0847 18.4127 21.4602 18.2928 20.8577C18.173 20.2553 17.8772 19.7018 17.4428 19.2675C17.0085 18.8331 16.455 18.5373 15.8525 18.4174C15.25 18.2976 14.6255 18.3591 14.058 18.5942C13.4905 18.8293 13.0054 19.2274 12.6641 19.7381C12.3228 20.2489 12.1407 20.8494 12.1407 21.4637C12.1434 22.0164 12.2955 22.5581 12.5809 23.0314L11.2733 24.3367C11.2012 24.4103 11.115 24.4688 11.02 24.5088C10.9249 24.5488 10.8228 24.5695 10.7197 24.5696H6.70531V16.0283C7.37662 16.5337 8.19447 16.8063 9.03475 16.8048H41.647C41.8529 16.8048 42.0504 16.8866 42.196 17.0322C42.3416 17.1778 42.4235 17.3753 42.4235 17.5813V25.2211L41.1523 24.492C40.3571 24.0374 39.457 23.7983 38.541 23.7983C37.6251 23.7983 36.725 24.0374 35.9297 24.492L28.0236 29.032C27.2066 29.5058 26.5286 30.1863 26.0577 31.005C25.5868 31.8237 25.3396 32.7519 25.3409 33.6964V41.6522H9.03475C8.41694 41.6522 7.82444 41.4068 7.38759 40.9699C6.95073 40.5331 6.70531 39.9406 6.70531 39.3228ZM15.2466 34.6639C15.5537 34.6639 15.854 34.7549 16.1094 34.9256C16.3648 35.0962 16.5638 35.3388 16.6814 35.6225C16.7989 35.9063 16.8296 36.2186 16.7697 36.5198C16.7098 36.821 16.5619 37.0978 16.3447 37.3149C16.1275 37.5321 15.8508 37.68 15.5496 37.74C15.2483 37.7999 14.9361 37.7691 14.6523 37.6516C14.3685 37.534 14.126 37.335 13.9554 37.0796C13.7847 36.8242 13.6936 36.524 13.6936 36.2168C13.6936 35.805 13.8573 35.41 14.1485 35.1187C14.4397 34.8275 14.8347 34.6639 15.2466 34.6639ZM19.129 29.2285C19.129 28.9213 19.2201 28.6211 19.3907 28.3657C19.5614 28.1103 19.8039 27.9113 20.0877 27.7937C20.3714 27.6762 20.6837 27.6455 20.9849 27.7054C21.2862 27.7653 21.5629 27.9132 21.7801 28.1304C21.9973 28.3476 22.1452 28.6243 22.2051 28.9255C22.265 29.2268 22.2343 29.539 22.1167 29.8228C21.9992 30.1066 21.8001 30.3491 21.5448 30.5197C21.2894 30.6904 20.9891 30.7815 20.682 30.7815C20.2701 30.7815 19.8751 30.6178 19.5839 30.3266C19.2926 30.0354 19.129 29.6404 19.129 29.2285ZM13.6936 21.4637C13.6936 21.1565 13.7847 20.8563 13.9554 20.6009C14.126 20.3455 14.3685 20.1465 14.6523 20.0289C14.9361 19.9114 15.2483 19.8806 15.5496 19.9406C15.8508 20.0005 16.1275 20.1484 16.3447 20.3656C16.5619 20.5828 16.7098 20.8595 16.7697 21.1607C16.8296 21.462 16.7989 21.7742 16.6814 22.058C16.5638 22.3417 16.3648 22.5843 16.1094 22.7549C15.854 22.9256 15.5537 23.0166 15.2466 23.0166C14.8347 23.0166 14.4397 22.853 14.1485 22.5618C13.8573 22.2706 13.6936 21.8756 13.6936 21.4637ZM50.1883 41.8432C50.1899 42.5146 50.0149 43.1746 49.6809 43.757C49.3468 44.3393 48.8655 44.8236 48.2851 45.1611L40.379 49.702C39.8192 50.0218 39.1857 50.1901 38.541 50.1901C37.8964 50.1901 37.2629 50.0218 36.7031 49.702L28.797 45.1611C28.2166 44.8236 27.7352 44.3393 27.4012 43.757C27.0671 43.1746 26.8922 42.5146 26.8938 41.8432V33.6964C26.8922 33.025 27.0671 32.365 27.4012 31.7826C27.7352 31.2002 28.2166 30.716 28.797 30.3785L36.7031 25.8376C37.2628 25.5175 37.8963 25.3492 38.541 25.3492C39.1858 25.3492 39.8193 25.5175 40.379 25.8376L48.2851 30.3785C48.8655 30.716 49.3468 31.2002 49.6809 31.7826C50.0149 32.365 50.1899 33.025 50.1883 33.6964V41.8432Z" fill="#FF7E45"></path>
  <path d="M47.5122 31.7264L39.6061 27.1848C39.2812 27.0015 38.9145 26.9053 38.5416 26.9053C38.1686 26.9053 37.8019 27.0015 37.477 27.1848L29.5693 31.7264C29.2261 31.9278 28.9418 32.2159 28.7448 32.5618C28.5479 32.9076 28.4453 33.2991 28.4473 33.6971V41.844C28.4454 42.2421 28.5482 42.6337 28.7454 42.9796C28.9426 43.3255 29.2273 43.6135 29.5709 43.8147L37.477 48.3563C37.8007 48.543 38.1678 48.6413 38.5416 48.6413C38.9153 48.6413 39.2824 48.543 39.6061 48.3563L47.5138 43.8147C47.857 43.6132 48.1413 43.3252 48.3383 42.9793C48.5352 42.6334 48.6378 42.2419 48.6358 41.844V33.6971C48.6377 33.299 48.5349 32.9073 48.3377 32.5614C48.1405 32.2155 47.8558 31.9276 47.5122 31.7264ZM47.0828 41.844C47.0846 41.9684 47.0539 42.0912 46.9937 42.2001C46.9335 42.3091 46.846 42.4004 46.7396 42.4651L38.8327 47.0107C38.7441 47.0614 38.6437 47.0881 38.5416 47.0881C38.4394 47.0881 38.339 47.0614 38.2504 47.0107L30.3442 42.4682C30.2377 42.4037 30.1499 42.3124 30.0896 42.2034C30.0293 42.0945 29.9985 41.9716 30.0003 41.8471V33.6971C29.9985 33.5727 30.0292 33.4499 30.0894 33.3409C30.1496 33.232 30.2371 33.1406 30.3435 33.0759L38.2504 28.5304C38.3386 28.4785 38.4392 28.4512 38.5416 28.4512C38.6439 28.4512 38.7445 28.4785 38.8327 28.5304L46.7389 33.0728C46.8454 33.1374 46.9332 33.2287 46.9935 33.3376C47.0538 33.4466 47.0846 33.5695 47.0828 33.694V41.844Z" fill="#FF7E45"></path>
</svg>
