<?xml version="1.0" encoding="UTF-8"?>
<svg xmlns="http://www.w3.org/2000/svg" width="49" height="49" viewBox="0 0 49 49" fill="none">
  <path fill-rule="evenodd" clip-rule="evenodd" d="M17.9391 18.7354H12.6286C11.4553 18.7367 10.3305 19.2034 9.50083 20.0331C8.6712 20.8628 8.2045 21.9877 8.20312 23.161V24.9313C8.20389 25.6354 8.48389 26.3103 8.98169 26.8081C9.47948 27.306 10.1544 27.586 10.8584 27.5867H19.7093C20.4133 27.586 21.0883 27.306 21.586 26.8081C22.0838 26.3103 22.3638 25.6354 22.3646 24.9313V23.161C22.3632 21.9877 21.8965 20.8628 21.0669 20.0331C20.2373 19.2034 19.1124 18.7367 17.9391 18.7354Z" fill="#8CE7F2" fill-opacity="0.45"></path>
  <ellipse cx="14.788" cy="11.7228" rx="4.21573" ry="4.21595" fill="#8CE7F2" fill-opacity="0.45"></ellipse>
  <path fill-rule="evenodd" clip-rule="evenodd" d="M39.9391 33.7354H34.6286C33.4553 33.7367 32.3305 34.2034 31.5008 35.0331C30.6712 35.8628 30.2045 36.9877 30.2031 38.161V39.9313C30.2039 40.6354 30.4839 41.3103 30.9817 41.8081C31.4795 42.306 32.1544 42.586 32.8584 42.5867H41.7093C42.4133 42.586 43.0883 42.306 43.586 41.8081C44.0838 41.3103 44.3638 40.6354 44.3646 39.9313V38.161C44.3632 36.9877 43.8965 35.8628 43.0669 35.0331C42.2373 34.2034 41.1124 33.7367 39.9391 33.7354Z" fill="#8CE7F2" fill-opacity="0.45"></path>
  <ellipse cx="36.788" cy="26.7228" rx="4.21573" ry="4.21595" fill="#8CE7F2" fill-opacity="0.45"></ellipse>
  <path d="M21.0273 11.5938C24.0963 11.2123 31.0207 12.036 34.1672 18.3829" stroke="#1BAEBF" stroke-width="2" stroke-linecap="round"></path>
  <path d="M9.52936 30.3464C10.95 33.0933 15.5448 38.3387 22.5588 37.345" stroke="#1BAEBF" stroke-width="2" stroke-linecap="round"></path>
  <path d="M7.91016 10.6172C7.91016 12.8263 9.70102 14.6172 11.9102 14.6172C14.1193 14.6172 15.9102 12.8263 15.9102 10.6172C15.9102 8.40805 14.1193 6.61719 11.9102 6.61719" stroke="#1BAEBF" stroke-width="2" stroke-linecap="round"></path>
  <path d="M4.91016 21.6172C4.91016 19.9603 6.2533 18.6172 7.91016 18.6172H15.9102C17.567 18.6172 18.9102 19.9603 18.9102 21.6172V23.6172C18.9102 24.7218 18.0147 25.6172 16.9102 25.6172H6.91016C5.80559 25.6172 4.91016 24.7218 4.91016 23.6172V21.6172Z" stroke="#1BAEBF" stroke-width="2" stroke-linecap="round"></path>
  <path d="M29.9102 25.6172C29.9102 27.8263 31.701 29.6172 33.9102 29.6172C36.1193 29.6172 37.9102 27.8263 37.9102 25.6172C37.9102 23.408 36.1193 21.6172 33.9102 21.6172" stroke="#1BAEBF" stroke-width="2" stroke-linecap="round"></path>
  <path d="M26.9102 36.6172C26.9102 34.9603 28.2533 33.6172 29.9102 33.6172H37.9102C39.567 33.6172 40.9102 34.9603 40.9102 36.6172V38.6172C40.9102 39.7218 40.0147 40.6172 38.9102 40.6172H28.9102C27.8056 40.6172 26.9102 39.7218 26.9102 38.6172V36.6172Z" stroke="#1BAEBF" stroke-width="2" stroke-linecap="round"></path>
</svg>
