<?xml version="1.0" encoding="UTF-8"?>
<svg xmlns="http://www.w3.org/2000/svg" width="60" height="60" viewBox="0 0 60 60" fill="none">
  <circle cx="31.6645" cy="39.986" r="14.9799" fill="#FFE9C9"></circle>
  <path d="M26.975 21.7191C23.9599 21.9444 21.1992 22.9833 18.6927 24.8213C17.959 25.3589 16.2589 27.0154 15.9029 27.5385C15.4888 28.1415 15.5978 28.9116 16.1427 29.2748C16.7166 29.6599 17.2906 29.5582 17.8137 28.9842C19.55 27.0662 20.618 26.2308 22.427 25.3735C26.2121 23.579 30.2661 23.6444 34.1166 25.5696C35.3298 26.1799 35.6277 26.3615 36.3905 26.9791C40.212 30.0812 41.9629 34.9634 40.9894 39.7946C40.6552 41.4656 39.9577 43.1075 38.9406 44.6405C38.3957 45.4687 38.3521 45.5631 38.3521 45.9118C38.3521 46.3405 38.4902 46.5875 38.897 46.8636C39.2094 47.0815 39.7688 47.0597 40.1103 46.82C40.4372 46.5802 41.3018 45.2435 41.8975 44.0447C43.9608 39.8818 44.0625 35.1159 42.1808 30.8586C41.9992 30.459 41.8466 30.0812 41.8321 30.0159C41.7885 29.8052 41.0402 28.621 40.4881 27.8727C39.8415 27.0081 38.4248 25.5696 37.6184 24.9594C34.458 22.5764 30.7165 21.4358 26.975 21.7191Z" fill="#FFB444"></path>
  <path d="M26.5822 26.5431C25.9574 26.6957 25.7612 26.8773 24.6569 28.3521C21.2859 32.8492 20.5013 33.8518 20.3124 33.9535C20.1453 34.0334 19.6004 34.0552 17.3119 34.0552H14.5149L14.0935 34.2514C13.861 34.3603 13.505 34.6219 13.2871 34.8326C12.5896 35.5373 12.4152 36.3873 12.5823 38.3125C12.8584 41.4874 13.999 44.328 15.9824 46.8054C16.4982 47.452 17.7406 48.6798 18.4017 49.2101C18.9974 49.6751 20.1889 50.467 20.5158 50.605C20.6539 50.6632 21.1261 50.8811 21.562 51.0845C25.8557 53.0534 30.5707 52.9952 34.9298 50.9174C35.9978 50.4016 36.3828 50.111 36.4991 49.7114C36.7098 48.9995 36.1576 48.2584 35.4093 48.2584C35.2931 48.2584 34.7264 48.4909 34.1524 48.767C31.8058 49.9149 29.5609 50.3726 27.0108 50.2055C23.4073 49.973 19.8184 47.9969 17.5299 44.9891C16.5999 43.7686 15.4956 41.2549 15.176 39.6493C14.9144 38.3416 14.8273 36.6488 15.0089 36.5035C15.0743 36.4527 15.9679 36.4091 17.5735 36.38C18.9248 36.351 20.218 36.3001 20.4359 36.2565C20.9517 36.1621 21.6274 35.8424 22.0052 35.5155C22.1723 35.3702 22.4847 35.0215 22.6954 34.7309C22.9061 34.4402 23.9958 32.9872 25.1146 31.5124C26.2335 30.0303 27.1561 28.8171 27.1634 28.8025C27.207 28.7299 27.6284 29.0278 27.6647 29.1585C27.7809 29.5218 27.4685 30.9748 26.9745 32.3479C26.5459 33.5466 26.5967 34.0697 27.1997 34.6582C27.6284 35.0723 27.8827 35.1086 30.6289 35.1086H33.0917L33.3387 35.3556C33.6584 35.6753 33.6584 35.7262 33.3315 38.1672C33.1934 39.2207 33.0118 40.6228 32.9319 41.2839C32.7648 42.6062 32.6122 43.013 32.1545 43.3618C31.6314 43.7541 31.5588 43.7613 28.0207 43.7395C24.7805 43.7177 24.7587 43.7177 24.3228 43.5434C23.9159 43.3836 23.4291 43.0857 22.9569 42.7152C22.7608 42.5626 22.6954 42.5553 21.1406 42.5553C19.5714 42.5553 19.5205 42.5626 19.288 42.7224C18.6342 43.1947 18.6632 44.1464 19.3462 44.6041C19.5714 44.7639 19.6658 44.7712 20.7411 44.7712C21.8962 44.7712 21.8962 44.7712 22.2013 44.9819C22.6736 45.3015 23.3492 45.6212 23.9377 45.8028C24.4463 45.9554 24.5916 45.9627 28.0062 45.9917C31.0938 46.0135 31.5951 45.999 32.002 45.8973C33.3969 45.534 34.523 44.4588 34.9225 43.1075C34.9879 42.8895 35.1187 42.054 35.2204 41.2549C35.3221 40.4485 35.5038 39.0608 35.6273 38.16C35.8888 36.2129 35.9033 35.5082 35.7072 34.9779C35.3657 34.077 34.8499 33.5103 34.0362 33.1253L33.5494 32.8928L31.3844 32.871C29.3793 32.8492 29.2194 32.8419 29.263 32.7257C29.4083 32.3479 29.757 30.9821 29.8588 30.3936C30.1276 28.788 29.7643 27.7273 28.7036 27.0371C28.0134 26.594 27.1707 26.3978 26.5822 26.5431Z" fill="#FFB444"></path>
  <path d="M9.79303 13.3339C10.0363 12.8864 10.6787 12.8864 10.9219 13.3339L12.7012 16.608C12.7934 16.7777 12.9572 16.8969 13.147 16.9326L16.8032 17.6197C17.3023 17.7135 17.5004 18.322 17.1522 18.6916L14.5941 21.4069C14.4621 21.547 14.3999 21.7389 14.4246 21.9298L14.9034 25.6332C14.9687 26.1378 14.4493 26.5144 13.99 26.2956L10.6338 24.6967C10.459 24.6135 10.256 24.6135 10.0812 24.6967L6.72495 26.2956C6.26562 26.5144 5.74631 26.1378 5.81155 25.6332L6.29041 21.9298C6.31509 21.7389 6.25288 21.547 6.12089 21.4069L3.56278 18.6916C3.21455 18.322 3.41264 17.7135 3.91173 17.6197L7.56796 16.9326C7.75781 16.8969 7.92153 16.7777 8.01376 16.608L9.79303 13.3339Z" fill="#FFE9C9"></path>
  <path d="M8.50474 11.7102C8.12078 11.7791 7.78365 11.9608 7.54641 12.2302C7.4434 12.343 7.24362 12.7189 6.76601 13.6838C6.18228 14.8679 6.12297 14.9995 6.12609 15.1436C6.12609 15.4568 6.3883 15.6886 6.6911 15.6448C6.97204 15.6072 6.99077 15.5821 7.66503 14.2038C8.13015 13.2514 8.30496 12.9257 8.383 12.863C8.61712 12.6656 8.98234 12.6813 9.18212 12.9006C9.24768 12.9726 9.44746 13.3517 10.1155 14.6611C10.6742 15.7544 10.8085 15.886 11.5015 16.0019C11.6919 16.0332 11.8979 16.0739 11.9635 16.0927C12.0321 16.1115 12.5691 16.1961 13.1622 16.2838C13.7553 16.3684 14.2922 16.4561 14.3577 16.4718C14.5169 16.5188 14.6761 16.666 14.7417 16.832C14.7823 16.9385 14.7885 17.0169 14.7698 17.1829L14.7479 17.3959L13.6616 18.4923C12.5004 19.6671 12.4504 19.7266 12.3818 20.0962C12.3537 20.256 12.3599 20.3625 12.4161 20.7384C12.5097 21.3869 12.5316 21.4777 12.6003 21.578C12.6908 21.7064 12.8594 21.7753 13.0373 21.7596C13.2246 21.7408 13.3526 21.65 13.4275 21.4808C13.4868 21.3524 13.4868 21.3461 13.4181 20.8606C13.3775 20.5912 13.3494 20.3312 13.3494 20.2779C13.3494 20.1996 13.5024 20.0304 14.4202 19.1032C15.4035 18.1133 15.5033 18.0036 15.6064 17.7906C15.6719 17.6653 15.7219 17.5431 15.7219 17.5181C15.7219 17.4961 15.7375 17.4742 15.7531 17.468C15.8155 17.4492 15.828 16.9135 15.7718 16.6785C15.6376 16.1084 15.1756 15.6166 14.6449 15.4725C14.5762 15.4568 13.8458 15.3409 13.0217 15.2187C12.1976 15.0966 11.4921 14.9838 11.4546 14.9681C11.4016 14.9462 11.2174 14.6016 10.746 13.6618C10.0593 12.2835 9.98749 12.1707 9.65348 11.9545C9.33508 11.7478 8.85436 11.6475 8.50474 11.7102Z" fill="#FFB444"></path>
  <path d="M3.68729 15.359C2.90377 15.4905 2.82573 15.5093 2.59161 15.6252C2.03597 15.8978 1.70508 16.4428 1.70508 17.0819C1.7082 17.3889 1.74254 17.5518 1.8674 17.8181C1.95168 17.9998 2.08279 18.1407 3.03175 19.1024C3.62173 19.6976 4.11495 20.2114 4.13368 20.249C4.15865 20.296 4.15241 20.415 4.1087 20.7032C3.90268 22.0126 3.7029 23.4254 3.7029 23.5476C3.70602 23.9455 3.89019 24.3715 4.19923 24.6816C4.48642 24.9698 4.79857 25.1202 5.20438 25.1672C5.39168 25.1891 5.82558 25.1296 5.82558 25.0826C5.82558 25.0669 5.84431 25.0544 5.86616 25.0544C5.88489 25.0544 6.51857 24.738 7.27087 24.3496C8.25417 23.8421 8.66935 23.6447 8.74426 23.6447C8.81606 23.6447 9.03769 23.7418 9.43726 23.9486C9.75878 24.1146 10.0522 24.2744 10.0865 24.3026C10.1209 24.3308 10.3956 24.478 10.6953 24.6315C10.9949 24.7819 11.2571 24.9197 11.2759 24.9322C11.2946 24.9479 11.407 24.9949 11.5256 25.0419C11.7129 25.1108 11.7847 25.1233 12.0656 25.1202C12.4621 25.1139 12.6119 25.0795 12.896 24.9322C13.4454 24.6472 13.7856 24.0488 13.7482 23.438C13.7294 23.1592 13.6452 23.0057 13.461 22.9211C13.2987 22.849 13.2113 22.849 13.0489 22.9211C12.8554 23.0088 12.7805 23.156 12.7742 23.4505C12.7711 23.745 12.6993 23.9016 12.5089 24.0363C12.3872 24.1209 12.3528 24.1303 12.1374 24.1303L11.8971 24.1272L10.586 23.4474C9.86492 23.0746 9.20626 22.7457 9.12198 22.7175C9.0096 22.6799 8.8941 22.6705 8.67247 22.6799L8.3728 22.6924L7.09919 23.3409C6.39995 23.698 5.82558 23.9831 5.82558 23.9737C5.82558 23.9643 5.76002 23.9925 5.67886 24.0363C5.59458 24.0802 5.48532 24.124 5.43226 24.1334C5.18877 24.1773 4.87661 23.9831 4.77672 23.7199C4.71429 23.557 4.7018 23.6949 4.96402 21.9218C5.0764 21.1731 5.17004 20.5027 5.17317 20.4338C5.17941 20.2521 5.11385 19.9576 5.02333 19.7759C4.97026 19.6694 4.76424 19.4376 4.37092 19.0398C4.05564 18.7203 3.79654 18.4446 3.79654 18.4289C3.79654 18.4101 3.57803 18.1783 3.30958 17.912C3.04112 17.6458 2.80388 17.3826 2.77891 17.3262C2.72584 17.2072 2.72272 16.9785 2.76954 16.8563C2.81012 16.7467 2.94123 16.6057 3.05673 16.5431C3.10667 16.518 3.49999 16.4428 3.93077 16.3739C4.82979 16.233 4.87974 16.2173 4.98899 16.1014C5.10449 15.9792 5.13883 15.8978 5.13883 15.7505C5.13883 15.4655 4.95465 15.2587 4.68308 15.2336C4.58943 15.2274 4.19923 15.2744 3.68729 15.359Z" fill="#FFB444"></path>
  <path d="M29.7667 6.67622C30.0099 6.22867 30.6523 6.22867 30.8956 6.67623L32.6748 9.95025C32.7671 10.12 32.9308 10.2392 33.1206 10.2749L36.7769 10.962C37.276 11.0558 37.474 11.6642 37.1258 12.0339L34.5677 14.7492C34.4357 14.8893 34.3735 15.0812 34.3982 15.2721L34.877 18.9755C34.9423 19.4801 34.423 19.8567 33.9636 19.6378L30.6074 18.039C30.4326 17.9558 30.2296 17.9558 30.0548 18.039L26.6986 19.6378C26.2393 19.8567 25.7199 19.4801 25.7852 18.9755L26.264 15.2721C26.2887 15.0812 26.2265 14.8893 26.0945 14.7492L23.5364 12.0339C23.1882 11.6642 23.3863 11.0558 23.8854 10.962L27.5416 10.2749C27.7314 10.2392 27.8952 10.12 27.9874 9.95025L29.7667 6.67622Z" fill="#FFE9C9"></path>
  <path d="M28.4784 5.05236C28.0944 5.12128 27.7573 5.30297 27.52 5.57238C27.417 5.68515 27.2172 6.06107 26.7396 7.02591C26.1559 8.21004 26.0966 8.34161 26.0997 8.48571C26.0997 8.79898 26.3619 9.03079 26.6647 8.98693C26.9457 8.94934 26.9644 8.92428 27.6387 7.54593C28.1038 6.59361 28.2786 6.26782 28.3566 6.20517C28.5907 6.00781 28.956 6.02347 29.1558 6.24276C29.2213 6.31481 29.4211 6.69386 30.0891 8.00329C30.6479 9.09658 30.7821 9.22815 31.4751 9.34405C31.6655 9.37538 31.8715 9.4161 31.9371 9.4349C32.0058 9.45369 32.5427 9.53827 33.1358 9.62599C33.7289 9.71057 34.2658 9.79828 34.3314 9.81395C34.4906 9.86093 34.6498 10.0082 34.7153 10.1742C34.7559 10.2807 34.7621 10.359 34.7434 10.5251L34.7216 10.7381L33.6352 11.8345C32.474 13.0092 32.4241 13.0687 32.3554 13.4384C32.3273 13.5982 32.3335 13.7047 32.3897 14.0806C32.4834 14.729 32.5052 14.8199 32.5739 14.9201C32.6644 15.0486 32.833 15.1175 33.0109 15.1018C33.1982 15.083 33.3262 14.9922 33.4011 14.823C33.4604 14.6946 33.4604 14.6883 33.3918 14.2027C33.3512 13.9333 33.3231 13.6733 33.3231 13.6201C33.3231 13.5418 33.476 13.3726 34.3938 12.4453C35.3771 11.4554 35.477 11.3458 35.58 11.1328C35.6455 11.0075 35.6955 10.8853 35.6955 10.8602C35.6955 10.8383 35.7111 10.8164 35.7267 10.8101C35.7891 10.7913 35.8016 10.2556 35.7454 10.0207C35.6112 9.45056 35.1492 8.95874 34.6185 8.81464C34.5499 8.79898 33.8194 8.68307 32.9953 8.5609C32.1712 8.43872 31.4657 8.32595 31.4283 8.31029C31.3752 8.28836 31.191 7.94377 30.7197 7.00399C30.0329 5.62563 29.9611 5.51286 29.6271 5.29671C29.3087 5.08995 28.828 4.98971 28.4784 5.05236Z" fill="#FFB444"></path>
  <path d="M23.6609 8.70124C22.8774 8.83281 22.7994 8.8516 22.5652 8.96751C22.0096 9.24005 21.6787 9.78512 21.6787 10.4242C21.6818 10.7312 21.7162 10.8941 21.841 11.1603C21.9253 11.342 22.0564 11.483 23.0054 12.4447C23.5954 13.0399 24.0886 13.5537 24.1073 13.5913C24.1323 13.6382 24.126 13.7573 24.0823 14.0455C23.8763 15.3549 23.6765 16.7677 23.6765 16.8899C23.6797 17.2877 23.8638 17.7138 24.1729 18.0239C24.46 18.3121 24.7722 18.4625 25.178 18.5095C25.3653 18.5314 25.7992 18.4719 25.7992 18.4249C25.7992 18.4092 25.8179 18.3967 25.8398 18.3967C25.8585 18.3967 26.4922 18.0803 27.2445 17.6919C28.2278 17.1844 28.643 16.987 28.7179 16.987C28.7897 16.987 29.0113 17.0841 29.4109 17.2909C29.7324 17.4569 30.0258 17.6167 30.0602 17.6449C30.0945 17.6731 30.3692 17.8203 30.6689 17.9738C30.9686 18.1242 31.2308 18.262 31.2495 18.2745C31.2682 18.2902 31.3806 18.3372 31.4992 18.3842C31.6865 18.4531 31.7583 18.4656 32.0393 18.4625C32.4357 18.4562 32.5855 18.4218 32.8696 18.2745C33.419 17.9895 33.7593 17.3911 33.7218 16.7803C33.7031 16.5015 33.6188 16.348 33.4346 16.2634C33.2723 16.1913 33.1849 16.1913 33.0226 16.2634C32.829 16.3511 32.7541 16.4983 32.7479 16.7928C32.7447 17.0873 32.673 17.2439 32.4825 17.3786C32.3608 17.4632 32.3265 17.4726 32.1111 17.4726L31.8707 17.4694L30.5596 16.7897C29.8385 16.4169 29.1799 16.088 29.0956 16.0598C28.9832 16.0222 28.8677 16.0128 28.6461 16.0222L28.3464 16.0347L27.0728 16.6832C26.3736 17.0403 25.7992 17.3253 25.7992 17.3159C25.7992 17.3065 25.7337 17.3347 25.6525 17.3786C25.5682 17.4225 25.459 17.4663 25.4059 17.4757C25.1624 17.5196 24.8502 17.3253 24.7504 17.0622C24.6879 16.8993 24.6754 17.0371 24.9377 15.2641C25.05 14.5154 25.1437 13.845 25.1468 13.7761C25.153 13.5944 25.0875 13.2999 24.997 13.1182C24.9439 13.0117 24.7379 12.7799 24.3445 12.3821C24.0293 12.0625 23.7702 11.7869 23.7702 11.7712C23.7702 11.7524 23.5517 11.5206 23.2832 11.2543C23.0148 10.9881 22.7775 10.7249 22.7525 10.6685C22.6995 10.5495 22.6963 10.3208 22.7432 10.1986C22.7838 10.089 22.9149 9.94802 23.0304 9.88537C23.0803 9.86031 23.4736 9.78512 23.9044 9.71621C24.8034 9.57524 24.8534 9.55958 24.9626 9.44367C25.0781 9.3215 25.1125 9.24005 25.1125 9.09282C25.1125 8.80775 24.9283 8.60099 24.6567 8.57593C24.5631 8.56967 24.1729 8.61666 23.6609 8.70124Z" fill="#FFB444"></path>
  <path d="M49.7393 13.3339C49.9825 12.8864 50.625 12.8864 50.8682 13.3339L52.6475 16.608C52.7397 16.7777 52.9034 16.8969 53.0933 16.9326L56.7495 17.6197C57.2486 17.7135 57.4467 18.322 57.0985 18.6916L54.5404 21.4069C54.4084 21.547 54.3462 21.7389 54.3708 21.9298L54.8497 25.6332C54.9149 26.1378 54.3956 26.5144 53.9363 26.2956L50.5801 24.6967C50.4053 24.6135 50.2023 24.6135 50.0275 24.6967L46.6712 26.2956C46.2119 26.5144 45.6926 26.1378 45.7578 25.6332L46.2367 21.9298C46.2614 21.7389 46.1992 21.547 46.0672 21.4069L43.5091 18.6916C43.1608 18.322 43.3589 17.7135 43.858 17.6197L47.5143 16.9326C47.7041 16.8969 47.8678 16.7777 47.9601 16.608L49.7393 13.3339Z" fill="#FFE9C9"></path>
  <path d="M48.451 11.7102C48.0671 11.7791 47.7299 11.9608 47.4927 12.2302C47.3897 12.343 47.1899 12.7189 46.7123 13.6838C46.1286 14.8679 46.0693 14.9995 46.0724 15.1436C46.0724 15.4568 46.3346 15.6886 46.6374 15.6448C46.9183 15.6072 46.9371 15.5821 47.6113 14.2038C48.0764 13.2514 48.2512 12.9257 48.3293 12.863C48.5634 12.6656 48.9286 12.6813 49.1284 12.9006C49.194 12.9726 49.3937 13.3517 50.0618 14.6611C50.6205 15.7544 50.7548 15.886 51.4478 16.0019C51.6382 16.0332 51.8442 16.0739 51.9098 16.0927C51.9784 16.1115 52.5153 16.1961 53.1084 16.2838C53.7015 16.3684 54.2385 16.4561 54.304 16.4718C54.4632 16.5188 54.6224 16.666 54.688 16.832C54.7285 16.9385 54.7348 17.0169 54.7161 17.1829L54.6942 17.3959L53.6079 18.4923C52.4467 19.6671 52.3967 19.7266 52.328 20.0962C52.3 20.256 52.3062 20.3625 52.3624 20.7384C52.456 21.3869 52.4779 21.4777 52.5466 21.578C52.6371 21.7064 52.8056 21.7753 52.9836 21.7596C53.1709 21.7408 53.2989 21.65 53.3738 21.4808C53.4331 21.3524 53.4331 21.3461 53.3644 20.8606C53.3238 20.5912 53.2957 20.3312 53.2957 20.2779C53.2957 20.1996 53.4487 20.0304 54.3664 19.1032C55.3497 18.1133 55.4496 18.0036 55.5526 17.7906C55.6182 17.6653 55.6681 17.5431 55.6681 17.5181C55.6681 17.4961 55.6838 17.4742 55.6994 17.468C55.7618 17.4492 55.7743 16.9135 55.7181 16.6785C55.5839 16.1084 55.1219 15.6166 54.5912 15.4725C54.5225 15.4568 53.7921 15.3409 52.968 15.2187C52.1439 15.0966 51.4384 14.9838 51.4009 14.9681C51.3479 14.9462 51.1637 14.6016 50.6923 13.6618C50.0056 12.2835 49.9338 12.1707 49.5998 11.9545C49.2814 11.7478 48.8006 11.6475 48.451 11.7102Z" fill="#FFB444"></path>
  <path d="M43.6336 15.359C42.8501 15.4905 42.772 15.5093 42.5379 15.6252C41.9823 15.8978 41.6514 16.4428 41.6514 17.0819C41.6545 17.3889 41.6888 17.5518 41.8137 17.8181C41.898 17.9998 42.0291 18.1407 42.978 19.1024C43.568 19.6976 44.0612 20.2114 44.08 20.249C44.1049 20.296 44.0987 20.415 44.055 20.7032C43.849 22.0126 43.6492 23.4254 43.6492 23.5476C43.6523 23.9455 43.8365 24.3715 44.1455 24.6816C44.4327 24.9698 44.7449 25.1202 45.1507 25.1672C45.338 25.1891 45.7719 25.1296 45.7719 25.0826C45.7719 25.0669 45.7906 25.0544 45.8124 25.0544C45.8312 25.0544 46.4649 24.738 47.2172 24.3496C48.2005 23.8421 48.6156 23.6447 48.6906 23.6447C48.7624 23.6447 48.984 23.7418 49.3835 23.9486C49.7051 24.1146 49.9985 24.2744 50.0328 24.3026C50.0672 24.3308 50.3419 24.478 50.6415 24.6315C50.9412 24.7819 51.2034 24.9197 51.2222 24.9322C51.2409 24.9479 51.3533 24.9949 51.4719 25.0419C51.6592 25.1108 51.731 25.1233 52.0119 25.1202C52.4084 25.1139 52.5582 25.0795 52.8423 24.9322C53.3917 24.6472 53.7319 24.0488 53.6945 23.438C53.6757 23.1592 53.5915 23.0057 53.4073 22.9211C53.245 22.849 53.1575 22.849 52.9952 22.9211C52.8017 23.0088 52.7268 23.156 52.7205 23.4505C52.7174 23.745 52.6456 23.9016 52.4552 24.0363C52.3334 24.1209 52.2991 24.1303 52.0837 24.1303L51.8434 24.1272L50.5323 23.4474C49.8112 23.0746 49.1525 22.7457 49.0683 22.7175C48.9559 22.6799 48.8404 22.6705 48.6188 22.6799L48.3191 22.6924L47.0455 23.3409C46.3462 23.698 45.7719 23.9831 45.7719 23.9737C45.7719 23.9643 45.7063 23.9925 45.6252 24.0363C45.5409 24.0802 45.4316 24.124 45.3785 24.1334C45.1351 24.1773 44.8229 23.9831 44.723 23.7199C44.6606 23.557 44.6481 23.6949 44.9103 21.9218C45.0227 21.1731 45.1163 20.5027 45.1195 20.4338C45.1257 20.2521 45.0601 19.9576 44.9696 19.7759C44.9166 19.6694 44.7105 19.4376 44.3172 19.0398C44.0019 18.7203 43.7428 18.4446 43.7428 18.4289C43.7428 18.4101 43.5243 18.1783 43.2559 17.912C42.9874 17.6458 42.7502 17.3826 42.7252 17.3262C42.6721 17.2072 42.669 16.9785 42.7158 16.8563C42.7564 16.7467 42.8875 16.6057 43.003 16.5431C43.053 16.518 43.4463 16.4428 43.8771 16.3739C44.7761 16.233 44.826 16.2173 44.9353 16.1014C45.0508 15.9792 45.0851 15.8978 45.0851 15.7505C45.0851 15.4655 44.9009 15.2587 44.6294 15.2336C44.5357 15.2274 44.1455 15.2744 43.6336 15.359Z" fill="#FFB444"></path>
</svg>
