<svg width="48" height="49" viewBox="0 0 48 49" fill="none" xmlns="http://www.w3.org/2000/svg">
<path d="M27.6482 25.3024C28.3142 25.5011 28.9491 25.7924 29.534 26.1679C30.1315 26.5607 30.6296 27.0883 30.9892 27.7064C31.3616 28.391 31.5502 29.1604 31.5366 29.9397C31.568 30.9447 31.2685 31.9324 30.6842 32.7508C30.0695 33.5909 29.2257 34.2361 28.2539 34.6089C27.2085 35.0262 26.0893 35.2274 24.9639 35.2001C23.6396 35.2374 22.3261 34.9534 21.1353 34.3724C20.3528 33.9605 19.6809 33.3663 19.1765 32.64C18.6718 31.9416 18.3891 31.1074 18.365 30.2462C18.365 29.8591 18.5188 29.4877 18.7925 29.2141C19.0662 28.9402 19.4375 28.7865 19.8246 28.7865C20.2117 28.7865 20.583 28.9402 20.8567 29.2141C21.1304 29.4877 21.2842 29.8591 21.2842 30.2462C21.3142 30.513 21.4161 30.7668 21.5791 30.9804C21.8112 31.3139 22.1195 31.5877 22.4782 31.7788C23.2551 32.1416 24.1072 32.3137 24.9639 32.2809C25.7047 32.305 26.4429 32.18 27.1344 31.9131C27.5984 31.7463 28.0046 31.45 28.3049 31.0592C28.5274 30.7488 28.6376 30.3719 28.6173 29.9907C28.6326 29.6962 28.5734 29.4024 28.4452 29.1368C28.3124 28.9192 28.1312 28.7353 27.9154 28.5997C27.5691 28.3816 27.1944 28.2125 26.8016 28.0976C26.4819 27.9998 26.133 27.9049 25.7711 27.8115L25.7449 27.8086C25.7286 27.8033 25.706 27.7977 25.686 27.7929C25.6789 27.7913 25.6721 27.7897 25.666 27.7881C25.4295 27.7283 25.1931 27.6684 24.9406 27.6129C24.2954 27.4743 23.8487 27.362 23.5685 27.2772C23.5622 27.2756 23.5567 27.2719 23.5512 27.2681C23.5465 27.2649 23.5417 27.2617 23.5364 27.2597C22.8883 27.1026 22.2511 26.9037 21.6287 26.6643C20.805 26.3338 20.0816 25.7945 19.5298 25.0996C18.9582 24.3493 18.6595 23.4267 18.6832 22.4839C18.6834 21.5369 18.993 20.6158 19.5648 19.8609C20.1618 19.1018 20.9591 18.5244 21.8666 18.1941C22.8701 17.8334 23.9315 17.6603 24.9975 17.6832C25.8362 17.6739 26.6715 17.79 27.476 18.0277C28.1728 18.2309 28.8256 18.562 29.4013 19.0042C29.8993 19.3822 30.3151 19.8581 30.6228 20.4025C30.7152 20.5714 30.7733 20.7568 30.7937 20.9483C30.814 21.1397 30.7964 21.3332 30.7416 21.5178C30.687 21.7023 30.5962 21.8742 30.4747 22.0236C30.3534 22.1729 30.2036 22.2968 30.0341 22.3881C29.8647 22.4793 29.6788 22.5361 29.4872 22.5552C29.2957 22.5744 29.1023 22.5554 28.918 22.4994C28.7339 22.4435 28.5625 22.3517 28.4141 22.2293C28.2655 22.1069 28.1426 21.9563 28.0525 21.7862C27.928 21.5903 27.767 21.4203 27.5781 21.2855C27.286 21.0726 26.9584 20.9134 26.6104 20.8155C26.0857 20.6652 25.5417 20.5934 24.996 20.6024C24.2909 20.5816 23.5877 20.6884 22.9204 20.9177C22.5237 21.0528 22.1709 21.2923 21.8987 21.611C21.7043 21.8599 21.599 22.1667 21.5995 22.4824C21.5756 22.7769 21.6585 23.0702 21.833 23.3085C22.0715 23.6 22.3812 23.8247 22.7322 23.961C23.4131 24.2232 24.1141 24.4301 24.8282 24.58C25.4266 24.7113 25.9113 24.8281 26.32 24.9419C26.7869 25.0571 27.2395 25.1784 27.6482 25.3024Z" fill="#8AA8D3"/>
<path fill-rule="evenodd" clip-rule="evenodd" d="M18.3649 10.1001C13.1928 10.1001 9 14.2929 9 19.465C9 20.9691 9.35558 22.3935 9.98791 23.6554C9.80764 24.6103 9.71351 25.5948 9.71351 26.6001C9.71351 35.3187 16.7814 42.3866 25.5 42.3866C26.5053 42.3866 27.4898 42.2924 28.4447 42.1122C29.7067 42.7446 31.1311 43.1001 32.6351 43.1001C37.8072 43.1001 42 38.9073 42 33.7352C42 32.2311 41.6445 30.8068 41.0121 29.5448C41.1923 28.5899 41.2865 27.6054 41.2865 26.6001C41.2865 17.8815 34.2186 10.8136 25.5 10.8136C24.4947 10.8136 23.5102 10.9077 22.5553 11.088C21.2934 10.4557 19.869 10.1001 18.3649 10.1001Z" fill="#EBF3FF"/>
<path d="M24.6482 21.3024C25.3142 21.5011 25.9491 21.7924 26.534 22.1679C27.1315 22.5607 27.6296 23.0883 27.9892 23.7064C28.3616 24.391 28.5502 25.1604 28.5366 25.9397C28.568 26.9447 28.2685 27.9324 27.6842 28.7508C27.0695 29.5909 26.2257 30.2361 25.2539 30.6089C24.2085 31.0262 23.0893 31.2274 21.9639 31.2001C20.6396 31.2374 19.3261 30.9534 18.1353 30.3724C17.3528 29.9605 16.6809 29.3663 16.1765 28.64C15.6718 27.9416 15.3891 27.1074 15.365 26.2462C15.365 25.8591 15.5188 25.4877 15.7925 25.2141C16.0662 24.9402 16.4375 24.7865 16.8246 24.7865C17.2117 24.7865 17.583 24.9402 17.8567 25.2141C18.1304 25.4877 18.2842 25.8591 18.2842 26.2462C18.3142 26.513 18.4161 26.7668 18.5791 26.9804C18.8112 27.3139 19.1195 27.5877 19.4782 27.7788C20.2551 28.1416 21.1072 28.3137 21.9639 28.2809C22.7047 28.305 23.4429 28.18 24.1344 27.9131C24.5984 27.7463 25.0046 27.45 25.3049 27.0592C25.5274 26.7488 25.6376 26.3719 25.6173 25.9907C25.6326 25.6962 25.5734 25.4024 25.4452 25.1368C25.3124 24.9192 25.1312 24.7353 24.9154 24.5997C24.5691 24.3816 24.1944 24.2125 23.8016 24.0976C23.4819 23.9998 23.133 23.9049 22.7711 23.8115L22.7449 23.8086C22.7286 23.8033 22.706 23.7977 22.686 23.7929C22.6789 23.7913 22.6721 23.7897 22.666 23.7881C22.4295 23.7283 22.1931 23.6684 21.9406 23.6129C21.2954 23.4743 20.8487 23.362 20.5685 23.2772C20.5622 23.2756 20.5567 23.2719 20.5512 23.2681C20.5465 23.2649 20.5417 23.2617 20.5364 23.2597C19.8883 23.1026 19.2511 22.9037 18.6287 22.6643C17.805 22.3338 17.0816 21.7945 16.5298 21.0996C15.9582 20.3493 15.6595 19.4267 15.6832 18.4839C15.6834 17.5369 15.993 16.6158 16.5648 15.8609C17.1618 15.1018 17.9591 14.5244 18.8666 14.1941C19.8701 13.8334 20.9315 13.6603 21.9975 13.6832C22.8362 13.6739 23.6715 13.79 24.476 14.0277C25.1728 14.2309 25.8256 14.562 26.4013 15.0042C26.8993 15.3822 27.3151 15.8581 27.6228 16.4025C27.7152 16.5714 27.7733 16.7568 27.7937 16.9483C27.814 17.1397 27.7964 17.3332 27.7416 17.5178C27.687 17.7023 27.5962 17.8742 27.4747 18.0236C27.3534 18.1729 27.2036 18.2968 27.0341 18.3881C26.8647 18.4793 26.6788 18.5361 26.4872 18.5552C26.2957 18.5744 26.1023 18.5554 25.918 18.4994C25.7339 18.4435 25.5625 18.3517 25.4141 18.2293C25.2655 18.1069 25.1426 17.9563 25.0525 17.7862C24.928 17.5903 24.767 17.4203 24.5781 17.2855C24.286 17.0726 23.9584 16.9134 23.6104 16.8155C23.0857 16.6652 22.5417 16.5934 21.996 16.6024C21.2909 16.5816 20.5877 16.6884 19.9204 16.9177C19.5237 17.0528 19.1709 17.2923 18.8987 17.611C18.7043 17.8599 18.599 18.1667 18.5995 18.4824C18.5756 18.7769 18.6585 19.0702 18.833 19.3085C19.0715 19.6 19.3812 19.8247 19.7322 19.961C20.4131 20.2232 21.1141 20.4301 21.8282 20.58C22.4266 20.7113 22.9113 20.8281 23.32 20.9419C23.7869 21.0571 24.2395 21.1784 24.6482 21.3024Z" fill="#8AA8D3"/>
<path fill-rule="evenodd" clip-rule="evenodd" d="M15.3649 6.1001C10.1928 6.1001 6 10.2929 6 15.465C6 16.9691 6.35558 18.3935 6.98791 19.6554C6.80764 20.6103 6.71351 21.5948 6.71351 22.6001C6.71351 31.3187 13.7814 38.3866 22.5 38.3866C23.5053 38.3866 24.4898 38.2924 25.4447 38.1122C26.7067 38.7446 28.131 39.1001 29.6351 39.1001C34.8072 39.1001 39 34.9073 39 29.7352C39 28.2311 38.6445 26.8068 38.0121 25.5448C38.1923 24.5899 38.2865 23.6054 38.2865 22.6001C38.2865 13.8815 31.2186 6.81361 22.5 6.81361C21.4947 6.81361 20.5102 6.90774 19.5553 7.08801C18.2934 6.45568 16.869 6.1001 15.3649 6.1001ZM8.67568 15.465C8.67568 11.7706 11.6705 8.77577 15.3649 8.77577C16.5759 8.77577 17.708 9.09639 18.6852 9.65645C18.9745 9.82225 19.3152 9.87403 19.6408 9.80168C20.56 9.59733 21.5166 9.48929 22.5 9.48929C29.7409 9.48929 35.6108 15.3592 35.6108 22.6001C35.6108 23.5835 35.5027 24.5401 35.2985 25.4593C35.226 25.7849 35.2778 26.1256 35.4437 26.4149C36.0038 27.3921 36.3243 28.5242 36.3243 29.7352C36.3243 33.4296 33.3295 36.4244 29.6351 36.4244C28.4241 36.4244 27.292 36.1039 26.3148 35.5438C26.0255 35.3779 25.6848 35.3261 25.3592 35.3986C24.44 35.6028 23.4834 35.7109 22.5 35.7109C15.2591 35.7109 9.38919 29.841 9.38919 22.6001C9.38919 21.6167 9.49723 20.6601 9.70158 19.7409C9.77393 19.4153 9.72215 19.0746 9.55635 18.7853C8.99629 17.8081 8.67568 16.676 8.67568 15.465Z" fill="#8AA8D3"/>
</svg>
