<?xml version="1.0" encoding="UTF-8"?>
<svg xmlns="http://www.w3.org/2000/svg" width="60" height="60" viewBox="0 0 60 60" fill="none">
  <ellipse cx="32.4825" cy="25.7399" rx="23.6895" ry="23.6895" fill="#D5E8D5"></ellipse>
  <path fill-rule="evenodd" clip-rule="evenodd" d="M9.48014 6.6364C12.8156 3.58008 17.0502 2.05054 21.2838 2.05054C25.5173 2.05054 29.7519 3.58008 33.0874 6.6364C34.0991 7.5635 34.9779 8.58519 35.7216 9.6765H32.7935C32.3983 9.21561 31.9715 8.77371 31.5132 8.35382C28.6154 5.69844 24.9495 4.37076 21.2838 4.37076C17.618 4.37076 13.9521 5.69844 11.0543 8.35382C5.25859 13.6646 4.4764 22.5035 9.26177 28.74C11.7636 32.151 13.1311 36.2547 13.1311 40.4799C13.1311 40.7892 13.2536 41.0846 13.4724 41.3033C13.6911 41.522 13.9865 41.6445 14.2958 41.6445H28.2717C28.5811 41.6445 28.8764 41.522 29.0952 41.3033C29.3139 41.0846 29.4364 40.7892 29.4364 40.4799C29.4364 36.2547 30.7948 32.144 33.2967 28.7331C35.2425 26.1973 36.2693 23.2323 36.4131 20.2495H38.7327C38.5955 23.5661 37.5169 26.8669 35.4599 29.7226C33.0625 32.8106 31.7657 36.5909 31.7657 40.4799C31.7657 41.4061 31.397 42.2953 30.7421 42.9502C30.0872 43.6051 29.198 43.9738 28.2717 43.9738H14.2958C13.3695 43.9738 12.4803 43.6051 11.8254 42.9502C11.1705 42.2953 10.8018 41.4061 10.8018 40.4799C10.8018 36.5909 9.51869 32.8015 7.12123 29.7136C1.96993 22.562 2.94126 12.6282 9.48014 6.6364ZM13.1311 47.4678C13.1224 46.8255 13.6535 46.3137 14.2958 46.3032C14.9523 46.2929 15.4721 46.8112 15.4604 47.4678V49.7949C15.4606 50.1928 15.5144 50.5806 15.5924 50.9618H22.4484C23.0937 50.9618 23.6131 51.4813 23.6131 52.1265C23.6131 52.7717 23.0937 53.2911 22.4484 53.2911H16.6297C17.0935 53.9093 17.6805 54.4408 18.3721 54.8402C20.1754 55.8816 22.3922 55.8816 24.1954 54.8402C25.998 53.7993 27.1063 51.8792 27.1071 49.7972V48.6325H18.9544C18.3092 48.6325 17.7898 48.1131 17.7898 47.4678C17.7898 46.8226 18.3092 46.3032 18.9544 46.3032H28.2717C28.9283 46.2929 29.4481 46.8112 29.4364 47.4678V49.7972C29.3663 52.6306 27.8225 55.436 25.3601 56.8579C22.8393 58.3136 19.7282 58.3136 17.2074 56.8579C14.7358 55.4306 13.1905 52.643 13.1311 49.7972V47.4678Z" fill="#93BC92"></path>
  <path d="M22.209 23.4632C21.9665 23.4632 21.7236 23.3701 21.5386 23.1856L17.7468 19.3938C17.3761 19.023 17.3761 18.4238 17.7468 18.0535L21.5386 14.2617C21.9093 13.891 22.5086 13.891 22.8789 14.2617C23.2496 14.6324 23.2496 15.2316 22.8789 15.6019L19.7574 18.7234L22.8789 21.8448C23.2496 22.2155 23.2496 22.8148 22.8789 23.1851C22.6939 23.37 22.4519 23.4632 22.209 23.4632Z" fill="#93BC92"></path>
  <path d="M31.6886 23.4627C31.4461 23.4627 31.2032 23.3696 31.0183 23.1851C30.6476 22.8143 30.6476 22.2151 31.0183 21.8448L34.1397 18.7234L31.0183 15.6019C30.6476 15.2312 30.6476 14.632 31.0183 14.2617C31.389 13.891 31.9882 13.891 32.3585 14.2617L36.1503 18.0535C36.5211 18.4242 36.5211 19.0235 36.1503 19.3938L32.3585 23.1856C32.1736 23.3705 31.9315 23.4627 31.6886 23.4627Z" fill="#93BC92"></path>
  <path d="M25.0544 27.2549C24.9778 27.2549 24.9008 27.2456 24.823 27.2265C24.3147 27.0996 24.0066 26.585 24.1327 26.0776L27.9246 10.9103C28.0515 10.4012 28.5682 10.0939 29.0743 10.2201C29.5826 10.347 29.8907 10.8616 29.7646 11.369L25.9728 26.5363C25.8648 26.9675 25.4793 27.2549 25.0544 27.2549Z" fill="#93BC92"></path>
</svg>
