<svg width="29" height="29" viewBox="0 0 29 29" fill="none" xmlns="http://www.w3.org/2000/svg">
<path d="M10.7449 15.7527H19.0173C21.9659 15.7527 23.9317 17.8823 24.4231 20.6671C22.0479 23.7795 18.7716 25.5814 14.8402 25.5814C10.9087 25.5814 7.71437 23.7795 5.33911 20.6671C5.74864 17.8823 7.79628 15.7527 10.7449 15.7527ZM19.0173 17.4728H10.7449C9.02486 17.4728 7.63247 18.6194 7.14103 20.2576C9.10677 22.5509 11.8916 23.8614 14.8402 23.8614C17.8707 23.8614 20.6555 22.5509 22.5393 20.2576C22.1298 18.6194 20.6555 17.4728 19.0173 17.4728Z" fill="#90A0B9"/>
<path d="M14.84 0.600098C22.5391 0.600098 28.8458 6.82492 28.8458 14.524C28.8458 22.2232 22.5391 28.5299 14.84 28.5299C7.14084 28.5299 0.916016 22.2232 0.916016 14.524C0.916016 6.82492 7.14084 0.600098 14.84 0.600098ZM14.84 2.32012C8.12371 2.32012 2.63603 7.80779 2.63603 14.524C2.63603 21.3222 8.12371 26.728 14.84 26.728C21.6381 26.728 27.0439 21.3222 27.0439 14.524C27.0439 7.80779 21.6381 2.32012 14.84 2.32012Z" fill="#90A0B9"/>
<path d="M14.8389 4.7774C17.6237 4.7774 19.7532 6.98886 19.7532 9.69174C19.7532 12.3946 17.6237 14.6061 14.8389 14.6061C12.136 14.6061 9.92456 12.3946 9.92456 9.69174C9.92456 6.98886 12.136 4.7774 14.8389 4.7774ZM14.8389 6.49742C13.1189 6.49742 11.6446 7.97172 11.6446 9.69174C11.6446 11.4937 13.1189 12.8861 14.8389 12.8861C16.6408 12.8861 18.0332 11.4937 18.0332 9.69174C18.0332 7.97172 16.6408 6.49742 14.8389 6.49742Z" fill="#90A0B9"/>
</svg>
