<?xml version="1.0" encoding="UTF-8"?>
<svg xmlns="http://www.w3.org/2000/svg" width="60" height="60" viewBox="0 0 60 60" fill="none">
  <g opacity="0.2">
    <path d="M11.0996 14.5537C11.0996 13.4491 11.995 12.5537 13.0996 12.5537H49.4938V44.1609H11.0996V14.5537Z" fill="#F8BC62"></path>
    <path d="M10.758 43.8752L10.5059 15.3671C10.5068 13.2613 11.2447 12.0205 12.9621 12.0205H19.3537" stroke="#FFE9C9" stroke-width="2" stroke-linecap="round"></path>
    <path d="M49.2381 43.8752L49.4902 15.3671C49.4893 13.2613 48.7514 12.0205 47.034 12.0205H19.3797" stroke="#F8BC62" stroke-width="2" stroke-linecap="round"></path>
    <rect x="4.42383" y="45.1543" width="51.1539" height="6.5907" rx="3.29535" fill="#F8BC62" stroke="#F8BC62" stroke-width="2"></rect>
  </g>
  <rect x="4.42383" y="40.3887" width="51.1539" height="6.5907" rx="3.29535" stroke="#FFB444" stroke-width="2"></rect>
  <path d="M49.242 39.1096L49.4941 10.6015C49.4932 8.49564 48.7553 7.25488 47.0379 7.25488H40.6463" stroke="#FFB444" stroke-width="2" stroke-linecap="round"></path>
  <path d="M10.7619 39.1096L10.5098 10.6015C10.5107 8.49564 11.2486 7.25488 12.966 7.25488H19.3576" stroke="#FFB444" stroke-width="2" stroke-linecap="round"></path>
  <path d="M25.9473 33.7584H26.9633C27.2318 33.7584 27.4495 33.5407 27.4495 33.2722C27.4495 33.0038 27.2318 32.7861 26.9633 32.7861H25.9473C23.8644 32.7861 22.1696 31.0913 22.1696 29.0084V20.8743C22.7225 21.3956 23.4665 21.7156 24.2836 21.7156L37.5654 21.7398C38.7272 21.7436 39.6723 22.6925 39.6723 23.8548V30.6759C39.6723 31.8393 38.7258 32.7861 37.5623 32.7861H29.8805C29.612 32.7861 29.3943 33.0038 29.3943 33.2722C29.3943 33.5407 29.612 33.7584 29.8805 33.7584H37.5623C39.2618 33.7584 40.6447 32.3756 40.6447 30.6759V23.8548C40.6447 22.1581 39.2647 20.7732 37.568 20.7675L24.2846 20.7433C23.1185 20.7433 22.1696 19.7923 22.1696 18.6233C22.1696 18.0574 22.3902 17.5249 22.7904 17.1246C23.1909 16.7242 23.7234 16.5036 24.2893 16.5036H38.8409C39.1094 16.5036 39.3271 16.2859 39.3271 16.0174C39.3271 15.7489 39.1094 15.5312 38.8409 15.5312H24.2893C23.4637 15.5312 22.6872 15.8529 22.1027 16.4369C21.5189 17.0211 21.1973 17.7977 21.1973 18.6233V29.0084C21.1973 31.6276 23.3281 33.7584 25.9473 33.7584Z" fill="#FFB444" stroke="#FFB444" stroke-width="0.7"></path>
  <path d="M37.8154 27.0591C37.8154 26.1209 37.0519 25.3574 36.1138 25.3574C35.1756 25.3574 34.4121 26.1209 34.4121 27.0591C34.4121 27.9973 35.1756 28.7607 36.1138 28.7607C37.0519 28.7607 37.8154 27.9973 37.8154 27.0591ZM35.3845 27.0591C35.3845 26.6569 35.7116 26.3298 36.1138 26.3298C36.5159 26.3298 36.843 26.6569 36.843 27.0591C36.843 27.4612 36.5159 27.7883 36.1138 27.7883C35.7116 27.7883 35.3845 27.4612 35.3845 27.0591Z" fill="#FFB444" stroke="#FFB444" stroke-width="0.7"></path>
</svg>
