<svg width="48" height="48" viewBox="0 0 48 48" fill="none" xmlns="http://www.w3.org/2000/svg">
<ellipse cx="25.5" cy="26" rx="16.5" ry="17" fill="#D5E8D5"/>
<path d="M20.2504 38.5208C18.6975 38.278 17.4458 37.9222 15.9192 37.2894L14.7546 36.8066L11.5584 37.6992C9.80055 38.1901 8.09455 38.5918 7.7673 38.5918C6.55327 38.5918 5.76104 37.7961 5.76503 36.5809C5.7661 36.25 6.22491 34.3411 6.78457 32.339C7.84738 28.5368 8.04143 28.1418 8.84672 28.1418C9.27337 28.1418 9.98209 28.6662 10.113 29.0787C10.1645 29.241 9.80294 30.809 9.30945 32.563C8.81595 34.317 8.45477 35.7946 8.50683 35.8467C8.55889 35.8988 10.059 35.5324 11.8405 35.0325L15.0796 34.1237L16.1608 34.6359C17.5743 35.3054 18.2727 35.5494 19.6171 35.8434C21.0926 36.1661 24.0413 36.1624 25.5314 35.836C31.0785 34.6208 35.3821 30.3154 36.5689 24.7937C36.7065 24.1533 36.8423 22.8483 36.8705 21.8935C36.9195 20.2405 36.942 20.1404 37.3429 19.7956C37.8623 19.3488 38.3698 19.335 38.9012 19.753C39.4456 20.1813 39.5738 21.2697 39.3378 23.4612C38.8949 27.5752 37.3701 30.7554 34.4316 33.6939C31.5443 36.5812 28.341 38.1406 24.3933 38.5808C22.549 38.7865 21.8892 38.7769 20.2504 38.5208ZM24.9212 29.031C21.9857 28.1398 20.5961 27.3154 18.4988 25.2208C16.859 23.5831 15.3877 21.566 14.8082 20.1607C14.2217 18.7385 14.2384 17.1186 14.8512 16.0014C15.5466 14.7334 16.0553 14.3262 17.0407 14.249C17.5856 14.2062 17.9674 14.2566 18.1402 14.394C18.2857 14.5097 18.7386 15.4067 19.1465 16.3873C19.9865 18.4064 19.9858 18.6372 19.1381 19.5755C18.8355 19.9104 18.588 20.3193 18.588 20.484C18.588 20.6488 18.8361 21.1521 19.1395 21.6026C20.2421 23.2398 21.986 24.6845 23.7953 25.4593L24.6484 25.8247L25.1411 25.2706C25.412 24.9659 25.8596 24.4537 26.1356 24.1324C26.7168 23.4561 26.5594 23.4303 29.0808 24.6156C30.786 25.4171 30.8977 25.5648 30.6458 26.6857C30.4568 27.5271 30.1464 28.0048 29.4373 28.5457C28.2188 29.4751 26.8637 29.6207 24.9212 29.031ZM6.44632 24.6574C5.86498 24.4232 5.74807 23.9624 5.74611 21.8975C5.74323 18.8807 6.28175 16.6008 7.5996 14.0503C10.7492 7.95462 17.035 4.52511 24.09 5.0531C26.9378 5.26623 30.3706 6.57704 32.6943 8.33863C34.7598 9.90452 37.2712 12.9764 37.2712 13.937C37.2712 14.7743 36.2929 15.3809 35.4589 15.0608C35.3188 15.007 34.876 14.4559 34.475 13.836C32.6019 10.9405 29.4146 8.70902 25.919 7.8458C23.9757 7.36594 21.1168 7.36594 19.1736 7.8458C13.9352 9.13937 9.87316 13.2018 8.58453 18.4359C8.33631 19.4441 8.23511 20.3766 8.21855 21.8086C8.19226 24.0817 8.12325 24.384 7.57338 24.6345C7.11015 24.8456 6.92273 24.8494 6.44632 24.6574Z" fill="#93BC92"/>
</svg>
