<?xml version="1.0" encoding="UTF-8"?>
<svg xmlns="http://www.w3.org/2000/svg" width="60" height="60" viewBox="0 0 60 60" fill="none">
  <ellipse cx="41.187" cy="30.1549" rx="11.4142" ry="11.2857" fill="#FFE9C9"></ellipse>
  <ellipse cx="15.9162" cy="30.1549" rx="11.4142" ry="11.2857" fill="#FFE9C9"></ellipse>
  <path d="M39.4965 18.0377C40.1777 18.4735 40.3592 18.9298 39.9707 19.487C39.6103 20.002 39.1272 19.9867 38.5943 19.7618C37.9744 19.4998 37.3367 19.2825 36.7181 19.0205C36.0228 18.7266 35.8529 18.3304 36.1264 17.6223C36.3756 16.9769 36.6414 16.3366 36.9417 15.7129C37.1603 15.2567 37.4517 14.8157 38.0741 14.9934C38.6467 15.157 38.9035 15.5749 38.8473 16.1385C39.9975 15.9149 41.103 15.6541 42.2239 15.4918C45.534 15.0138 48.5873 15.7283 51.413 17.5162C53.3083 18.715 54.9698 20.1707 56.1443 22.075C57.8927 24.9084 58.7975 27.9847 58.5061 31.3677C58.3681 32.9729 58.0908 34.5346 57.361 35.9699C55.9641 38.7189 54.1608 41.1562 51.4539 42.7422C48.4863 44.4804 45.2682 45.1973 41.8213 44.7717C40.0397 44.5519 38.3386 44.0867 36.8063 43.1448C34.0342 41.4412 31.6788 39.3132 30.3407 36.2715C29.3425 34.0004 29.0575 31.5849 28.9374 29.1157C28.8747 27.8185 28.5284 26.5034 28.1169 25.2599C26.9896 21.8514 24.569 19.6097 21.3714 18.131C21.0493 17.9827 20.7387 17.8076 20.4116 17.6722C19.784 17.4114 19.4927 16.9386 19.6703 16.4299C19.8633 15.8752 20.3975 15.635 21.048 15.8829C24.2725 17.1124 26.927 19.0921 28.7278 22.061C30.2077 24.5007 30.9465 27.1948 30.9707 30.0602C31.0129 35.0407 33.2725 38.7164 37.4862 41.2725C40.9765 43.3902 44.6087 43.4324 48.3508 42.0802C51.7159 40.8648 53.9755 38.4851 55.4938 35.3142C57.1233 31.9121 56.9393 28.5061 55.5513 25.0874C54.2145 21.7951 51.7568 19.6621 48.5847 18.223C45.6324 16.8836 42.6738 17.074 39.4965 18.0377Z" fill="#FFB444"></path>
  <path d="M20.3979 41.9635C20.178 41.7245 19.9582 41.5942 19.9314 41.4306C19.8751 41.1021 19.8163 40.6944 19.9646 40.4375C20.0911 40.219 20.5538 40.003 20.7851 40.0707C21.7078 40.3378 22.6089 40.6893 23.4945 41.065C23.915 41.2427 24.0684 41.6466 23.892 42.0875C23.561 42.9182 23.2172 43.7464 22.844 44.5592C22.6485 44.9848 22.2203 45.1471 21.8216 44.9848C21.5506 44.8749 21.3577 44.5388 21.1698 44.2755C21.0893 44.163 21.111 43.9777 21.088 43.8358C19.9889 44.0608 18.9102 44.3649 17.8111 44.4915C14.6978 44.848 11.7609 44.3471 9.0284 42.6856C6.85318 41.3628 4.95656 39.7819 3.6044 37.6118C2.3123 35.5375 1.66433 33.246 1.48796 30.819C1.29242 28.1389 1.67711 25.5432 2.98455 23.1814C4.64472 20.1819 6.93369 17.7753 10.1186 16.349C10.6656 16.1036 11.2547 15.9439 11.8363 15.7918C12.3526 15.6563 12.8753 15.995 12.9839 16.4781C13.1002 16.9944 12.8229 17.5069 12.3104 17.6449C9.35686 18.4335 7.19313 20.2764 5.5074 22.7482C3.13535 26.2257 2.8069 29.9729 4.04788 33.931C5.09843 37.2795 7.35289 39.5595 10.3409 41.2555C13.5603 43.0818 16.8781 43.0026 20.3953 41.9648L20.3979 41.9635Z" fill="#FFB444"></path>
  <path d="M16.318 16.9857C15.7749 16.9832 15.403 16.6049 15.4004 16.0515C15.3978 15.5032 15.7749 15.1032 16.3065 15.0929C16.8267 15.0827 17.3136 15.5658 17.2957 16.0732C17.2778 16.5678 16.828 16.9883 16.3193 16.987L16.318 16.9857Z" fill="#FFB444"></path>
  <path d="M22.1642 30.1418C22.1642 33.6213 19.349 36.4892 15.9415 36.4868C12.5772 36.4844 9.67085 33.5469 9.66846 30.149C9.66846 26.7032 12.5148 23.8232 15.9223 23.8232C19.3658 23.8232 22.1618 26.6528 22.1618 30.1418H22.1642ZM18.5816 30.2018C18.596 28.6935 17.3731 27.4226 15.9103 27.4274C14.5219 27.4322 13.2654 28.6887 13.2366 30.1011C13.2078 31.5686 14.4787 32.8683 15.9415 32.8635C17.3731 32.8611 18.5673 31.6573 18.5816 30.2018Z" fill="#FFB444"></path>
  <path d="M47.4348 30.1418C47.4348 33.6213 44.6196 36.4892 41.2121 36.4868C37.8478 36.4844 34.9415 33.5469 34.9391 30.149C34.9391 26.7032 37.7855 23.8232 41.1929 23.8232C44.6364 23.8232 47.4324 26.6528 47.4324 30.1418H47.4348ZM43.8523 30.2018C43.8667 28.6935 42.6437 27.4226 41.181 27.4274C39.7925 27.4322 38.536 28.6887 38.5072 30.1011C38.4785 31.5686 39.7494 32.8683 41.2121 32.8635C42.6437 32.8611 43.8379 31.6573 43.8523 30.2018Z" fill="#FFB444"></path>
</svg>
