<svg width="28" height="29" viewBox="0 0 28 29" fill="none" xmlns="http://www.w3.org/2000/svg">
<path d="M24.6666 19.0001V9.00008L16.3333 4.31274M11.6666 4.31274L3.33325 9.00008V19.0001M5.33325 22.1254L13.9999 27.0001L19.3333 24.0001L22.6666 22.1247M13.9999 10.3334L15.9999 11.5001L17.9999 12.6667V17.3334L15.9999 18.5001L13.9999 19.6667L11.9999 18.5001L9.99992 17.3334V12.6667L11.9999 11.5001L13.9999 10.3334ZM13.9999 10.3334V5.66674M17.9999 17.0001L22.6666 19.6667M9.99992 17.0001L5.33325 19.6667" stroke="#D85D27" stroke-width="2.66667" stroke-linecap="round" stroke-linejoin="round"/>
<path d="M14 5.66675C15.1046 5.66675 16 4.77132 16 3.66675C16 2.56218 15.1046 1.66675 14 1.66675C12.8954 1.66675 12 2.56218 12 3.66675C12 4.77132 12.8954 5.66675 14 5.66675Z" stroke="#D85D27" stroke-width="2.66667" stroke-linecap="round" stroke-linejoin="round"/>
<path d="M3.33325 23C4.43782 23 5.33325 22.1046 5.33325 21C5.33325 19.8954 4.43782 19 3.33325 19C2.22868 19 1.33325 19.8954 1.33325 21C1.33325 22.1046 2.22868 23 3.33325 23Z" stroke="#D85D27" stroke-width="2.66667" stroke-linecap="round" stroke-linejoin="round"/>
<path d="M24.6665 23C25.7711 23 26.6665 22.1046 26.6665 21C26.6665 19.8954 25.7711 19 24.6665 19C23.5619 19 22.6665 19.8954 22.6665 21C22.6665 22.1046 23.5619 23 24.6665 23Z" stroke="#D85D27" stroke-width="2.66667" stroke-linecap="round" stroke-linejoin="round"/>
</svg>
