<?xml version="1.0" encoding="UTF-8"?>
<svg xmlns="http://www.w3.org/2000/svg" width="60" height="60" viewBox="0 0 60 60" fill="none">
  <circle cx="33.5868" cy="33.0809" r="21.756" fill="#DEF3FF"></circle>
  <path d="M11.2089 8.26685L11.6702 14.5829L18.4232 13.2323" stroke="#7FBBDC" stroke-width="2" stroke-linecap="round" stroke-linejoin="round"></path>
  <path d="M6.62874 34.6454C5.98522 34.8178 5.60035 35.4805 5.80533 36.1145C7.27863 40.6706 10.1032 44.6828 13.9171 47.6093C18.0507 50.7811 23.1154 52.5003 28.3257 52.5003C33.5359 52.5003 38.6006 50.7811 42.7342 47.6093C46.8678 44.4375 49.8392 39.9903 51.1878 34.9576C52.5363 29.9249 52.1865 24.5878 50.1926 19.7741C48.1987 14.9605 44.6722 10.9392 40.16 8.33411C35.6477 5.72898 30.402 4.68553 25.2363 5.36561C20.3903 6.0036 15.8688 8.12493 12.2861 11.4267C11.8624 11.8171 11.7655 12.4431 12.0258 12.957L12.0742 13.0526C12.1964 13.2939 12.406 13.4795 12.6603 13.5715C13.0478 13.7118 13.48 13.6135 13.7806 13.3314C17.02 10.2916 21.1356 8.3389 25.5512 7.75757C30.1903 7.14682 34.9014 8.0839 38.9537 10.4235C43.0059 12.7631 46.173 16.3744 47.9636 20.6974C49.7543 25.0204 50.0684 29.8134 48.8574 34.3332C47.6463 38.8529 44.9777 42.8467 41.2655 45.6952C37.5532 48.5437 33.0048 50.0877 28.3257 50.0877C23.6465 50.0877 19.0981 48.5437 15.3858 45.6952C11.9933 43.0921 9.47245 39.5324 8.13905 35.489C7.93041 34.8563 7.27226 34.473 6.62874 34.6454Z" fill="#7FBBDC"></path>
  <path d="M22.705 28.8555C22.2348 28.4146 21.4962 28.4385 21.0554 28.9087C20.6146 29.3789 20.6384 30.1174 21.1086 30.5582L25.7767 34.9346C26.2779 35.4044 27.0744 35.3419 27.4961 34.7997L35.6653 24.2964C36.061 23.7877 35.9694 23.0544 35.4606 22.6587C34.9519 22.263 34.2186 22.3547 33.8229 22.8634L26.4394 32.3565L22.705 28.8555Z" fill="#7FBBDC" stroke="#7FBBDC" stroke-width="0.5"></path>
</svg>
