<?xml version="1.0" encoding="UTF-8"?>
<svg xmlns="http://www.w3.org/2000/svg" width="60" height="60" viewBox="0 0 60 60" fill="none">
  <path d="M14.3059 24.8865C14.3059 23.7819 15.2013 22.8865 16.3059 22.8865H53.4889V52.731H14.3059V24.8865Z" fill="#F4DDDD"></path>
  <path d="M4.27136 50.3904C4.50633 49.9709 4.8608 49.8499 5.32403 49.8636C6.29211 49.8925 7.26018 49.8719 8.29539 49.8719C8.29539 49.6202 8.29539 49.4042 8.29539 49.1869C8.29539 40.1627 8.29539 31.1384 8.29539 22.1142C8.29539 19.8269 9.5884 18.4954 11.8119 18.4927C14.7927 18.4899 17.7748 18.4899 20.7555 18.4954C20.9704 18.4954 21.1973 18.5037 21.3973 18.5711C21.7639 18.6949 21.9129 18.9933 21.8673 19.3798C21.823 19.7485 21.6041 19.9658 21.251 20.0222C21.0872 20.0483 20.9166 20.0359 20.7488 20.0373C17.768 20.0373 14.7859 20.0373 11.8052 20.0373C10.4343 20.0373 9.80323 20.6824 9.80323 22.0784C9.80323 31.1371 9.80323 40.1957 9.80323 49.2543C9.80323 49.44 9.80323 49.6243 9.80323 49.8402H12.2711C12.349 49.0438 12.3503 48.2502 12.5141 47.4951C13.2392 44.1542 16.4388 41.9796 19.7405 42.5174C19.9069 42.5449 20.1903 42.4569 20.2654 42.329C21.2496 40.6482 23.4114 39.4268 25.8564 40.2094C25.902 40.2246 25.9544 40.2204 26.0363 40.2287C26.231 39.0692 26.7546 38.1064 27.7026 37.4159C28.437 36.8809 29.2561 36.6416 30.1584 36.6746C32.0596 36.7447 33.4144 37.9922 33.9488 40.1159C34.7772 40.0843 35.5989 39.944 36.3911 40.0458C37.809 40.2287 38.906 41.0292 39.6673 42.274C39.8136 42.5133 39.9533 42.5876 40.2312 42.5422C44.4083 41.8641 48.0174 45.3137 47.6388 49.6078C47.6334 49.6738 47.6388 49.7426 47.6388 49.8402H50.1953C50.1953 49.6477 50.1953 49.4647 50.1953 49.2818C50.1953 40.2053 50.1953 31.1302 50.1953 22.0537C50.1953 20.6934 49.5548 20.0373 48.2188 20.0359C45.2206 20.0332 42.2224 20.0359 39.2255 20.0345C39.0577 20.0345 38.8429 20.0909 38.7341 20.007C38.5018 19.8296 38.24 19.6082 38.1487 19.3468C38.0332 19.014 38.2373 18.7031 38.577 18.5793C38.7757 18.5078 39.0026 18.4941 39.2175 18.4941C42.2157 18.4886 45.2139 18.4886 48.2108 18.4913C50.4007 18.4941 51.7031 19.8365 51.7031 22.0853C51.7031 31.1274 51.7031 40.1682 51.7031 49.2103C51.7031 49.4125 51.7031 49.6147 51.7031 49.8705C52.7329 49.8705 53.7158 49.8705 54.6986 49.8705C55.4868 49.8705 55.7231 50.1098 55.7271 50.9007C55.7285 51.3807 55.7379 51.8621 55.7231 52.3421C55.6842 53.6323 54.7107 54.6432 53.454 54.7079C53.2539 54.7189 53.0525 54.7134 52.8511 54.7134C37.6277 54.7134 22.403 54.7134 7.17962 54.7134C5.49589 54.7134 4.92525 54.3296 4.26868 52.7575V50.389L4.27136 50.3904ZM5.82485 51.4165C5.6691 52.6351 5.8074 53.1867 7.25884 53.1853C22.4513 53.1619 37.6452 53.1702 52.8377 53.1702C53.0391 53.1702 53.2418 53.1853 53.4405 53.1578C53.8702 53.0986 54.1508 52.8387 54.2059 52.3972C54.2448 52.0836 54.2139 51.7617 54.2139 51.4165H53.556C42.0989 51.4165 30.6404 51.4165 19.1832 51.4165C18.9832 51.4165 18.7751 51.4344 18.5831 51.389C18.195 51.2996 17.9614 51.0231 17.9788 50.616C17.9976 50.1896 18.2434 49.9214 18.6744 49.8787C18.8409 49.8622 19.0087 49.8732 19.1765 49.8732C27.9376 49.8732 36.6972 49.8732 45.4583 49.8732H46.0907C46.1202 49.5473 46.1686 49.2598 46.1672 48.9723C46.1551 45.6699 43.0737 43.2918 39.9653 44.1803C39.1624 44.41 38.9637 44.3179 38.6388 43.5586C37.7768 41.5491 35.4647 40.8903 33.7259 42.1722C33.3929 42.417 33.0693 42.6151 32.6746 42.362C32.2583 42.0952 32.2919 41.7087 32.3912 41.2713C32.6289 40.2273 32.21 39.2026 31.356 38.6304C30.5195 38.0679 29.4333 38.0775 28.6116 38.6524C27.7617 39.248 27.3669 40.2617 27.6167 41.3098C27.7174 41.7334 27.7214 42.1007 27.336 42.3565C26.9453 42.6151 26.619 42.4294 26.2847 42.1818C24.5432 40.8971 22.2271 41.5464 21.3664 43.549C21.0361 44.3179 20.8401 44.4128 20.0479 44.1858C17.8741 43.5614 15.5983 44.5035 14.4879 46.5089C13.9105 47.5501 13.6876 48.6615 13.9239 49.8237C13.9978 49.854 14.0126 49.865 14.0287 49.865C14.4637 49.8691 14.9001 49.8691 15.3351 49.8746C15.9031 49.8815 16.2226 50.1428 16.2387 50.6091C16.2562 51.1015 15.9272 51.4123 15.3458 51.4151C14.073 51.4234 12.8001 51.4179 11.5272 51.4179C9.6354 51.4179 7.74489 51.4179 5.82485 51.4179V51.4165Z" fill="#E58F8F" stroke="#E58F8F" stroke-width="0.3"></path>
  <path d="M33.9797 30.0893C33.3943 30.7275 33.197 31.3767 33.5098 32.1827C33.7112 32.7026 33.8039 33.2707 33.9193 33.8222C34.063 34.5086 33.777 34.9006 33.0922 34.9047C31.0326 34.9198 28.9729 34.9198 26.9145 34.9047C26.2083 34.8992 25.929 34.4989 26.0888 33.7768C26.2069 33.2418 26.2956 32.693 26.4902 32.1868C26.8004 31.3836 26.6124 30.7302 26.0391 30.103C25.9478 30.147 25.8283 30.1938 25.7182 30.2571C24.1875 31.1387 22.6582 32.0231 21.1289 32.9062C20.0534 33.5279 19.57 33.2473 19.57 31.9984C19.57 31.4331 19.5768 30.8664 19.5687 30.3011C19.5553 29.3699 19.8372 28.5598 20.4294 27.8446C21.5008 26.5503 22.5642 25.2464 23.6021 23.9246C23.7552 23.7293 23.8478 23.3992 23.817 23.1502C23.0019 16.4491 24.7434 10.6007 29.3166 5.68494C29.8121 5.15264 30.1826 5.1554 30.6808 5.67806C33.8535 9.00799 35.689 12.9926 36.2395 17.6058C36.4637 19.4888 36.4302 21.3676 36.1656 23.2465C36.1361 23.4597 36.2475 23.7471 36.3872 23.9232C37.4117 25.2147 38.4455 26.4966 39.5036 27.7579C40.1467 28.5254 40.4569 29.3906 40.4314 30.3974C40.4152 31.0315 40.4394 31.6669 40.426 32.301C40.4085 33.14 39.8527 33.4687 39.1384 33.0588C37.562 32.1552 35.9924 31.2391 34.4202 30.33C34.2751 30.2461 34.1274 30.1691 33.9784 30.0879L33.9797 30.0893ZM30.0403 13.4369C28.9353 13.4369 27.8316 13.452 26.7266 13.4286C26.3855 13.4218 26.2298 13.5222 26.121 13.8619C25.5638 15.5963 25.2214 17.3693 25.1422 19.1958C24.9797 22.9356 25.792 26.4347 27.598 29.6918C27.7483 29.9627 27.9162 30.0769 28.2277 30.0714C29.416 30.0521 30.6042 30.0535 31.7925 30.0714C32.0839 30.0755 32.2477 29.9737 32.3873 29.7179C35.1465 24.6288 35.6125 19.3224 33.8522 13.7959C33.7622 13.5139 33.6333 13.4286 33.3541 13.4328C32.2504 13.4479 31.1453 13.4383 30.0403 13.4383V13.4369ZM29.9987 7.18554C28.7339 8.60086 27.7161 10.1193 26.9253 11.8648H33.0748C32.2826 10.1248 31.2769 8.59948 29.9987 7.18554ZM21.1276 31.1387C22.579 30.2983 23.9821 29.4855 25.3597 28.6877C24.9864 27.6231 24.6347 26.6204 24.2627 25.5627C23.4464 26.5654 22.7039 27.5585 21.8741 28.4704C21.1839 29.2283 20.9557 30.0673 21.1276 31.1387ZM35.7387 25.5586C35.3587 26.6438 35.0042 27.6589 34.6444 28.6918C36.0623 29.5088 37.46 30.3135 38.8712 31.1277C39.0685 30.0123 38.8027 29.1485 38.0749 28.414C37.707 28.044 37.4049 27.6052 37.0733 27.1981C36.6396 26.6644 36.2046 26.1308 35.74 25.56L35.7387 25.5586ZM27.7618 33.3202H32.241C32.1174 32.803 32.0302 32.334 31.8838 31.8842C31.8435 31.7618 31.63 31.6243 31.4931 31.6201C30.4928 31.5981 29.4911 31.5995 28.4895 31.6201C28.3619 31.6229 28.1579 31.7426 28.123 31.8512C27.9779 32.3175 27.884 32.8016 27.7604 33.3202H27.7618Z" fill="#E58F8F"></path>
  <path d="M29.93 22.5102C28.1872 22.4772 26.7894 20.989 26.8351 19.216C26.8807 17.4225 28.3228 15.9893 30.0468 16.0223C31.7869 16.0567 33.194 17.538 33.1685 19.3082C33.143 21.1265 31.7104 22.5432 29.9313 22.5102H29.93ZM30.0065 20.967C30.9303 20.9642 31.6647 20.2091 31.6593 19.2669C31.654 18.3344 30.898 17.5628 29.9931 17.5669C29.0854 17.5724 28.3375 18.3468 28.3402 19.2807C28.3429 20.2229 29.08 20.9697 30.0065 20.967Z" fill="#E58F8F"></path>
</svg>
