<?xml version="1.0" encoding="UTF-8"?>
<svg xmlns="http://www.w3.org/2000/svg" width="60" height="61" viewBox="0 0 60 61" fill="none">
  <path d="M48.0702 18.918C49.4581 16.9452 50.3155 15.0493 49.3824 14.143C48.5092 13.2933 46.9708 13.9756 45.8897 14.5634C45.6973 14.6683 45.5556 14.8431 45.4958 15.0496C45.4359 15.256 45.4629 15.4771 45.5708 15.6642C45.6786 15.8513 45.8585 15.989 46.0708 16.0472C46.2832 16.1053 46.5106 16.0791 46.703 15.9742C47.1406 15.7123 47.6152 15.5137 48.1117 15.3848C47.8413 16.2 47.4384 16.9678 46.9184 17.6592C45.3404 16.2589 43.2679 15.5039 41.1321 15.5514C38.9962 15.5988 36.9613 16.445 35.4508 17.9139C33.9402 19.3828 33.0703 21.3613 33.022 23.4379C32.9736 25.5144 33.7506 27.5292 35.1912 29.063C34.4801 29.5685 33.6904 29.9599 32.8519 30.2224C32.9847 29.74 33.1889 29.2789 33.4581 28.8536C33.566 28.6665 33.593 28.4455 33.5332 28.239C33.4734 28.0326 33.3317 27.8577 33.1392 27.7528C32.9468 27.648 32.7194 27.6218 32.5071 27.6799C32.2947 27.738 32.1149 27.8758 32.007 28.0629C31.4024 29.114 30.6989 30.604 31.5746 31.4586C31.7133 31.5877 31.8776 31.688 32.0574 31.7533C32.2373 31.8186 32.4289 31.8476 32.6207 31.8386C33.6444 31.8386 35.044 31.1368 36.4827 30.1804C38.0817 31.2973 40.0369 31.8253 41.9993 31.6701C43.9618 31.515 45.8036 30.6868 47.196 29.3335C48.5884 27.9801 49.4408 26.1897 49.6009 24.2818C49.761 22.374 49.2185 20.4729 48.0702 18.918ZM46.8319 27.2099C46.664 27.0604 46.53 26.8785 46.4384 26.6758C46.3468 26.4731 46.2995 26.2541 46.2997 26.0328C46.3009 25.6145 46.4688 25.213 46.7681 24.9126C47.0674 24.6121 47.4747 24.4361 47.9047 24.4214C47.7764 25.4197 47.4089 26.3748 46.8319 27.2099ZM34.6573 23.6073C34.6562 22.3341 35.0419 21.089 35.7661 20.0282C36.4903 18.9674 37.5206 18.1382 38.7278 17.6447C39.935 17.1512 41.2652 17.0154 42.5515 17.2543C43.8378 17.4932 45.0228 18.0961 45.9579 18.9875C44.6065 20.7039 43.1338 22.3268 41.5504 23.8442C39.9899 25.3838 38.3207 26.8157 36.555 28.1292C35.3367 26.9223 34.6552 25.2983 34.6573 23.6073ZM37.913 29.1584C39.5992 27.8587 41.2074 26.4661 42.7296 24.9874C44.2512 23.5083 45.6841 21.9456 47.0215 20.307C47.4903 21.0692 47.7913 21.9177 47.9055 22.7988C47.2386 22.8083 46.5902 23.013 46.0447 23.3861C45.4993 23.7592 45.0822 24.2835 44.8478 24.8906C44.6134 25.4976 44.5726 26.1592 44.7307 26.7892C44.8888 27.4191 45.2385 27.9881 45.7342 28.4219C44.6834 29.3426 43.3562 29.911 41.9482 30.0431C40.5401 30.1753 39.1256 29.8643 37.913 29.156V29.1584Z" fill="#FFB444"></path>
  <path d="M37.9833 20.3721C37.4899 20.3721 37.0076 20.5143 36.5973 20.7808C36.187 21.0474 35.8673 21.4262 35.6784 21.8694C35.4896 22.3126 35.4402 22.8003 35.5365 23.2708C35.6327 23.7413 35.8703 24.1734 36.2192 24.5126C36.5681 24.8519 37.0127 25.0829 37.4966 25.1765C37.9806 25.27 38.4822 25.222 38.938 25.0384C39.3939 24.8549 39.7835 24.544 40.0577 24.1451C40.3318 23.7462 40.4781 23.2773 40.4781 22.7976C40.4781 22.1543 40.2153 21.5373 39.7474 21.0825C39.2795 20.6276 38.645 20.3721 37.9833 20.3721ZM37.9833 23.6061C37.8188 23.6061 37.6581 23.5586 37.5213 23.4698C37.3846 23.381 37.278 23.2547 37.215 23.107C37.1521 22.9592 37.1356 22.7967 37.1677 22.6398C37.1998 22.483 37.279 22.3389 37.3953 22.2259C37.5116 22.1128 37.6598 22.0358 37.8211 22.0046C37.9824 21.9734 38.1496 21.9894 38.3016 22.0506C38.4535 22.1118 38.5834 22.2154 38.6748 22.3484C38.7661 22.4813 38.8149 22.6377 38.8149 22.7976C38.8149 23.012 38.7273 23.2176 38.5714 23.3693C38.4154 23.5209 38.2039 23.6061 37.9833 23.6061Z" fill="#FFB444"></path>
  <path d="M37.3961 12.0507C37.5521 12.2023 37.7635 12.2875 37.9841 12.2875C38.2046 12.2875 38.416 12.2023 38.572 12.0507L41.0668 9.62525C41.2227 9.47364 41.3103 9.26803 41.3103 9.05364C41.3103 8.83926 41.2227 8.63365 41.0668 8.48204L38.572 6.05654C38.416 5.90497 38.2046 5.81982 37.9841 5.81982C37.7635 5.81982 37.5521 5.90497 37.3961 6.05654L34.9013 8.48204C34.7454 8.63365 34.6578 8.83926 34.6578 9.05364C34.6578 9.26803 34.7454 9.47364 34.9013 9.62525L37.3961 12.0507ZM37.9841 7.77137L39.303 9.05364L37.9841 10.3359L36.6651 9.05364L37.9841 7.77137Z" fill="#FFB444"></path>
  <path d="M47.9633 12.2856H52.9529C53.1073 12.2856 53.2587 12.2438 53.3901 12.1649C53.5215 12.0859 53.6276 11.973 53.6967 11.8387C53.7658 11.7044 53.795 11.5541 53.7811 11.4045C53.7673 11.255 53.7108 11.1122 53.6182 10.992L51.1234 7.75805C51.0426 7.66255 50.941 7.58563 50.826 7.53283C50.7109 7.48002 50.5853 7.45264 50.4581 7.45264C50.3309 7.45264 50.2053 7.48002 50.0903 7.53283C49.9752 7.58563 49.8737 7.66255 49.7928 7.75805L47.298 10.992C47.2054 11.1122 47.1489 11.255 47.1351 11.4045C47.1212 11.5541 47.1504 11.7044 47.2195 11.8387C47.2886 11.973 47.3947 12.0859 47.5261 12.1649C47.6575 12.2438 47.8089 12.2856 47.9633 12.2856ZM50.4581 9.59091L51.2897 10.6686H49.6265L50.4581 9.59091Z" fill="#FFB444"></path>
  <path d="M28.9533 20.7889C29.0272 20.9084 29.1317 21.0073 29.2566 21.076C29.3815 21.1446 29.5225 21.1807 29.666 21.1807C29.8094 21.1807 29.9505 21.1446 30.0753 21.076C30.2002 21.0073 30.3047 20.9084 30.3786 20.7889L32.8734 16.7464C32.9492 16.6237 32.9902 16.4837 32.9921 16.3406C32.994 16.1975 32.9569 16.0565 32.8844 15.9319C32.8119 15.8074 32.7068 15.7037 32.5796 15.6316C32.4525 15.5595 32.3079 15.5215 32.1608 15.5215H27.1712C27.024 15.5215 26.8794 15.5595 26.7523 15.6316C26.6251 15.7037 26.52 15.8074 26.4475 15.9319C26.375 16.0565 26.3379 16.1975 26.3398 16.3406C26.3417 16.4837 26.3827 16.6237 26.4585 16.7464L28.9533 20.7889ZM30.6913 17.1385L29.666 18.8016L28.6406 17.1385H30.6913Z" fill="#FFB444"></path>
  <path d="M51.2895 30.0737C50.796 30.0737 50.3137 30.216 49.9034 30.4825C49.4932 30.749 49.1734 31.1278 48.9846 31.571C48.7958 32.0142 48.7464 32.5019 48.8426 32.9724C48.9389 33.4429 49.1765 33.8751 49.5254 34.2143C49.8743 34.5535 50.3188 34.7845 50.8028 34.8781C51.2867 34.9717 51.7883 34.9237 52.2442 34.7401C52.7001 34.5565 53.0897 34.2456 53.3638 33.8468C53.6379 33.4479 53.7843 32.9789 53.7843 32.4992C53.7843 31.8559 53.5214 31.239 53.0536 30.7841C52.5857 30.3293 51.9511 30.0737 51.2895 30.0737ZM51.2895 33.3077C51.125 33.3077 50.9642 33.2603 50.8275 33.1715C50.6907 33.0826 50.5841 32.9564 50.5212 32.8086C50.4582 32.6609 50.4418 32.4983 50.4739 32.3415C50.5059 32.1847 50.5851 32.0406 50.7014 31.9275C50.8177 31.8145 50.9659 31.7375 51.1272 31.7063C51.2885 31.6751 51.4558 31.6911 51.6077 31.7523C51.7597 31.8135 51.8895 31.9171 51.9809 32.05C52.0723 32.183 52.1211 32.3393 52.1211 32.4992C52.1211 32.7137 52.0335 32.9193 51.8775 33.0709C51.7215 33.2225 51.51 33.3077 51.2895 33.3077Z" fill="#FFB444"></path>
  <path d="M25.5099 52.7126H10.5411V44.0981C10.5418 42.0169 11.2921 40.0017 12.6617 38.4022L13.4575 37.4733C13.7936 38.1606 14.3228 38.7415 14.9839 39.1491C15.645 39.5566 16.4111 39.7742 17.1939 39.7767C17.8555 39.7767 18.4901 39.5211 18.958 39.0663C19.4258 38.6114 19.6887 37.9944 19.6887 37.3512V37.3051L20.3132 37.7384C22.1886 39.0382 23.4892 40.9793 23.9539 43.1724C23.9922 43.3547 24.094 43.5186 24.2422 43.6365C24.3904 43.7543 24.5758 43.8188 24.7672 43.8192C24.8231 43.8189 24.8788 43.8132 24.9336 43.8022C25.1494 43.7588 25.3388 43.6338 25.4599 43.4548C25.5811 43.2757 25.6242 43.0573 25.5797 42.8473C25.0312 40.2546 23.4937 37.9597 21.2762 36.4238L19.6887 35.3186V34.8206L20.63 34.4875C21.7251 34.1039 22.6759 33.4083 23.3583 32.4914C24.0407 31.5746 24.423 30.4791 24.4554 29.3478L24.4778 28.6533L26.235 27.2967C26.399 27.1702 26.5079 26.9882 26.54 26.7871C26.5721 26.586 26.5249 26.3805 26.408 26.2117L25.0716 24.2883C25.6365 24.0356 26.0825 23.585 26.3207 23.0266C26.5589 22.4682 26.5716 21.843 26.3564 21.2758L25.218 18.2367C25.1067 17.9371 24.9355 17.6619 24.7143 17.4269C24.493 17.192 24.2261 17.002 23.929 16.8679C23.8824 16.8468 23.8334 16.8371 23.7868 16.8194L24.3689 15.9583C24.7206 15.4323 24.942 14.8341 25.0159 14.2109C25.0898 13.5876 25.0141 12.9562 24.7947 12.3661L23.3727 8.5662C23.3241 8.43668 23.2423 8.32137 23.1351 8.23124C23.0278 8.1411 22.8986 8.07912 22.7598 8.05119C22.621 8.02405 22.4774 8.03146 22.3423 8.07273C22.2072 8.11401 22.0851 8.1878 21.9872 8.28727L19.9681 10.3586C19.7053 10.6292 19.3817 10.837 19.0226 10.9658L10.4962 13.84C8.56883 14.4893 6.87002 15.656 5.59641 17.205L4.80057 18.1752C4.2125 18.8913 3.89097 19.7798 3.88831 20.6961V21.0915C3.88834 21.8243 4.09329 22.5434 4.48124 23.1717L5.50743 24.834C5.2938 25.1299 5.14887 25.4673 5.08267 25.823C5.01648 26.1787 5.0306 26.5442 5.12406 26.8941C5.20929 27.2255 5.36557 27.5357 5.58267 27.8043C5.79977 28.0729 6.07278 28.2939 6.38384 28.4528C6.69489 28.6118 7.03697 28.705 7.38766 28.7264C7.73836 28.7479 8.08976 28.6971 8.41885 28.5773L8.55274 28.5288L13.0359 33.0168V35.4423L11.3835 37.3706C9.76654 39.2602 8.88017 41.6401 8.87789 44.0981V53.5211C8.87789 53.7356 8.96551 53.9412 9.12146 54.0928C9.27742 54.2445 9.48894 54.3296 9.70949 54.3296H25.5099C25.7304 54.3296 25.9419 54.2445 26.0979 54.0928C26.2538 53.9412 26.3415 53.7356 26.3415 53.5211C26.3415 53.3067 26.2538 53.1011 26.0979 52.9494C25.9419 52.7978 25.7304 52.7126 25.5099 52.7126ZM17.1939 38.1597C16.5322 38.1597 15.8977 37.9041 15.4298 37.4493C14.9619 36.9944 14.6991 36.3775 14.6991 35.7342V34.5174C15.4279 35.094 16.3374 35.4112 17.277 35.4164C17.5282 35.4151 17.7786 35.3918 18.0255 35.3469V37.3512C18.0255 37.5656 17.9379 37.7712 17.7819 37.9229C17.626 38.0745 17.4144 38.1597 17.1939 38.1597ZM23.144 27.6201C23.0491 27.693 22.9718 27.7852 22.9173 27.8903C22.8629 27.9953 22.8327 28.1105 22.8288 28.2281L22.7964 29.2662H21.3519C21.1313 29.2662 20.9198 29.3514 20.7638 29.503C20.6079 29.6546 20.5203 29.8603 20.5203 30.0747C20.5203 30.2891 20.6079 30.4948 20.7638 30.6464C20.9198 30.798 21.1313 30.8832 21.3519 30.8832H22.3989C22.1699 31.3634 21.8454 31.7949 21.4442 32.1527C21.0431 32.5106 20.573 32.7878 20.0612 32.9683L18.1352 33.6507C17.6999 33.8064 17.2283 33.8403 16.774 33.7486C16.3198 33.6568 15.9012 33.4431 15.5656 33.1316L14.749 32.3805L14.9228 31.8954C15.3259 30.7783 15.5314 29.6028 15.5307 28.4189V25.9926L17.4084 25.3094C17.6421 25.5848 17.9353 25.8068 18.2672 25.9596C18.599 26.1125 18.9614 26.1925 19.3286 26.1939C19.6185 26.1941 19.9061 26.1449 20.1785 26.0484L23.4766 24.8809L24.6009 26.4979L23.144 27.6201ZM17.4342 20.384C17.4804 20.2878 17.5457 20.2013 17.6263 20.1296C17.707 20.0578 17.8013 20.0023 17.9041 19.966L18.8271 19.6426C18.8271 19.9181 18.8755 20.1915 18.9702 20.4511L20.1045 23.4887C20.2022 23.7474 20.3451 23.9878 20.5269 24.1993L19.6072 24.5227C19.3996 24.5943 19.1713 24.5835 18.9718 24.4927C18.7723 24.4019 18.6176 24.2385 18.5411 24.0376L17.4043 20.9993C17.3304 20.7984 17.3411 20.5772 17.4342 20.384ZM24.7963 21.828C24.8337 21.9279 24.8504 22.034 24.8455 22.1402C24.8406 22.2464 24.8143 22.3506 24.7679 22.4468C24.7216 22.5431 24.6562 22.6296 24.5754 22.7012C24.4947 22.7729 24.4002 22.8284 24.2974 22.8645L22.734 23.4183C22.5264 23.4903 22.298 23.4797 22.0983 23.3889C21.8987 23.2981 21.744 23.1343 21.6679 22.9332L20.5311 19.8941C20.4937 19.7942 20.477 19.6881 20.4819 19.5819C20.4868 19.4757 20.5131 19.3715 20.5595 19.2752C20.6058 19.179 20.6712 19.0925 20.752 19.0209C20.8327 18.9492 20.9272 18.8937 21.03 18.8576L22.5918 18.3038C22.6833 18.2719 22.7798 18.2555 22.877 18.2552C23.0476 18.2554 23.214 18.3065 23.3537 18.4016C23.4934 18.4968 23.5996 18.6314 23.6579 18.7872L24.7963 21.828ZM5.5515 20.6961C5.55233 20.1452 5.74522 19.6108 6.09869 19.1802L6.89536 18.21C7.97314 16.9011 9.41016 15.9158 11.0401 15.3681L19.5781 12.4898C20.1841 12.2743 20.7305 11.9254 21.1747 11.4703L22.2666 10.3473L23.2288 12.9159C23.3602 13.27 23.4055 13.6488 23.3612 14.0228C23.3169 14.3967 23.1842 14.7556 22.9735 15.0714L21.7677 16.8792L20.4654 17.34H20.4604L17.3352 18.4461C16.8496 18.6154 16.4308 18.9286 16.1378 19.3415C15.8448 19.7545 15.6924 20.2463 15.702 20.7478L6.86543 23.8945L5.90743 22.3422C5.67457 21.9652 5.55155 21.5337 5.5515 21.0939V20.6961ZM7.15815 27.0226C7.0452 26.9622 6.94739 26.8783 6.87176 26.7768C6.79614 26.6753 6.74456 26.5588 6.72073 26.4356C6.67082 26.242 6.69638 26.0372 6.7925 25.8607C6.88861 25.6843 7.04848 25.5487 7.24131 25.48L16.1294 22.3171L16.6991 23.8412L7.8359 27.0655C7.72645 27.1059 7.60941 27.1231 7.49255 27.1162C7.37569 27.1092 7.2617 27.0781 7.15815 27.025V27.0226ZM13.8675 26.5981V28.4253C13.8677 29.3341 13.7244 30.2375 13.4425 31.1039L10.2534 27.9128L13.8675 26.5981Z" fill="#FFB444"></path>
  <path d="M44.7978 36.5436H39.2619L38.2032 34.9994C37.9769 34.6692 37.6537 34.4129 37.2756 34.2636C36.8975 34.1143 36.4819 34.079 36.0829 34.1622C35.6839 34.2455 35.3198 34.4434 35.038 34.7304C34.7562 35.0174 34.5697 35.3801 34.5026 35.7715L33.8964 39.3095L27.2577 43.829C26.5035 44.3312 25.6131 44.6046 24.699 44.6147C23.7849 44.6247 22.8883 44.371 22.1226 43.8856L18.4894 41.5305C18.3059 41.4115 18.0813 41.3682 17.8649 41.4102C17.6486 41.4522 17.4583 41.576 17.3359 41.7544C17.2135 41.9328 17.169 42.1512 17.2122 42.3615C17.2554 42.5718 17.3828 42.7568 17.5663 42.8758L21.1995 45.231C22.2456 45.8927 23.4699 46.2382 24.7177 46.2238C25.9656 46.2094 27.1812 45.8358 28.2107 45.1501L34.4768 40.8853L35.9895 42.8499L28.7679 48.1157C27.5523 48.9984 26.0764 49.4767 24.5592 49.4796C23.1749 49.4813 21.8214 49.0829 20.6706 48.3348L15.1621 44.7645C14.9786 44.6454 14.754 44.6022 14.5377 44.6442C14.3214 44.6862 14.1311 44.81 14.0087 44.9884C13.8863 45.1668 13.8418 45.3852 13.885 45.5955C13.9282 45.8058 14.0556 45.9908 14.2391 46.1098L19.7476 49.6801C21.1715 50.6057 22.8463 51.0988 24.5592 51.0966C26.436 51.0931 28.2615 50.5014 29.765 49.4093L37.518 43.7563L40.1641 43.1095C40.5516 43.0165 40.9305 42.8924 41.2968 42.7384L45.7192 40.9006C46.2137 40.6946 46.6198 40.329 46.869 39.8655C47.1181 39.4019 47.1951 38.869 47.0867 38.3567C46.9784 37.8444 46.6914 37.3842 46.2744 37.0538C45.8573 36.7235 45.3358 36.5433 44.7978 36.5436ZM45.0631 39.4146L40.6398 41.2564C40.3555 41.3752 40.0618 41.4717 39.7616 41.545L37.4872 42.0972L35.538 39.569L36.1434 36.0367C36.1613 35.9689 36.1983 35.9073 36.2503 35.8588C36.3023 35.8103 36.3672 35.777 36.4376 35.7624C36.5081 35.7479 36.5813 35.7528 36.6491 35.7765C36.7168 35.8003 36.7764 35.8419 36.8211 35.8968L38.1267 37.8017C38.2026 37.912 38.3053 38.0024 38.4257 38.065C38.5461 38.1277 38.6804 38.1605 38.8169 38.1606H44.7978C44.9527 38.1604 45.103 38.2121 45.2231 38.3072C45.3433 38.4023 45.426 38.5348 45.4572 38.6823C45.4884 38.8298 45.4662 38.9833 45.3944 39.1168C45.3226 39.2502 45.2055 39.3554 45.0631 39.4146Z" fill="#FFB444"></path>
  <g opacity="0.2">
    <path d="M50.3972 20.6821C51.7851 18.7094 52.6425 16.8135 51.7094 15.9072C50.8363 15.0574 49.2978 15.7398 48.2167 16.3276C48.0243 16.4324 47.8826 16.6073 47.8228 16.8137C47.763 17.0202 47.79 17.2413 47.8978 17.4283C48.0057 17.6154 48.1855 17.7532 48.3979 17.8113C48.6102 17.8695 48.8376 17.8433 49.03 17.7384C49.4677 17.4764 49.9422 17.2779 50.4388 17.149C50.1683 17.9641 49.7654 18.732 49.2454 19.4233C47.6675 18.023 45.595 17.2681 43.4591 17.3155C41.3232 17.363 39.2883 18.2091 37.7778 19.678C36.2672 21.1469 35.3973 23.1254 35.349 25.202C35.3006 27.2786 36.0776 29.2933 37.5182 30.8272C36.8071 31.3326 36.0174 31.724 35.1789 31.9866C35.3117 31.5042 35.5159 31.0431 35.7852 30.6178C35.893 30.4307 35.92 30.2096 35.8602 30.0032C35.8004 29.7967 35.6587 29.6219 35.4663 29.517C35.2738 29.4122 35.0464 29.3859 34.8341 29.4441C34.6218 29.5022 34.4419 29.64 34.334 29.8271C33.7295 30.8781 33.0259 32.3682 33.9016 33.2228C34.0403 33.3518 34.2046 33.4521 34.3844 33.5174C34.5643 33.5828 34.756 33.6118 34.9478 33.6028C35.9714 33.6028 37.371 32.901 38.8097 31.9445C40.4087 33.0614 42.3639 33.5894 44.3264 33.4343C46.2888 33.2792 48.1306 32.451 49.523 31.0977C50.9155 29.7443 51.7678 27.9539 51.9279 26.046C52.0881 24.1381 51.5455 22.2371 50.3972 20.6821Z" fill="#FFB444"></path>
    <path d="M40.31 22.1367C39.8166 22.1367 39.3342 22.279 38.9239 22.5455C38.5137 22.812 38.1939 23.1908 38.0051 23.634C37.8163 24.0772 37.7669 24.5649 37.8631 25.0354C37.9594 25.5059 38.197 25.9381 38.5459 26.2773C38.8948 26.6165 39.3393 26.8475 39.8233 26.9411C40.3072 27.0347 40.8088 26.9867 41.2647 26.8031C41.7206 26.6195 42.1102 26.3086 42.3843 25.9097C42.6585 25.5109 42.8048 25.0419 42.8048 24.5622C42.8048 23.9189 42.5419 23.302 42.0741 22.8471C41.6062 22.3923 40.9716 22.1367 40.31 22.1367ZM40.31 25.3707C40.1455 25.3707 39.9847 25.3233 39.848 25.2345C39.7112 25.1456 39.6046 25.0193 39.5417 24.8716C39.4787 24.7239 39.4623 24.5613 39.4944 24.4045C39.5264 24.2476 39.6057 24.1036 39.722 23.9905C39.8383 23.8774 39.9864 23.8004 40.1477 23.7693C40.3091 23.7381 40.4763 23.7541 40.6282 23.8153C40.7802 23.8765 40.9101 23.9801 41.0014 24.113C41.0928 24.246 41.1416 24.4023 41.1416 24.5622C41.1416 24.7766 41.054 24.9823 40.898 25.1339C40.7421 25.2855 40.5305 25.3707 40.31 25.3707Z" fill="#FFB444"></path>
    <path d="M39.7231 13.8149C39.8791 13.9665 40.0906 14.0516 40.3111 14.0516C40.5316 14.0516 40.7431 13.9665 40.899 13.8149L43.3938 11.3894C43.5497 11.2378 43.6373 11.0322 43.6373 10.8178C43.6373 10.6034 43.5497 10.3978 43.3938 10.2462L40.899 7.8207C40.7431 7.66913 40.5316 7.58398 40.3111 7.58398C40.0906 7.58398 39.8791 7.66913 39.7231 7.8207L37.2283 10.2462C37.0724 10.3978 36.9849 10.6034 36.9849 10.8178C36.9849 11.0322 37.0724 11.2378 37.2283 11.3894L39.7231 13.8149ZM40.3111 9.53553L41.63 10.8178L40.3111 12.1001L38.9922 10.8178L40.3111 9.53553Z" fill="#FFB444"></path>
    <path d="M50.2906 14.0493H55.2802C55.4346 14.0493 55.586 14.0075 55.7174 13.9286C55.8487 13.8496 55.9549 13.7367 56.024 13.6024C56.093 13.4681 56.1223 13.3177 56.1084 13.1682C56.0945 13.0187 56.0381 12.8758 55.9455 12.7557L53.4507 9.52172C53.3698 9.42622 53.2683 9.3493 53.1532 9.2965C53.0382 9.24369 52.9126 9.21631 52.7854 9.21631C52.6582 9.21631 52.5325 9.24369 52.4175 9.2965C52.3025 9.3493 52.2009 9.42622 52.1201 9.52172L49.6253 12.7557C49.5326 12.8758 49.4762 13.0187 49.4623 13.1682C49.4485 13.3177 49.4777 13.4681 49.5468 13.6024C49.6158 13.7367 49.722 13.8496 49.8534 13.9286C49.9848 14.0075 50.1361 14.0493 50.2906 14.0493ZM52.7854 11.3546L53.617 12.4323H51.9538L52.7854 11.3546Z" fill="#FFB444"></path>
    <path d="M31.2804 22.553C31.3544 22.6725 31.4588 22.7715 31.5837 22.8401C31.7086 22.9088 31.8496 22.9449 31.9931 22.9449C32.1366 22.9449 32.2776 22.9088 32.4025 22.8401C32.5274 22.7715 32.6319 22.6725 32.7058 22.553L35.2006 18.5105C35.2764 18.3879 35.3173 18.2478 35.3193 18.1047C35.3212 17.9616 35.284 17.8206 35.2116 17.6961C35.1391 17.5715 35.0339 17.4679 34.9068 17.3958C34.7796 17.3237 34.6351 17.2857 34.4879 17.2856H29.4983C29.3511 17.2857 29.2066 17.3237 29.0794 17.3958C28.9523 17.4679 28.8471 17.5715 28.7747 17.6961C28.7022 17.8206 28.665 17.9616 28.6669 18.1047C28.6689 18.2478 28.7098 18.3879 28.7856 18.5105L31.2804 22.553Z" fill="#FFB444"></path>
    <path d="M53.6161 31.8374C53.1227 31.8374 52.6404 31.9797 52.2301 32.2462C51.8198 32.5127 51.5001 32.8915 51.3112 33.3347C51.1224 33.7779 51.073 34.2656 51.1693 34.7361C51.2655 35.2066 51.5031 35.6388 51.852 35.978C52.201 36.3172 52.6455 36.5482 53.1294 36.6418C53.6134 36.7354 54.115 36.6873 54.5708 36.5038C55.0267 36.3202 55.4163 36.0093 55.6905 35.6104C55.9646 35.2116 56.1109 34.7426 56.1109 34.2629C56.1109 33.6196 55.8481 33.0027 55.3802 32.5478C54.9124 32.0929 54.2778 31.8374 53.6161 31.8374ZM53.6161 35.0714C53.4517 35.0714 53.2909 35.024 53.1541 34.9351C53.0174 34.8463 52.9108 34.72 52.8478 34.5723C52.7849 34.4246 52.7684 34.262 52.8005 34.1052C52.8326 33.9483 52.9118 33.8043 53.0281 33.6912C53.1444 33.5781 53.2926 33.5011 53.4539 33.4699C53.6152 33.4387 53.7824 33.4548 53.9344 33.5159C54.0863 33.5771 54.2162 33.6808 54.3076 33.8137C54.399 33.9467 54.4477 34.103 54.4477 34.2629C54.4477 34.4773 54.3601 34.683 54.2042 34.8346C54.0482 34.9862 53.8367 35.0714 53.6161 35.0714Z" fill="#FFB444"></path>
    <path d="M27.8366 54.4768H12.8679V45.8622C12.8686 43.7811 13.6189 41.7658 14.9884 40.1664L15.7843 39.2374C16.1204 39.9247 16.6495 40.5057 17.3106 40.9132C17.9717 41.3208 18.7379 41.5383 19.5207 41.5408C20.1823 41.5408 20.8169 41.2853 21.2847 40.8304C21.7526 40.3755 22.0155 39.7586 22.0155 39.1153V39.0692L22.64 39.5026C24.5154 40.8023 25.816 42.7434 26.2807 44.9365C26.319 45.1189 26.4208 45.2828 26.569 45.4006C26.7172 45.5185 26.9026 45.583 27.094 45.5833C27.1499 45.583 27.2056 45.5773 27.2603 45.5663C27.4762 45.5229 27.6656 45.398 27.7867 45.219C27.9079 45.0399 27.951 44.8214 27.9065 44.6115C27.358 42.0187 25.8205 39.7239 23.603 38.188L22.0155 37.0828V36.5847L22.9568 36.2516C24.0519 35.868 25.0027 35.1724 25.6851 34.2556C26.3675 33.3388 26.7498 32.2433 26.7822 31.112L26.8046 30.4175L28.5618 29.0608C28.7258 28.9344 28.8347 28.7524 28.8668 28.5513C28.8988 28.3501 28.8517 28.1447 28.7348 27.9758L27.3984 26.0524C27.9633 25.7997 28.4093 25.3492 28.6475 24.7908C28.8857 24.2323 28.8984 23.6071 28.6832 23.04L27.5448 20.0008C27.4335 19.7012 27.2623 19.426 27.0411 19.1911C26.8198 18.9562 26.5529 18.7662 26.2558 18.632C26.2092 18.611 26.1601 18.6013 26.1136 18.5835L26.6957 17.7225C27.0473 17.1964 27.2688 16.5983 27.3427 15.975C27.4166 15.3518 27.3408 14.7203 27.1215 14.1303L25.6994 10.3304C25.6509 10.2008 25.5691 10.0855 25.4619 9.9954C25.3546 9.90526 25.2254 9.84328 25.0865 9.81535C24.9477 9.78821 24.8041 9.79562 24.6691 9.83689C24.534 9.87817 24.4119 9.95197 24.314 10.0514L22.2949 12.1228C22.032 12.3933 21.7084 12.6011 21.3493 12.73L12.823 15.6042C10.8956 16.2535 9.1968 17.4201 7.92319 18.9692L7.12735 19.9394C6.53928 20.6555 6.21775 21.5439 6.21509 22.4603V22.8556C6.21513 23.5885 6.42008 24.3075 6.80802 24.9359L7.83421 26.5982C7.62058 26.894 7.47565 27.2315 7.40946 27.5872C7.34326 27.9429 7.35738 28.3083 7.45084 28.6582C7.53607 28.9896 7.69235 29.2998 7.90945 29.5684C8.12655 29.8371 8.39957 30.0581 8.71062 30.217C9.02168 30.3759 9.36375 30.4692 9.71445 30.4906C10.0651 30.5121 10.4165 30.4613 10.7456 30.3415L10.8795 30.293L15.3627 34.781V37.2065L13.7103 39.1347C12.0933 41.0243 11.207 43.4042 11.2047 45.8622V55.2853C11.2047 55.4997 11.2923 55.7054 11.4482 55.857C11.6042 56.0086 11.8157 56.0938 12.0363 56.0938H27.8366C28.0572 56.0938 28.2687 56.0086 28.4247 55.857C28.5806 55.7054 28.6682 55.4997 28.6682 55.2853C28.6682 55.0709 28.5806 54.8652 28.4247 54.7136C28.2687 54.562 28.0572 54.4768 27.8366 54.4768Z" fill="#FFB444"></path>
    <path d="M47.1248 38.3078H41.5889L40.5303 36.7636C40.3039 36.4334 39.9807 36.177 39.6026 36.0277C39.2245 35.8784 38.809 35.8431 38.4099 35.9264C38.0109 36.0096 37.6469 36.2076 37.365 36.4946C37.0832 36.7816 36.8967 37.1443 36.8296 37.5357L36.2234 41.0737L29.5848 45.5932C28.8305 46.0953 27.9401 46.3687 27.026 46.3788C26.112 46.3889 25.2154 46.1352 24.4496 45.6498L20.8164 43.2946C20.6329 43.1756 20.4083 43.1324 20.192 43.1744C19.9757 43.2164 19.7854 43.3402 19.663 43.5186C19.5406 43.697 19.4961 43.9154 19.5393 44.1257C19.5825 44.336 19.7098 44.521 19.8933 44.64L23.5266 46.9951C24.5726 47.6568 25.7969 48.0023 27.0448 47.988C28.2927 47.9736 29.5082 47.5999 30.5378 46.9143L36.8039 42.6494L38.3165 44.6141L31.0949 49.8798C29.8793 50.7625 28.4035 51.2408 26.8862 51.2438C25.5019 51.2455 24.1484 50.847 22.9977 50.0989L17.4892 46.5286C17.3057 46.4096 17.0811 46.3663 16.8647 46.4083C16.6484 46.4503 16.4581 46.5742 16.3357 46.7526C16.2133 46.931 16.1688 47.1493 16.212 47.3596C16.2552 47.5699 16.3826 47.755 16.5661 47.874L22.0746 51.4443C23.4985 52.3699 25.1734 52.8629 26.8862 52.8608C28.763 52.8572 30.5886 52.2655 32.092 51.1734L39.845 45.5204L42.4912 44.8736C42.8786 44.7807 43.2575 44.6566 43.6238 44.5025L48.0462 42.6648C48.5407 42.4588 48.9468 42.0931 49.196 41.6296C49.4452 41.1661 49.5221 40.6331 49.4138 40.1209C49.3054 39.6086 49.0185 39.1484 48.6014 38.818C48.1844 38.4877 47.6628 38.3074 47.1248 38.3078Z" fill="#FFB444"></path>
  </g>
</svg>
