<svg width="32" height="33" viewBox="0 0 32 33" fill="none" xmlns="http://www.w3.org/2000/svg">
<rect width="32" height="33" fill="#C0C0C0"/>
<g id="Android App Development" clip-path="url(#clip0_0_1)">
<rect width="1920" height="14625" transform="translate(-159 -1897)" fill="white"/>
<rect id="Rectangle 9869" x="-159" y="-87.5" width="1920" height="656" rx="10" fill="#FFF1E4"/>
<g id="Group 1261153108">
<g id="Frame 1261153186" filter="url(#filter0_d_0_1)">
<rect x="-8" y="-7.5" width="48" height="48" rx="4" fill="white" shape-rendering="crispEdges"/>
<path id="Vector" d="M31.8973 14.7285C31.8461 14.2771 31.321 13.9412 30.8666 13.9412C29.9004 13.9624 28.9682 13.586 28.288 12.8997C27.6079 12.2135 27.2395 11.2782 27.2696 10.3125C27.2996 9.34694 27.7251 8.43617 28.4466 7.79348C28.6141 7.64168 28.7177 7.43183 28.736 7.20656C28.7545 6.98132 28.6864 6.75741 28.5457 6.58039C27.798 5.63498 26.9465 4.77621 26.0074 4.02031C25.8297 3.87833 25.6046 3.8098 25.3779 3.8281C25.1513 3.84663 24.94 3.95088 24.7878 4.11943C24.2865 4.64716 23.6398 5.01414 22.93 5.17422C22.2199 5.33428 21.4783 5.28025 20.7991 5.01862C20.1262 4.73086 19.5581 4.24288 19.1722 3.62117C18.7862 2.99922 18.6011 2.27395 18.6417 1.54331C18.6538 1.31627 18.5792 1.09304 18.4329 0.918905C18.2869 0.744779 18.0799 0.632717 17.8542 0.60548C16.6589 0.468192 15.452 0.464844 14.2561 0.595881C14.0334 0.62066 13.8282 0.728259 13.6813 0.897247C13.5342 1.06601 13.456 1.28411 13.4623 1.50805C13.4882 2.23223 13.2919 2.94728 12.9 3.55693C12.5081 4.16659 11.9392 4.64207 11.2696 4.91958C10.593 5.17094 9.85793 5.21983 9.15409 5.05999C8.45031 4.90038 7.80831 4.53896 7.3066 4.02041C7.15499 3.85455 6.94643 3.7523 6.72268 3.73377C6.49872 3.71547 6.27632 3.78244 6.09973 3.92107C5.14225 4.67268 4.27453 5.53174 3.51335 6.48137C3.37223 6.65885 3.30323 6.88319 3.32043 7.10932C3.33762 7.33523 3.43966 7.54664 3.60602 7.70069C4.15353 8.19114 4.53468 8.83966 4.69702 9.55647C4.85935 10.2733 4.7946 11.0227 4.51191 11.7011C4.20757 12.3623 3.71478 12.919 3.09514 13.3017C2.47573 13.6843 1.75696 13.8756 1.02923 13.8517C0.80326 13.8375 0.580635 13.9116 0.40873 14.0585C0.236574 14.2056 0.128502 14.4136 0.107289 14.6389C-0.0331589 15.8468 -0.0331589 17.0668 0.107289 18.2745C0.148821 18.7417 0.693205 19.0618 1.15096 19.0618C1.85635 19.056 2.54699 19.2623 3.13382 19.6538C3.72065 20.0451 4.17612 20.6037 4.44164 21.2571C4.71294 21.9291 4.77256 22.6678 4.61312 23.3745C4.45347 24.0813 4.08214 24.7224 3.54847 25.2129C3.38189 25.3644 3.27896 25.5736 3.26042 25.7982C3.24211 26.0225 3.30955 26.2458 3.44933 26.4226C4.19313 27.3693 5.04273 28.2284 5.98146 28.9827C6.15831 29.1253 6.38293 29.1952 6.60956 29.1778C6.8362 29.1606 7.04766 29.0577 7.20108 28.89C7.70303 28.3614 8.35033 27.9933 9.06132 27.8321C9.7723 27.6709 10.5152 27.7238 11.196 27.9843C11.871 28.2687 12.441 28.7554 12.828 29.3773C13.215 29.999 13.3997 30.7255 13.3568 31.4566C13.3445 31.6836 13.4191 31.9068 13.5653 32.081C13.7116 32.2551 13.9184 32.3669 14.1441 32.3944C14.7564 32.4638 15.372 32.4991 15.9881 32.5C16.5753 32.5011 17.1621 32.4681 17.7454 32.4006C17.9693 32.3759 18.1754 32.2674 18.3226 32.097C18.4698 31.9267 18.5472 31.707 18.5394 31.4822C18.5122 30.7585 18.7069 30.0437 19.0978 29.4338C19.4886 28.8239 20.0566 28.3484 20.7257 28.0707C21.4018 27.8204 22.1364 27.7733 22.8389 27.9354C23.5414 28.0975 24.1811 28.4616 24.679 28.9826C24.8306 29.1485 25.0392 29.2507 25.2629 29.2692C25.4869 29.2875 25.7093 29.2206 25.8859 29.0819C26.8418 28.3287 27.7095 27.4697 28.4723 26.5216C28.615 26.3448 28.6848 26.12 28.6674 25.8937C28.6502 25.6671 28.5473 25.4557 28.3796 25.3023C27.6552 24.6639 27.225 23.7562 27.1893 22.7913C27.1537 21.8267 27.5159 20.8898 28.1911 20.1998C28.8666 19.5098 29.7957 19.1271 30.7612 19.1416H30.9597H30.9595C31.1866 19.1539 31.4099 19.0793 31.5841 18.9331C31.7582 18.7869 31.8703 18.5802 31.8976 18.3545C32.0315 17.1494 32.0315 15.9333 31.8976 14.7285L31.8973 14.7285ZM16.0233 21.868C14.608 21.868 13.2506 21.3062 12.2498 20.3056C11.249 19.305 10.687 17.9482 10.687 16.5331C10.687 15.1182 11.249 13.7614 12.2498 12.7609C13.2506 11.7603 14.608 11.1982 16.0233 11.1982C17.4385 11.1982 18.7956 11.7603 19.7964 12.7609C20.7972 13.7614 21.3595 15.1182 21.3595 16.5331C21.3577 17.9475 20.795 19.3035 19.7947 20.3036C18.7943 21.3039 17.438 21.8665 16.0233 21.868Z" fill="#D85D27"/>
</g>
</g>
</g>
<defs>
<filter id="filter0_d_0_1" x="-16" y="-11.5" width="64" height="64" filterUnits="userSpaceOnUse" color-interpolation-filters="sRGB">
<feFlood flood-opacity="0" result="BackgroundImageFix"/>
<feColorMatrix in="SourceAlpha" type="matrix" values="0 0 0 0 0 0 0 0 0 0 0 0 0 0 0 0 0 0 127 0" result="hardAlpha"/>
<feOffset dy="4"/>
<feGaussianBlur stdDeviation="4"/>
<feComposite in2="hardAlpha" operator="out"/>
<feColorMatrix type="matrix" values="0 0 0 0 1 0 0 0 0 0.941667 0 0 0 0 0.9125 0 0 0 0.4 0"/>
<feBlend mode="normal" in2="BackgroundImageFix" result="effect1_dropShadow_0_1"/>
<feBlend mode="normal" in="SourceGraphic" in2="effect1_dropShadow_0_1" result="shape"/>
</filter>
<clipPath id="clip0_0_1">
<rect width="1920" height="14625" fill="white" transform="translate(-159 -1897)"/>
</clipPath>
</defs>
</svg>
