<svg width="30" height="33" viewBox="0 0 30 33" fill="none" xmlns="http://www.w3.org/2000/svg">
<path d="M27.5784 17.9117L22.7707 19.4608C22.7707 19.5618 22.7707 19.6965 22.7707 19.7976C22.7034 21.1446 21.7621 22.3233 20.4172 22.5927L20.1146 22.66C18.3664 23.0305 16.5845 23.2662 14.8026 23.3672L13.3233 23.4009C12.8862 23.4346 12.4828 23.0641 12.4828 22.6264C12.4491 22.1886 12.819 21.7845 13.256 21.7845L14.7353 21.7171C16.4164 21.6498 18.131 21.414 19.7784 21.0773L20.081 21.0099C20.6862 20.8752 21.1233 20.3364 21.1569 19.7302C21.1569 19.3598 21.056 19.023 20.7871 18.7536C20.5517 18.4842 20.1819 18.3158 19.8457 18.3158L12.1466 18.0801C11.306 18.0464 10.4319 18.3158 9.7595 18.821L3.37158 23.5019L10.0285 28.4523L16.4836 29.0248C17.6267 29.1258 18.7362 28.7891 19.644 28.0819L29.0577 20.6395C29.4276 20.3701 29.6293 19.966 29.6629 19.4945C29.6965 19.0567 29.5284 18.6189 29.2258 18.2822C28.7888 17.878 28.1163 17.7433 27.5784 17.9117Z" fill="#D85D27"/>
<path d="M0.143228 27.509C0.0423663 27.6437 -0.0248749 27.8457 0.00874571 28.0141C0.0423663 28.1825 0.143228 28.3509 0.27771 28.4519L5.52252 32.3583C5.82511 32.594 6.26218 32.5267 6.4639 32.2236L8.54838 29.3948L2.22771 24.7139L0.143228 27.509Z" fill="#D85D27"/>
<path d="M13.4575 11.9509C13.7264 11.9509 13.9954 11.8835 14.2308 11.7488C14.5333 11.5805 14.9032 11.4794 15.2394 11.4794H15.5083V15.1838C15.5083 15.7226 15.9454 16.1941 16.517 16.1941H19.3075C19.4756 16.1941 19.61 16.0594 19.61 15.891C19.61 15.5542 19.5092 15.2511 19.3747 14.9481C19.2402 14.7123 19.173 14.4429 19.173 14.1398C19.173 13.1969 19.9463 12.4224 20.9213 12.4224C21.8626 12.456 22.6359 13.2643 22.5687 14.2072C22.5687 14.4766 22.4678 14.746 22.3333 14.9481C22.1652 15.2175 22.098 15.5206 22.098 15.8573C22.098 16.0257 22.2325 16.1604 22.4006 16.1604H25.2247C25.7626 16.1604 26.2333 15.7226 26.2333 15.1501V11.4458H26.435C26.8049 11.4458 27.1747 11.5468 27.5445 11.7488C27.7462 11.8499 27.9816 11.9172 28.2169 11.9172C29.1247 11.9509 29.9988 11.1764 29.9988 10.2671C30.0324 9.29049 29.2592 8.51595 28.2842 8.51595C28.0152 8.51595 27.7462 8.5833 27.5109 8.718C27.2083 8.88638 26.8385 8.98741 26.5023 8.98741H26.2333V5.28305C26.2333 4.74423 25.7962 4.27277 25.2247 4.27277H22.098V4.07071C22.098 3.70028 22.1988 3.32984 22.4006 2.95941C22.5014 2.75735 22.5687 2.52162 22.5687 2.28589C22.6023 1.37663 21.829 0.501058 20.9213 0.501058C19.9463 0.467382 19.173 1.24193 19.173 2.21853C19.173 2.48794 19.2402 2.75735 19.3747 2.99308C19.5428 3.29617 19.6437 3.6666 19.6437 4.00336V4.27277H16.517C15.979 4.27277 15.5083 4.71056 15.5083 5.28305V8.98741H15.3402C14.9704 8.98741 14.6006 8.88638 14.2308 8.68433C14.029 8.5833 13.7937 8.51595 13.5583 8.51595C12.617 8.48227 11.7764 9.22314 11.7764 10.1661C11.7428 11.1764 12.5161 11.9509 13.4575 11.9509Z" fill="#D85D27"/>
</svg>
